<?xml version="1.0" standalone="no"?>
<!DOCTYPE svg PUBLIC "-//W3C//DTD SVG 1.1//EN" "http://www.w3.org/Graphics/SVG/1.1/DTD/svg11.dtd" >
<svg xmlns="http://www.w3.org/2000/svg">
<metadata>
This is a custom SVG webfont generated by Font Squirrel.
Designer    : Stuart Sandler
Foundry     : Font Diner
Foundry URL : httpwwwfontdinercom
</metadata>
<defs>
<font id="webfontpkChblho" horiz-adv-x="1378" >
<font-face units-per-em="2048" ascent="1638" descent="-410" />
<missing-glyph horiz-adv-x="430" />
<glyph unicode=" "  horiz-adv-x="430" />
<glyph unicode="&#x09;" horiz-adv-x="430" />
<glyph unicode="&#xa0;" horiz-adv-x="430" />
<glyph unicode="!" horiz-adv-x="387" d="M272 1278q0 45 -3 84t-15 65q-4 9 -15 16.5t-24.5 12.5t-27.5 7.5t-25 2.5q-14 0 -22 -5t-13 -23t-8 -54l-8 -96q-4 -35 -4.5 -77t-0.5 -89q0 -74 2.5 -155t6.5 -159.5t9.5 -152t10.5 -132t10 -99.5t9 -55q5 -17 13.5 -22t16.5 -5q17 0 33.5 5.5t20.5 25.5q2 7 4 40.5 t4 85.5l6 118l6 139q3 72 5.5 147t4.5 144t3 129t1 102zM326 100q0 16 -6 35.5t-19 36t-34 28t-52 11.5q-45 0 -75 -14t-47.5 -35t-24.5 -45t-7 -43q0 -17 9 -39.5t25.5 -43t40 -34.5t52.5 -14q30 0 55.5 17t43.5 41.5t28.5 51.5t10.5 47z" />
<glyph unicode="&#x22;" horiz-adv-x="569" d="M508 1339q0 61 -12 95q-10 20 -35 30.5t-45 10.5q-23 0 -37 -14t-21.5 -36.5t-9.5 -50t-2 -53.5q0 -20 1 -36.5t1 -29.5q0 -61 3 -129.5t7.5 -128.5t9.5 -103.5t9 -55.5q3 -14 15 -25.5t34 -11.5t38 9.5t21 31.5q2 7 4.5 39t5 78t5 101t4.5 107.5t3 98t1 73.5zM221 1339 q0 31 -2 54.5t-10 40.5q-8 18 -31.5 29.5t-42.5 11.5q-24 0 -38.5 -13.5t-22.5 -34.5t-10.5 -47.5t-2.5 -52.5q0 -20 1 -39t1 -33q0 -61 3 -129.5t7.5 -128.5t9 -103.5t7.5 -55.5q3 -14 16.5 -25.5t36.5 -11.5q20 0 37.5 9.5t20.5 31.5q2 7 4 39t4 78t4 101l4 108 q2 52 3 97.5t1 73.5z" />
<glyph unicode="#" horiz-adv-x="877" d="M815 877q0 10 -13.5 25t-32 29.5t-39 25t-34.5 10.5q-12 0 -24 -1t-25 -3q9 54 17 94.5t8 60.5q0 10 -5.5 18.5t-14 14.5t-19 9t-19.5 3q-35 0 -54.5 -52t-39.5 -169l-66 -13l-67 -14l25 127q10 53 10 76q0 10 -5 18.5t-13 14.5t-17.5 9t-17.5 3q-20 0 -35.5 -16.5 t-26.5 -42.5t-19 -57.5t-13 -61.5t-7.5 -55.5t-3.5 -38.5q-15 -3 -39.5 -5.5t-38.5 -2.5q-20 0 -38 5t-33 5q-6 0 -13 -6t-14 -14t-11.5 -17.5t-4.5 -17.5q0 -14 9 -29.5t22 -29t28.5 -22.5t28.5 -9q21 0 45 1.5t47 4.5q-3 -48 -5.5 -96.5t-2.5 -96.5q-23 -5 -41 -5.5 t-29 -0.5q-18 0 -35.5 5t-36.5 5q-6 0 -13 -6t-13.5 -14.5t-10.5 -17.5t-4 -15v-2q0 -16 10 -32t24 -29t29 -21t26 -8q46 0 92 6q2 -65 4.5 -112t5.5 -64q3 -19 16 -23t19 -4h2q12 0 23 6.5t14 20.5q2 8 3.5 25.5t3 43t3 58t2.5 69.5q42 10 77 17t77 10q0 -42 0.5 -78.5 t2 -65.5t3.5 -49.5t4 -29.5q3 -19 16 -23t21 -4q12 0 21.5 6.5t12.5 20.5q3 8 5.5 29.5t3.5 52.5l4 70l4 83q57 5 97.5 9t60.5 10q26 8 41.5 17.5t15.5 29.5q0 12 -15.5 27.5t-36.5 29t-43 22.5t-34 9q-16 0 -35 -3l-41 -5l2 53q3 32 7 64.5t9 64.5l87 9q36 3 53 9 q26 8 41.5 18.5t15.5 27.5zM504 803q-3 -48 -5.5 -96t-4.5 -95l-76 -16q-37 -8 -72 -14q2 26 3 51t3 51l6 47q3 24 7 47q34 8 69.5 12.5t69.5 12.5z" />
<glyph unicode="$" horiz-adv-x="954" d="M893 1026q0 38 -18.5 67.5t-49 51.5t-68.5 37t-77.5 25t-77 14.5t-65.5 5.5q6 98 6 151v24q0 10 -2 15q-1 7 -7.5 16t-14.5 17.5t-17.5 14t-18.5 5.5h-2h-2q-27 0 -42 -59q-15 -61 -23 -192q-35 -6 -75 -18.5t-79 -31.5t-75 -43.5t-63.5 -54.5t-44 -66t-16.5 -77 q0 -66 36 -109t89.5 -70.5t114.5 -44t111 -28.5q2 -68 4.5 -135.5t5.5 -132.5q-45 8 -82.5 21t-66.5 27.5t-51.5 28.5t-37.5 25t-26 18t-21 7q-15 0 -21.5 -10.5t-6.5 -24.5q0 -8 7.5 -21t21.5 -28.5t33 -32.5t42 -33q34 -25 88.5 -49t128.5 -35q6 -112 13 -192.5t12 -108.5 q3 -17 9.5 -25.5t13.5 -12t13 -3.5h7q2 0 6 1t9 5t10 12t7 23q0 6 1 17t1 28q0 40 -2 105l-6 143q46 0 99.5 10.5t99 35t76 64t30.5 97.5q0 62 -31 102.5t-78 67t-101.5 42t-102.5 25.5q0 110 5 212t11 190q101 -5 159.5 -33.5t58.5 -73.5q0 -26 -10.5 -44.5t-25 -31.5 t-28.5 -20t-22 -10q-10 -3 -24 -14.5t-26.5 -26t-21 -30t-8.5 -26.5q0 -20 16 -29t35 -9q13 0 37.5 7t53 21t58.5 34.5t54 46.5t39.5 57.5t15.5 68.5zM410 1133q0 -76 -1 -150t-1 -149v-72q-32 8 -70 19.5t-71 30t-55 46.5t-22 70q0 41 20.5 75t53 60t71.5 43.5t75 26.5z M702 496q0 -35 -25.5 -55t-57.5 -29q-37 -11 -84 -13h-15q-2 60 -3 123.5t-1 126.5q29 -8 61.5 -19.5t60 -29t46 -43t18.5 -61.5z" />
<glyph unicode="%" horiz-adv-x="1186" d="M764 1350q0 8 -2.5 19t-13.5 11q-7 0 -15 -8q-35 -43 -62.5 -63.5t-45.5 -28.5q-17 36 -44 64.5t-61 48.5t-72.5 30.5t-78.5 10.5q-66 0 -122.5 -22t-97.5 -61.5t-64.5 -95t-23.5 -122.5q0 -59 21.5 -105.5t58.5 -78.5t86.5 -49t104.5 -17h6q59 0 112 20q57 21 100 59.5 t69 91.5t26 117v27q15 7 35 24.5t39 39.5t32 45.5t13 42.5zM1102 1317q0 10 -2 22.5t-6.5 24t-13 19.5t-21.5 8q-34 0 -96.5 -68.5t-165.5 -210.5l-98 -138l-103 -157l-104 -164l-100 -163l-90 -151l-75 -130l-55 -100q-23 -42 -31 -60q-8 -16 -8 -31t11 -26.5t26 -11.5 q8 0 17 4t20 16q10 11 33 44l54 84l70 111l82 131l90 140l93 141l106 153l105 142l96 126l80 104l56 77.5t26 44.5q4 10 4 19zM1124 281q0 75 -33.5 134.5t-107.5 90.5q-12 17 -48.5 27t-84.5 10q-66 0 -122.5 -22.5t-98 -62.5t-65 -95.5t-23.5 -122.5q0 -58 22 -104 t59.5 -78.5t86 -50t102.5 -17.5h6q59 0 113 20q56 22 99 61t69 92.5t26 117.5zM551 1171q0 -40 -17.5 -72t-46 -54.5t-65 -34t-74.5 -11.5q-41 0 -74 13.5t-56 34.5t-35.5 48t-12.5 54q0 39 14 74.5t39.5 63t60 43.5t74.5 16q31 0 57 -6t46 -15q-6 -9 -8 -19t-2 -22 q0 -17 6 -34t18.5 -31t31.5 -24t44 -13v-11zM1030 281q0 -41 -18 -73t-46.5 -54t-65 -33.5t-73.5 -11.5q-41 0 -74 13t-56 33.5t-35.5 47t-12.5 53.5q0 38 15 74t40.5 64t60 44.5t73.5 16.5q41 0 76 -11.5t60.5 -33.5t40.5 -54.5t15 -74.5z" />
<glyph unicode="&#x26;" horiz-adv-x="965" d="M995 690q0 15 -20.5 33t-47.5 33.5t-53.5 26t-39.5 10.5q-22 0 -52.5 -3t-66.5 -8t-76 -11.5t-82 -14.5q5 91 11.5 147.5t6.5 87.5q0 7 -3 18.5t-8 22t-12 18t-15 7.5q-6 0 -15 -4.5t-17 -11.5t-15 -16t-9 -17q-18 -59 -29.5 -131t-17.5 -144l-20 -4q-17 25 -38.5 50.5 t-47 46t-54.5 33.5t-61 13q-53 0 -88 -16.5t-56 -39.5t-29.5 -48t-8.5 -43q0 -30 11 -62.5t31.5 -59.5t48 -44.5t60.5 -17.5q60 0 119 12l125 25q0 -78 5 -135t13 -74q4 -8 12 -29t18 -43.5t22 -39.5t24 -17q29 0 39 29.5t10 80.5q0 48 -5.5 113t-8.5 137l20 2q64 5 119 10 l101 9q45 4 77 8t48 8q34 9 53.5 21t21.5 32zM375 721l-102 -16q-45 -7 -68 -7q-9 0 -23.5 1t-29 5t-25 11.5t-10.5 19.5q0 34 26 52t74 18q18 0 38 -7t40.5 -19t41 -27t38.5 -31z" />
<glyph unicode="'" horiz-adv-x="283" d="M221 1339q0 31 -2 54.5t-10 40.5q-8 18 -31.5 29.5t-42.5 11.5q-24 0 -38.5 -13.5t-22.5 -34.5t-10.5 -47.5t-2.5 -52.5q0 -20 1 -39t1 -33q0 -61 3 -129.5t7.5 -128.5t9 -103.5t7.5 -55.5q3 -14 16.5 -25.5t36.5 -11.5q20 0 37.5 9.5t20.5 31.5q2 7 4 39t4 78t4 101 l4 108q2 52 3 97.5t1 73.5z" />
<glyph unicode="(" horiz-adv-x="766" d="M705 1448q-2 5 -8.5 12.5t-12.5 7.5q-11 0 -43.5 -11.5t-78.5 -35.5t-101 -60.5t-110.5 -86.5t-108 -114t-92.5 -142.5t-64.5 -172t-24.5 -202.5q0 -133 38 -236.5t96.5 -180.5t130.5 -130t139.5 -85.5t123 -47t81.5 -14.5q32 0 32 33q0 8 -10 15.5t-39 22.5 q-90 49 -168.5 107.5t-136.5 132t-91.5 163t-33.5 200.5q0 124 27 230t79 197.5t127 170.5t171 149l20 14q13 9 26 20t22.5 22.5t9.5 21.5z" />
<glyph unicode=")" horiz-adv-x="766" d="M705 643q0 109 -24.5 202.5t-64.5 172t-92.5 142.5t-108 114t-110.5 86.5t-101 60.5t-78.5 35.5t-43.5 11.5q-6 0 -12.5 -7.5t-8.5 -12.5q0 -10 9.5 -21.5t22.5 -22.5t26 -20l20 -14q96 -70 171 -149t127 -170.5t79 -197.5t27 -230q0 -111 -33.5 -200.5t-91.5 -163 t-136.5 -132t-168.5 -107.5q-29 -15 -39.5 -22.5t-10.5 -15.5q0 -17 9 -25t24 -8q26 0 81.5 14.5t123 47t139.5 85.5t130.5 130t96.5 180.5t38 236.5z" />
<glyph unicode="*" horiz-adv-x="805" d="M743 1059q0 11 -1.5 24.5t-5 27t-9.5 24t-14 14.5h-11q-13 0 -37.5 -2.5t-55 -6.5t-64 -9t-64.5 -11l47 60l43 56l33 42q13 17 14 18q5 12 5 19q0 15 -13 28t-31 22.5t-36.5 15t-30.5 5.5q-10 0 -18 -4q-5 -4 -15 -25l-23 -51q-13 -29 -27 -64t-26 -68l-27 68 q-14 35 -27 64l-23 51q-10 21 -15 25q-8 4 -18 4q-11 0 -29.5 -5.5t-36.5 -15t-31.5 -22.5t-13.5 -28q0 -8 6 -19q1 -1 14 -18l34 -44l46 -58l46 -60l-76 11l-72 11l-54 8q-22 3 -24 3q-24 -3 -32.5 -20.5t-8.5 -38.5q0 -10 2 -24.5t5.5 -28.5t9.5 -25.5t14 -14.5 q2 -2 12 -2q15 0 40 2.5t55.5 6.5t63 9t61.5 9l-46 -58l-44 -56l-33 -42q-13 -16 -13 -18q-6 -12 -6 -21q0 -15 13 -28t31 -22t36.5 -14t30.5 -5t18 6q5 4 15 24.5t23 50t27 64.5l27 66l26 -66q14 -35 27 -64.5t23 -50t15 -24.5q3 -3 8 -4.5t10 -1.5q12 0 30.5 5t36.5 14 t31 22t13 28q0 8 -5 21q-1 2 -14 20l-34 44l-46 58l-49 60l75 -11l74 -11q33 -5 55 -8t23 -3q26 2 33.5 21t7.5 41z" />
<glyph unicode="+" horiz-adv-x="1059" d="M997 721q0 15 -20 32.5t-46 32.5t-52.5 25t-40.5 10q-22 0 -52 -3t-66 -7.5t-76 -10.5l-81 -14q3 88 9 144.5t6 87.5q0 8 -2.5 19.5t-7.5 22t-12 18t-15 7.5q-6 0 -14 -4.5t-16 -11.5t-15.5 -15.5t-10.5 -17.5q-18 -59 -29.5 -130.5t-17.5 -143.5l-74 -14 q-35 -6 -65 -10.5t-53.5 -7.5t-38.5 -3q-25 0 -47.5 6t-46.5 6q-8 0 -17 -7t-17 -17t-13 -20.5t-5 -18.5q0 -21 12.5 -40t31.5 -33.5t41 -23t40 -8.5t45.5 3t60.5 8l70 12l70 12v-33q0 -65 4.5 -112.5t12.5 -63.5q4 -7 11.5 -28t18 -43t22.5 -39t25 -17q28 0 37.5 29t9.5 80 q0 49 -5 113t-7 137l19 2q64 6 119.5 10.5t100.5 9t77 8.5t49 9q32 8 51.5 19.5t19.5 33.5z" />
<glyph unicode="," horiz-adv-x="395" d="M334 47q0 39 -11 69.5t-28.5 51.5t-40 32t-45.5 11q-63 0 -105.5 -35.5t-42.5 -101.5q0 -17 8.5 -39t25 -41.5t39.5 -33.5t52 -15q3 -13 5 -26.5t2 -27.5q0 -38 -11.5 -76t-25 -69t-25 -51t-12.5 -21v-4q2 0 3 -1l1 -1q2 0 2 2q1 0 10 6.5t24 19t33.5 31t38.5 42.5 q18 22 36.5 51t33 64.5t24 76.5t9.5 86z" />
<glyph unicode="-" horiz-adv-x="981" d="M920 721q1 15 -17 32.5t-42.5 32.5t-49.5 25t-39 10q-32 0 -81 -7t-106 -18l-117 -22l-113 -22q-53 -11 -95 -18t-63 -7q-23 0 -44 6t-44 6h-3q-6 1 -14 -5.5t-14.5 -16.5t-11.5 -20.5t-5 -18.5q0 -20 11 -39t28.5 -34t38 -24.5t39.5 -9.5q41 0 81 6.5t83 16.5l90 20 q48 10 105 17q58 7 109 11.5t92 8.5t70 8t44 9q32 9 50 20t18 33z" />
<glyph unicode="." horiz-adv-x="387" d="M326 100q0 16 -6 35.5t-19.5 36t-34.5 28t-51 11.5q-45 0 -75 -14t-47.5 -35t-24.5 -45t-7 -43q0 -17 8.5 -39.5t25 -43t39.5 -34.5t52 -14q31 0 56.5 17t44 41.5t29 51.5t10.5 47z" />
<glyph unicode="/" horiz-adv-x="662" d="M631 1386v-2q-1 -13 -13.5 -47t-33.5 -85l-50 -115l-60 -139l-65 -158q-33 -82 -63 -168l-52 -153l-52 -152l-46 -141l-40 -120q-17 -54 -30 -90t-20 -49q-9 -18 -18.5 -23t-17.5 -5q-17 0 -28 15t-11 32v6q0 3 2 8q4 26 21.5 95t45.5 165l62 212l72 235l79 233 q40 114 78 207l61 143q27 60 49 99.5t41 59t36 19.5q12 0 22 -9t16.5 -21.5t10.5 -26t4 -22.5v-3z" />
<glyph unicode="0" horiz-adv-x="1159" d="M1098 674q0 51 -7 121t-22.5 140.5t-39 134t-56.5 101.5q-13 16 -24 20.5t-19 4.5t-17.5 -3.5t-9.5 -14.5q0 -2 0.5 -5t3.5 -6q5 -7 19.5 -46.5t29.5 -102t27 -142.5t12 -167q0 -61 -10 -127.5t-31 -131t-53.5 -122.5t-78 -102t-104.5 -69.5t-132 -25.5q-72 1 -130 21 t-103.5 55.5t-78.5 83.5t-54 104.5t-31.5 118.5t-10.5 125q0 94 18.5 188t55.5 181q23 54 59.5 110.5t84 103.5t105 77t122.5 30q25 0 49 -7.5t42.5 -22t30 -36t11.5 -49.5q0 -24 -9.5 -47.5t-21.5 -46.5q-6 -9 -9 -29.5t-3 -43.5q0 -9 0.5 -23t4 -27t10.5 -22.5t20 -9.5 q11 0 22.5 5.5t22.5 14.5q12 11 28 38t30 63t24 78.5t10 84.5v17q0 46 -18.5 80.5t-49.5 57.5t-70.5 34.5t-80.5 11.5q-88 0 -168 -40t-147 -103t-119.5 -139.5t-84.5 -149.5q-42 -96 -64 -198t-22 -208q0 -74 14 -148.5t41.5 -143.5t69 -129t97 -104.5t125.5 -70t153 -26.5 h6q86 0 159 28q74 29 133.5 79.5t104.5 118t74.5 144t44.5 157t15 157.5z" />
<glyph unicode="1" horiz-adv-x="281" d="M219 1370q0 15 -3.5 32t-11.5 30.5t-21 22.5t-31 9q-21 0 -36.5 -25t-25.5 -65.5t-16 -91.5t-8.5 -104t-3.5 -102.5t-1 -86.5v-47q0 -94 3 -195.5t8 -200t11.5 -189.5t13 -164.5t12.5 -126t10 -72.5q2 -15 8 -23t12.5 -12t13.5 -5t11 -1q15 0 24 7t13 18t5 24t1 25v2 q0 174 -9.5 347t-9.5 347q0 104 5 203.5t10.5 185.5t10.5 153t5 105z" />
<glyph unicode="2" horiz-adv-x="889" d="M827 12q0 10 -7 26t-17.5 31t-22.5 26.5t-22 13.5q-11 3 -34.5 3.5t-55.5 0.5q-91 0 -182.5 -5.5t-182.5 -5.5q-25 0 -50 1t-50 3l29 26l32 30q53 51 115 116.5t124.5 139.5t120 154t102 162t71 162.5t26.5 154.5q0 90 -28 167.5t-80.5 134t-127 88.5t-167.5 32 q-70 0 -135 -19.5t-114.5 -58t-79.5 -96t-30 -132.5q0 -65 28.5 -118t78.5 -97q35 -29 71 -45t56 -16q14 0 29.5 10t15.5 27q0 11 -7.5 27.5t-18.5 33t-23 29.5t-21 16q-49 17 -72.5 58t-23.5 92t19.5 89t52.5 64t76 39t90 13q74 0 124.5 -30t81 -78t43.5 -109t13 -123 q0 -66 -23 -138.5t-61 -146t-87.5 -146.5t-101.5 -141t-103 -128l-93 -109l-54 -62q-23 -27 -37 -46t-21 -31.5t-7 -20.5q0 -11 5.5 -27t14.5 -31.5t21 -27.5t25 -14q17 -4 40.5 -5.5t51.5 -1.5q69 0 136.5 5.5t135.5 5.5q31 0 65.5 -1.5t67.5 -4t62 -4t47 -1.5q9 0 21 2 t22.5 7t18 12.5t7.5 17.5z" />
<glyph unicode="3" horiz-adv-x="748" d="M719 408q0 71 -22.5 125t-59.5 95t-83.5 69.5t-94.5 47.5t-93 30t-79 16q30 7 66.5 19.5t73 31.5t71 46t61.5 63t43 83t16 105q0 57 -19.5 116t-63 106t-113 77t-170.5 30q-42 0 -92 -6q-12 -1 -23.5 -6t-21 -13t-15.5 -20.5t-6 -29.5q0 -31 17.5 -42.5t46.5 -11.5 q18 0 35.5 2t35.5 2q44 0 91.5 -12t87 -37t65 -64.5t25.5 -94.5q0 -71 -24.5 -119.5t-60.5 -82t-79 -54.5t-79 -37t-60.5 -30t-24.5 -32q0 -15 30.5 -23.5t76.5 -20t99 -31t99 -56t76.5 -95t30.5 -148.5q0 -69 -27 -126.5t-74 -98t-111 -63t-139 -22.5q-16 0 -33.5 2.5 t-35 6t-34 6t-30.5 2.5q-28 0 -47.5 -15t-19.5 -43q0 -35 39.5 -57.5t117.5 -22.5q100 0 178 18.5t137 50t100 73.5t67 90t37.5 99.5t11.5 101.5z" />
<glyph unicode="4" horiz-adv-x="913" d="M852 569q0 9 -10.5 24t-25.5 29t-30 25t-24 12q-5 2 -11 2.5t-14 0.5q-6 0 -13.5 -0.5t-16.5 -2.5v33q0 106 5 208t11 190l11 157q5 69 5 109q0 15 -4 31t-12 29.5t-21.5 22t-31.5 9.5h-2h-2q-40 0 -56.5 -83t-25.5 -259q-3 -38 -3.5 -81t-0.5 -89q0 -68 1.5 -139.5 t4.5 -143.5q-61 -4 -128.5 -10.5t-129.5 -11.5l-110 -9q-48 -4 -71 -4q-8 0 -10 3l30 74l35 93l38 100l34 99l28 87q13 39 20 63q15 52 23.5 107.5t8.5 109.5q0 61 -22 69l-20 6q-10 3 -19 3q-18 0 -28 -5.5t-15 -14.5t-7 -21.5t-5 -26.5l-16 -76q-9 -46 -22 -100.5 t-29 -115t-34 -120.5q-52 -160 -76.5 -245t-27.5 -111q-2 -4 -2 -5v-3v-2v-2q0 -15 10 -31t24 -29.5t28 -22t22 -9.5q9 0 19.5 -1.5t23.5 -1.5q34 0 77 3t89 8l88 8q43 5 77 8q23 2 48.5 3t54.5 3q5 -91 11 -174.5t12.5 -151.5t12 -116t9.5 -68q3 -16 10 -24t14.5 -11t14 -3 t8.5 -1q2 0 7 1t11.5 5t12 12t6.5 23q2 7 2 16v21q0 32 -1.5 81.5t-4 111.5t-4.5 133l-4 145q37 0 63.5 1t34.5 3q20 7 32.5 16t12.5 27z" />
<glyph unicode="5" horiz-adv-x="764" d="M702 428q0 109 -46.5 185t-121 123.5t-167.5 68.5q-89 20 -177 20h-8h-10q2 10 2 29v55q5 96 11.5 189t23.5 186q25 2 62.5 3.5t81 3t89 3.5t85 4t69.5 4.5t43 6.5q8 2 17 13.5t17 26.5t13.5 30t5.5 24q0 20 -15 30.5t-34 10.5q-14 0 -41 -4l-59 -8l-65 -8t-60 -5 q-30 -1 -69.5 -1t-79 -1t-74.5 -3.5t-56 -8.5q-6 -1 -14.5 -10t-16 -22t-13 -28t-5.5 -30q0 -9 2 -14t4 -13q-14 -62 -17 -130t-3 -136v-92q0 -40 1 -68.5t1 -38.5q2 -15 10.5 -26.5t22.5 -16.5q4 -9 25.5 -13.5t54 -8.5t73.5 -10.5t82.5 -20t81.5 -36t70.5 -58t49.5 -87 t19 -122.5q0 -69 -29.5 -126.5t-77.5 -99t-110 -64.5t-127 -23q-20 0 -40.5 2t-39.5 2q-15 0 -29.5 -3t-26 -9.5t-19 -18t-7.5 -29.5q0 -23 11.5 -37t29 -21.5t38 -10t38.5 -2.5q65 0 129 13t122.5 39t108 64t86 87t57.5 109.5t21 131.5z" />
<glyph unicode="6" horiz-adv-x="1018" d="M987 387q0 69 -27.5 136.5t-77.5 121t-119.5 86.5t-154.5 33q-99 0 -174 -28.5t-130 -69.5t-90.5 -87.5t-55.5 -82.5q0 142 28 252.5t73.5 195.5t104 147.5t120 107t120.5 74.5t106.5 50.5t77.5 35t33 27.5q2 5 2 8v9q0 18 -11 28t-27 15t-33.5 6.5t-30.5 1.5 q-18 0 -57 -14t-90.5 -42t-112 -71t-121 -101t-116 -131.5t-98.5 -163t-69 -196t-26 -229.5q0 -64 12.5 -130t39.5 -127.5t69 -115t100.5 -94t135 -63.5t171.5 -23q100 0 179 37t134.5 98t85 139t29.5 160zM848 326q0 -61 -25 -115.5t-67.5 -94.5t-99.5 -63.5t-121 -23.5 q-55 0 -110.5 22.5t-100 64t-72 98.5t-27.5 126q0 59 26 116.5t70 103t103 74t125 28.5q59 0 113.5 -22.5t95.5 -65.5t65.5 -105.5t24.5 -142.5z" />
<glyph unicode="7" horiz-adv-x="877" d="M877 1343q0 9 -10 24.5t-24 30.5t-29.5 27t-27.5 13q-8 2 -18 2h-27q-35 0 -85.5 -2t-108.5 -5t-119 -7l-116 -6q-55 -3 -100 -5t-71 -2q-28 0 -52 9t-50 12h-2q-3 0 -9 -5t-12.5 -12.5t-11 -16.5t-4.5 -16q0 -13 8.5 -29t21 -31t26.5 -25.5t26 -12.5q14 -2 32 -2h38 q109 0 216.5 10.5t215.5 10.5q40 0 78.5 -1.5t72.5 -3.5q-21 -37 -45 -87.5t-53 -118.5q-38 -86 -78 -192l-79 -218l-73 -219l-63 -199l-45 -154.5t-23 -88.5v-15q0 -15 10 -30t27 -15t23 6t16 23q6 12 19 46l31 84l38 113l46 133l51 142l53 143q30 80 63 157l64 146l59 130 l50 107q22 47 35 79t13 45v4v5q0 2 -2 7q5 5 5 10z" />
<glyph unicode="8" horiz-adv-x="987" d="M956 408q0 84 -30.5 151.5t-82 117t-118.5 79.5t-141 39q51 9 101 37.5t89.5 73.5t64.5 104t25 129q0 60 -20.5 119t-65.5 105t-117 74.5t-174 28.5q-100 0 -170 -29.5t-114.5 -76.5t-65 -105.5t-20.5 -115.5q0 -80 24 -140.5t63 -103t88 -67.5t99 -33q-72 -9 -137 -41.5 t-114.5 -83.5t-79 -117.5t-29.5 -144.5q0 -40 9 -88t29.5 -96t54.5 -93t84.5 -79.5t119.5 -55.5t159 -21q92 0 162.5 20.5t122.5 54t87 78t56.5 92.5t31 97t9.5 91zM739 1153q0 -80 -28 -137.5t-67 -95t-82 -55t-73 -17.5q-28 0 -70 17.5t-81.5 55t-67.5 95t-28 137.5 q0 47 19.5 90.5t53.5 76.5t78.5 53t95.5 20q53 0 98.5 -20t79 -53t53 -76.5t19.5 -90.5zM817 387q0 -55 -23 -112.5t-65 -104.5t-101.5 -77t-133.5 -30t-134 30t-102 77t-65 104.5t-23 112.5q0 70 17.5 122t45 90t63 62.5t71.5 39t69.5 20.5t57.5 6t57.5 -6t69 -20.5t71 -39 t63 -62.5t45 -90t17.5 -122z" />
<glyph unicode="9" horiz-adv-x="1018" d="M987 918q0 64 -13 129.5t-40 126.5t-69 115t-100.5 93.5t-134.5 62.5t-171 23q-101 0 -180.5 -37t-134.5 -97.5t-84 -138.5t-29 -159q0 -69 27.5 -137t77 -121.5t119 -87t153.5 -33.5q100 0 175 28.5t130 70t90.5 88.5t56.5 84q0 -142 -28 -253.5t-74 -197t-104.5 -147.5 t-120 -107t-121 -75t-106.5 -50.5t-77.5 -35t-33.5 -27.5q-2 -5 -2 -8v-7q0 -18 11 -29t27 -16t34 -6.5t32 -1.5q18 0 57 14t90.5 42t112 71t121 101t116 132t98.5 164t69 196.5t26 230.5zM793 1083q0 -59 -26 -117t-70.5 -103.5t-103.5 -74t-124 -28.5q-59 0 -113 23 t-95.5 66t-66 105.5t-24.5 141.5q0 62 25 116t67.5 95t100 64.5t122.5 23.5q54 0 109 -22.5t99 -64t72 -99t28 -126.5z" />
<glyph unicode=":" horiz-adv-x="387" d="M326 649q0 15 -6 34t-19.5 35.5t-34.5 28t-51 11.5q-45 0 -75 -14t-47.5 -35t-24.5 -44.5t-7 -41.5t8.5 -40.5t25 -43t39.5 -34t52 -13.5q31 0 56.5 17t44 41.5t29 51.5t10.5 47zM326 100q0 16 -6 35.5t-19.5 36t-34.5 28t-51 11.5q-45 0 -75 -14t-47.5 -35t-24.5 -45 t-7 -43q0 -17 8.5 -39.5t25 -43t39.5 -34.5t52 -14q31 0 56.5 17t44 41.5t29 51.5t10.5 47z" />
<glyph unicode=";" horiz-adv-x="395" d="M326 649q0 15 -6 34t-19.5 35.5t-34.5 28t-51 11.5q-45 0 -75 -14t-47.5 -35t-24.5 -44.5t-7 -41.5t9 -40.5t25.5 -43t40 -34t52.5 -13.5q30 0 55.5 17t43.5 41.5t28.5 51.5t10.5 47zM334 47q0 39 -11 69.5t-28.5 51.5t-40 32t-45.5 11q-63 0 -105.5 -35.5t-42.5 -101.5 q0 -17 8.5 -39t25 -41.5t39.5 -33.5t52 -15q3 -13 5 -26.5t2 -27.5q0 -38 -11.5 -76t-25 -69t-25 -51t-12.5 -21v-4q2 0 3 -1l1 -1q2 0 2 2q1 0 10 6.5t24 19t33.5 31t38.5 42.5q18 22 36.5 51t33 64.5t24 76.5t9.5 86z" />
<glyph unicode="&#x3c;" horiz-adv-x="776" d="M717 840q0 15 -8 30.5t-21 28t-28 21t-29 8.5q-6 0 -23 -6l-38 -12q-19 -6 -38 -13l-26 -10l-94 -29q-50 -15 -99.5 -33.5t-95 -39.5t-80.5 -45.5t-55.5 -52t-20.5 -58.5q0 -17 36 -44.5t91.5 -58.5t122 -62t127.5 -56.5t108 -41.5t64 -16q7 0 22.5 3.5t31 10.5t27 17.5 t11.5 24.5q0 10 -13 19.5t-40 21t-69 25.5l-101 34q-8 3 -30 10t-49 17l-58 21l-55.5 23t-41.5 21t-16 18q0 1 2.5 4t11.5 9t27 15t49 22q90 35 180.5 63t180.5 64q17 8 27 19.5t10 27.5z" />
<glyph unicode="=" horiz-adv-x="891" d="M829 866q0 10 -14 27t-33.5 33.5t-41 29t-35.5 13.5h-9q-28 0 -72 -7t-95 -18l-105 -24l-101 -23q-48 -11 -85.5 -18t-57.5 -7h-2q-20 2 -38 8.5t-38 6.5q-4 0 -11 -7t-14 -16.5t-11.5 -20.5t-4.5 -20q0 -18 10 -36.5t24.5 -33.5t30 -24.5t26.5 -9.5h14q36 0 71 6.5 t73 15.5l81 19q43 9 94 16q53 7 99 12l82 9q37 4 63 8t39 8q28 9 43.5 20.5t17.5 32.5zM829 578q0 10 -14 27t-33.5 33.5t-41 28.5t-35.5 13h-7q-28 0 -72 -7t-95 -18l-105 -23l-102 -23q-48 -11 -86.5 -18t-57.5 -7h-2q-20 0 -38 7t-38 7q-4 0 -11 -6.5t-14 -16.5 t-11.5 -20t-4.5 -18v-2q0 -19 10 -38t24.5 -34t30 -24.5t26.5 -10.5h12q37 0 72.5 6.5t73.5 16.5l81 21q43 10 94 17q53 7 98.5 11.5t82.5 7.5t63 6.5t39 7.5q28 11 43.5 22.5t17.5 33.5z" />
<glyph unicode="&#x3e;" horiz-adv-x="776" d="M717 629q0 31 -20.5 58.5t-55.5 52t-80.5 45.5t-95 39.5t-99.5 33.5l-96 29q-7 3 -25 10t-37 13l-38 12q-17 6 -23 6q-13 0 -28.5 -8.5t-28 -21t-21 -28t-8.5 -30.5q0 -32 37 -47q88 -36 179.5 -64t179.5 -63q32 -13 50.5 -22t27.5 -15t11.5 -9t2.5 -4q0 -7 -16.5 -17.5 t-41.5 -21.5t-55 -23l-58 -21q-28 -10 -49.5 -17t-29.5 -10l-101 -34q-43 -14 -70.5 -25.5t-40.5 -21t-13 -19.5q0 -14 12 -24.5t28 -17.5t31.5 -10.5t22.5 -3.5q16 0 63 16t108 41.5t128 56.5t122.5 62t91.5 58.5t36 44.5z" />
<glyph unicode="?" horiz-adv-x="891" d="M829 1067q0 92 -29 165t-82 124t-127 78.5t-165 27.5q-73 0 -139 -19.5t-116.5 -58.5t-80 -97t-29.5 -136q0 -68 30 -128t81 -103q32 -26 67 -43t60 -17q15 0 31 9t16 28v2q0 10 -7.5 27.5t-18.5 35t-23.5 32t-22.5 18.5q-49 18 -71.5 60t-22.5 93v5q0 47 18 84 q18 38 49.5 64.5t74 40t90.5 13.5q71 0 121 -25.5t81.5 -69.5t45.5 -103q14 -54 14 -115v-8q0 -61 -11.5 -109.5t-33.5 -90.5t-53 -81.5t-70 -83.5l-50 -60q-25 -29 -43.5 -61t-30 -68t-11.5 -79q0 -14 9.5 -28.5t23.5 -26.5t30 -19.5t29 -7.5q11 0 17.5 6.5t6.5 17.5v27 q0 59 15.5 108.5t41 92t57.5 80.5l65 75q32 36 61 72.5t52 75.5t36.5 82t13.5 94zM563 100q0 16 -6 35.5t-19.5 36t-34 28t-50.5 11.5q-46 0 -76 -14t-47 -35t-24 -45t-7 -43q0 -17 8.5 -39.5t24.5 -43t39.5 -34.5t52.5 -14q30 0 55.5 17t44 41.5t29 51.5t10.5 47z" />
<glyph unicode="@" horiz-adv-x="1323" d="M1264 756q0 114 -43 202.5t-116.5 148.5t-170 91t-203.5 31q-80 0 -160.5 -19.5t-155 -56.5t-139 -89t-112.5 -117.5t-75.5 -142.5t-27.5 -163q0 -124 38.5 -217.5t108.5 -156.5t168.5 -94.5t219.5 -31.5q58 0 108.5 7.5t93.5 18.5t78.5 25t63.5 27q8 3 28.5 14t42 25 t38 29t16.5 26q0 10 -7 18.5t-18 8.5q-8 0 -17.5 -5t-25.5 -11q-81 -39 -167 -62.5t-177 -23.5h-8q-89 0 -169 23q-84 24 -146.5 73t-99.5 124q-35 73 -35 170v5q1 114 47 209.5t123 164.5t177.5 107.5t209.5 38.5q84 0 154.5 -28t121.5 -79t79 -121.5t28 -154.5 q0 -15 -2 -39t-7 -50.5t-13 -53.5t-20.5 -48.5t-30 -35t-40.5 -13.5q-71 0 -104 74q21 38 33 79.5t12 72.5q0 72 -17.5 109.5t-48.5 37.5q-28 0 -45 -14t-25.5 -37t-11 -52.5t-2.5 -60.5q0 -32 3 -64t11 -61q-15 -18 -34.5 -36.5t-42.5 -33.5t-49.5 -24.5t-55.5 -9.5 q-34 0 -62 11t-48 30t-31.5 46t-11.5 58q0 61 24 107t63 79t89.5 53.5t103.5 29.5q31 6 50.5 12.5t19.5 26.5q0 11 -6 18t-15 10.5t-19.5 4.5t-19.5 1q-72 0 -148.5 -24t-139.5 -69.5t-103.5 -110.5t-40.5 -146q0 -56 18 -103t51 -81t79 -53t102 -19q49 0 89.5 12t73.5 30.5 t58.5 42t44.5 46.5q23 -48 67.5 -79t96.5 -31q55 0 98.5 24t73.5 68.5t46 108t16 143.5z" />
<glyph unicode="A" horiz-adv-x="1321" d="M1352 377q0 9 -18 24t-42.5 29.5t-51 25t-44.5 11.5h-20q-20 0 -46.5 -1t-58.5 -3l-73 195l-71 196l-74 196q-38 98 -81 193q-21 49 -38.5 81t-32 51t-26 26.5t-20.5 7.5t-17.5 3t-19.5 3q-18 0 -28.5 -10t-16.5 -24.5t-9.5 -31t-8.5 -30.5q-78 -233 -172 -459l-195 -452 h-22h-21q-13 0 -29.5 2t-33 5t-32.5 5t-27 2q-7 1 -16.5 -4.5t-17.5 -13.5t-14 -16.5t-6 -14.5v-2q0 -15 17 -31.5t40 -30t47 -22t38 -8.5h20l-47 -109q-23 -52 -39 -92.5t-25.5 -67t-9.5 -35.5v-2q-2 -15 9.5 -22.5t25.5 -7.5q11 0 24.5 3.5t22.5 14.5q13 17 31.5 47.5 t40.5 72.5l49 93l53 109q57 3 120 7l126 8l120 9q59 4 107 8q56 5 124 7t136 2l53 -116l49 -102l42 -84q19 -38 33 -61q12 -18 30 -25.5t29 -7.5t15.5 11.5t4.5 19.5l-2 4q0 13 -11 48.5t-30 84.5l-41 110l-47 122q57 0 96.5 2.5t53.5 5.5q35 6 55.5 15t22.5 26zM940 455 q-70 -4 -150 -9.5t-161 -10.5l-157 -10l-142 -9l90 194q46 99 88 201.5t79 205.5t64 204q65 -196 137 -385z" />
<glyph unicode="B" horiz-adv-x="1452" d="M1434 1036q0 84 -34 147.5t-90.5 110t-129.5 77.5t-150.5 49.5t-153.5 26t-139 7.5q-32 0 -81.5 -3t-108.5 -10.5t-124 -19.5t-128 -30.5t-120 -43.5t-100.5 -58t-69 -74.5t-25.5 -92.5q0 -48 23.5 -88.5t58.5 -74.5t77.5 -59.5t79.5 -43.5q-2 -32 -3 -68t-1 -73 q0 -67 2.5 -137.5t6.5 -140.5t9 -137t11 -126q-38 19 -63 30t-38 11q-8 0 -10 -4t-2 -10v-4q2 -7 31.5 -34.5t85.5 -62.5l14 -112q5 -47 10 -64q3 -11 8 -17.5t11 -10.5t12 -5t10 -2q17 0 26 6t13.5 16t5 22.5t0.5 25.5v2v80q42 -19 93 -36.5t109 -30.5t123 -21t136 -8 q51 0 111.5 7t120.5 23t116.5 41.5t99.5 63t69 87.5t26 114q0 66 -29.5 116t-77 86t-109 61t-125.5 40t-125.5 23t-109.5 11q52 7 120 20.5t140 36t141.5 54.5t124.5 76t88.5 101t33.5 130zM1266 1024q0 -65 -28.5 -115t-75 -87.5t-106 -64.5t-121.5 -46.5t-121 -32.5 l-106 -24q-46 -11 -73.5 -20t-26.5 -20t27 -20t67 -18t93.5 -19.5t107 -26t107 -37.5t93.5 -53.5t67 -73.5q26 -44 26 -102q0 -45 -19 -78q-20 -36 -53 -61t-75.5 -41t-87.5 -25t-89.5 -12.5t-80.5 -3.5q-140 0 -248.5 25t-188.5 57q-1 41 -3.5 87t-4.5 95l-2 99 q-2 51 -2 100q0 80 4 158t10 147q23 -5 41.5 -7.5t32.5 -2.5q6 0 17 1.5t21.5 4.5t18 8t7.5 12l-2 2q0 10 -14 26.5t-34 33.5t-41 31.5t-36 19.5l5 80q3 34 3 55v19q0 9 -2 12q-3 8 -11 16t-18.5 14.5t-21 10.5t-19.5 4q-29 0 -45.5 -37t-26.5 -113q-31 25 -53 61.5 t-22 78.5q0 49 33 85.5t85.5 63t117.5 44.5t128 28.5t117 15t86 4.5q57 0 119 -6.5t122.5 -22t115 -41.5t96 -66t66 -94.5t24.5 -127.5z" />
<glyph unicode="C" horiz-adv-x="1425" d="M1425 428q0 9 -10 16t-18 9q-16 0 -26.5 -13.5t-27.5 -38.5q-57 -84 -120 -147.5t-137.5 -106t-161.5 -63.5t-191 -21q-113 0 -217 40t-183.5 112t-127 171t-47.5 216q0 90 26 180t72.5 173.5t111.5 155.5t143 125t166 83.5t181 30.5q39 0 77 -7.5t68 -25.5t48 -48.5 t18 -76.5q0 -21 -6.5 -40.5t-15 -35.5t-17.5 -28l-14 -17q-7 -7 -13.5 -20t-11 -29.5t-7.5 -34.5t-3 -33q0 -26 9.5 -38.5t37.5 -12.5q9 0 20.5 1.5t22.5 6.5q15 8 46 33.5t61.5 66t53.5 94.5t23 118q0 71 -38.5 113.5t-95.5 65t-122 29.5t-118 7q-109 0 -214 -32 t-199.5 -88.5t-174.5 -135t-138 -172t-91 -198.5t-33 -214q0 -160 54.5 -282.5t149.5 -205.5t223.5 -126t276.5 -43q96 0 187 19t171.5 59t148.5 100.5t118 144.5q18 29 30 56t20 49t11.5 37.5t3.5 21.5z" />
<glyph unicode="D" horiz-adv-x="1423" d="M1423 852q0 102 -27.5 185.5t-77 149.5t-117.5 114t-149 80t-171.5 47.5t-184.5 15.5q-142 0 -272.5 -34t-237.5 -97q-42 -25 -92 -63t-94 -84t-73 -99.5t-29 -110.5q0 -23 11.5 -44t37.5 -21q15 0 26 15.5t17 27.5q49 90 124.5 162.5t166.5 123t192.5 78t202.5 27.5 q72 0 145.5 -12.5t141.5 -37.5t127.5 -63.5t103 -91.5t69 -120t25.5 -150q0 -94 -27.5 -189t-77.5 -182.5t-118.5 -163.5t-151 -132.5t-175 -89t-189.5 -32.5q-47 0 -84 9t-57 24q-18 15 -30 49t-19 80.5t-10 103.5t-3 119q0 66 2.5 135.5t6.5 135.5t9 127l9 108l7 112 q3 38 3 56q0 14 -5 24.5t-22 10.5q-11 0 -21.5 -5t-21.5 -13q-2 -1 -7.5 -7t-14 -27.5t-19.5 -62t-24 -110.5q-16 -88 -27.5 -190t-17.5 -201q-3 -39 -4.5 -85t-1.5 -94q0 -57 3.5 -114.5t12 -107.5t23.5 -88.5t38 -57.5q26 -22 77.5 -32.5t117.5 -10.5q119 0 235.5 32.5 t222.5 92t197 142t157.5 183t104 215.5t37.5 238z" />
<glyph unicode="E" horiz-adv-x="1360" d="M1391 1155q0 62 -37 108.5t-96.5 79.5t-134 54.5t-148 34t-139.5 17.5t-109 5q-60 0 -137 -12t-158 -36t-158.5 -60t-138.5 -84.5t-98 -109.5t-37 -134q0 -96 38.5 -168t101 -124.5t142 -87.5t160.5 -56q-51 -23 -105 -56t-99 -75.5t-74 -95t-29 -115.5q0 -61 25 -108 t67 -81t95.5 -56.5t111 -36t114 -19t103.5 -5.5q137 0 243 27t183 65t127.5 78.5t75.5 67.5q25 26 40 49.5t15 34.5q0 8 -4.5 16.5t-13.5 8.5q-11 0 -26 -10t-40 -25q-34 -23 -87.5 -56t-130.5 -63t-178.5 -51t-231.5 -21q-31 0 -67.5 2t-73 8t-70.5 18t-60.5 32.5t-42.5 51 t-16 73.5q0 58 19 101.5t48 75.5t63.5 56t65.5 43q38 22 60 39t22 39v2q0 19 -23 30.5t-65 28.5q-64 26 -121.5 56.5t-100 72.5t-67.5 99q-28 62 -28 139q0 56 24 103q26 49 69 88.5t98 69t114 49.5t116.5 30t104.5 10q33 0 83 -2t106.5 -9.5t113 -21.5t102 -37.5t74 -58.5 t29.5 -84q0 -44 -20 -76t-47 -53.5t-54.5 -33.5t-42.5 -17q-12 -4 -31.5 -19.5t-37.5 -35.5t-31.5 -40.5t-13.5 -33.5q2 -16 21 -24.5t42 -8.5q22 0 62 11.5t87 33.5t94.5 53t84.5 70q78 81 78 170z" />
<glyph unicode="F" horiz-adv-x="1135" d="M995 1352q0 9 -15.5 23.5t-37 28.5t-44.5 24.5t-38 11.5h-14q-27 0 -76 -3t-112 -9l-134 -12l-144 -13l-141 -13l-127 -12q-57 -6 -99 -9t-60 -3q-28 2 -56 7t-57 7q-6 0 -14 -5.5t-14.5 -13.5t-11.5 -17t-5 -15v-2q0 -15 15 -31t35 -28.5t40.5 -21t32.5 -9.5h21 q46 0 113.5 5.5t141.5 13.5l145 15q72 8 128 13q37 4 83 6l94 4q48 2 95 3.5t86 3t67 3.5t38 5q29 8 46 17.5t19 25.5zM1135 596q1 8 -12.5 22.5t-32.5 28.5t-39.5 24.5t-34.5 10.5q-40 0 -83 -3.5t-85 -6.5q2 84 8 164t12 148l10 120q5 53 5 84v19q0 8 -2 12q-3 8 -11 17 t-17.5 16t-20 11.5t-19.5 4.5q-41 0 -59 -75.5t-27 -238.5q-6 -106 -6 -219v-80q-61 -6 -125 -15l-127 -16q-64 -9 -127.5 -14.5t-124.5 -5.5q-10 0 -23 2l-25 4l-25 4q-12 2 -21 2q-5 0 -12 -5.5t-13.5 -13.5t-11 -17t-4.5 -19q0 -14 11 -29q12 -15 29 -28t35.5 -21.5 t30.5 -9.5h19q41 0 99.5 5.5t123.5 13.5l128 16q63 9 112 14q12 0 26 1t29 3q4 -99 10 -193t12.5 -171.5t12.5 -132t10 -74.5q3 -15 10 -22.5t15 -10.5t15 -3t9 -1q5 0 18.5 6.5t18.5 32.5q2 6 2 17v28q0 38 -1.5 96.5t-3.5 129.5t-3.5 150.5t-1.5 158.5q39 2 76.5 3.5 t68.5 3t53.5 3.5t30.5 4q26 8 42 17t16 28z" />
<glyph unicode="G" horiz-adv-x="1235" d="M1174 354q0 88 -3.5 169t-9.5 149q2 31 2 60v56q0 110 -10 195t-35 125q-9 17 -19 23t-18 6q-9 0 -13.5 -3t-4.5 -14q2 -6 8 -59.5t6 -138.5q0 -81 -11.5 -175.5t-37.5 -189.5t-67 -182.5t-100 -155.5t-137.5 -108.5t-178.5 -40.5q-63 0 -117 20.5t-98.5 55.5t-79 82.5 t-58 101.5t-35.5 112t-12 115q0 74 20.5 160t58 172t90 165.5t116.5 141t138 98.5t153 37q62 0 102.5 -33t40.5 -98q0 -24 -7 -46t-16.5 -40t-19.5 -31t-16 -20t-12.5 -22t-11.5 -33t-8 -36t-3 -32q0 -15 6 -25t23 -10q9 0 18 2.5t19 7.5q33 18 64 56t55 84.5t38.5 94.5 t14.5 85q0 54 -19.5 92t-52.5 61t-77.5 33.5t-94.5 10.5q-103 0 -198 -40t-176 -107.5t-147.5 -157.5t-113.5 -190t-72.5 -204t-25.5 -201q0 -114 36 -219t103.5 -186t163.5 -129.5t215 -48.5q78 0 150.5 23t135 63.5t114.5 96.5t89 122q-5 -72 -12 -145t-13 -143t-10 -134 t-4 -119q0 -37 2 -69t9 -58q3 -17 19.5 -28t33.5 -11q4 0 11 2.5t15 8t15 12.5t10 16q7 19 14.5 61t14 100.5t12.5 130t10 150.5t6.5 162t2.5 164z" />
<glyph unicode="H" horiz-adv-x="1341" d="M1343 604q0 8 -12.5 20t-31.5 24t-42 22.5t-43 15.5q4 38 7 80l6 86q9 106 16.5 212t7.5 196v10q0 16 -1 45.5t-5 58.5t-12 50.5t-23 21.5q-7 0 -18.5 -14t-23.5 -35t-23.5 -45t-18.5 -45q-7 -18 -13 -70.5t-11 -133t-8.5 -186t-6.5 -229.5q-48 -3 -110 -8l-132 -11 q-70 -6 -144 -13l-147 -14l-139 -12l-122 -9q2 48 2 91v85q0 120 -8.5 239.5t-36.5 237.5l-8 38q-5 23 -14 45.5t-23 39t-35 16.5q-7 0 -19 -1.5t-23.5 -5.5t-20.5 -10.5t-11 -15.5q0 -3 2.5 -25t5.5 -52l15 -127q9 -75 17 -166t14.5 -193t7.5 -205q-6 -2 -10 -2h-9 q-32 0 -63 6.5t-62 6.5q-7 0 -16.5 -5.5t-18 -13.5t-14.5 -17t-6 -16q0 -16 17.5 -32t40.5 -29t47.5 -21t37.5 -8h30q14 0 28 2q2 -88 3 -174.5t3.5 -157t6 -118t9.5 -58.5q3 -12 14.5 -16t14.5 -4q5 0 12 2t14.5 6t14 11t8.5 16q5 22 10 71.5t8.5 117t7 147.5t5.5 163 l113 11l118 10l111 11l98 9q37 3 81 6t90.5 5.5t93 4.5t89.5 3q-2 -40 -2 -81v-79q0 -64 1 -124t2.5 -110.5t4 -90.5t5.5 -66q3 -23 19 -34t26 -13q2 0 10.5 6t13.5 20q4 12 8.5 45t8.5 80l7 105q4 57 7.5 117.5t6.5 120t5 110.5q45 3 58 6q34 8 54.5 17t22.5 26z" />
<glyph unicode="I" horiz-adv-x="938" d="M938 94q0 16 -20 34.5t-46.5 34t-53 26t-40.5 10.5q-60 0 -120 -10l-119 -21q-1 75 -6 149.5t-10.5 148.5t-10 148.5t-4.5 149.5q0 136 11.5 269t21.5 267q16 2 51.5 3.5t79.5 4.5t91 8t86 14t64 22.5t25 33.5q0 15 -19.5 33.5t-45.5 34.5t-52.5 26.5t-40.5 10.5 q-81 0 -161 -15t-158.5 -33t-157 -33t-156.5 -15q-24 0 -46.5 7t-47.5 7q-8 0 -17.5 -7.5t-17.5 -18t-13 -21.5t-5 -19q0 -18 12.5 -36.5t30.5 -33.5t39 -24.5t39 -9.5q41 0 81 5t80 12l78 16q40 8 80 14q-31 -211 -38 -423t-7 -427q0 -74 3.5 -146.5t23.5 -144.5 q-68 -12 -135.5 -27.5t-136.5 -15.5q-25 0 -48.5 7.5t-48.5 7.5q-8 0 -17.5 -7.5t-17.5 -18t-13 -21.5t-5 -19q0 -18 12.5 -36.5t30.5 -33.5t38.5 -24.5t37.5 -9.5q51 0 101.5 7t99.5 16l100 20q49 10 100 16q43 5 86.5 6.5t86.5 4t86 7.5t85 17l22 7q13 4 24.5 10t19.5 15 t8 21z" />
<glyph unicode="J" horiz-adv-x="1239" d="M1198 651q0 98 -20.5 196.5t-60 189t-98 169t-134 136.5t-168 91t-199.5 33q-77 0 -138.5 -26.5t-105 -74t-67 -112t-23.5 -139.5q0 -96 37.5 -184.5t100 -169t144 -150.5t170 -129.5t177.5 -106t166 -79.5q-67 -111 -151.5 -198t-185 -148t-217 -93t-247.5 -32 q-23 0 -51.5 4.5t-54 16.5t-43 31.5t-17.5 49.5q0 47 30.5 89t79 78.5t109 65.5t121 50t115 32t90.5 11h21q11 1 35.5 7t49.5 16t44.5 22.5t19.5 26.5q0 16 -22 27t-50.5 17.5t-56 9.5t-37.5 3q-57 0 -129 -15.5t-147 -44.5t-146.5 -70t-127.5 -91t-90 -108.5t-34 -123.5 q0 -51 30 -87.5t74.5 -60t95 -34t91.5 -10.5q132 0 258.5 28t240 82t209 132.5t165 180.5t108.5 225.5t39 266.5zM1067 614q0 -58 -9 -118.5t-34 -114.5q-70 32 -150 79t-159.5 105.5t-152.5 127.5t-129.5 145.5t-90 159t-33.5 167.5q0 43 13 83t37.5 70.5t61 49t83.5 18.5 q81 0 154.5 -37t136 -98t113 -141t86 -165.5t54.5 -171.5t19 -159z" />
<glyph unicode="K" horiz-adv-x="1174" d="M1268 1372q0 14 -13 24.5t-30.5 18t-35.5 11.5t-28 4q-15 0 -25.5 -4.5t-19 -11.5t-15 -16.5t-14.5 -19.5q-162 -195 -337 -374l-359 -351l-64 -61q-32 -31 -67 -57q0 -4 -1 -7t-1 -6q0 -6 2.5 -12t5.5 -12l112 -83l111 -85l73 -56l104 -83l118 -91q62 -47 118.5 -85 t103 -62.5t71.5 -24.5q15 0 28 9t22.5 22.5t14.5 28.5t5 28q0 12 -29 36.5t-77 57t-111 70.5l-129 78l-133 78l-122 73q-56 34 -97 61.5t-56 43.5l75 62l116 100l142 126l153 140l146 138l124 127t86.5 101.5t32.5 63.5zM236 938q0 19 -2 59.5t-6.5 91.5t-11.5 106 t-17.5 101.5t-25 78.5t-32.5 38h-16q-7 0 -19.5 -1.5t-24.5 -5.5t-21 -9.5t-9 -14.5q0 -20 2 -38l4 -39q14 -156 23.5 -312t9.5 -315q0 -124 -3 -247.5t-3 -248.5v-42q0 -32 1 -66.5t2.5 -63.5t4.5 -35q5 -8 13.5 -14t17.5 -6q15 0 29 8.5t22 24.5q6 13 12 55.5t11.5 104.5 t10.5 138.5t9.5 156.5t8 158.5t5.5 145.5l3 117q2 51 2 74z" />
<glyph unicode="L" horiz-adv-x="1036" d="M1087 68q0 12 -16 26.5t-38 27.5t-43.5 21.5t-33.5 8.5q-93 0 -185 -9t-184.5 -21t-184 -25.5t-183.5 -22.5q14 114 21 228l16 228q6 104 11 206t5 204q0 85 -5.5 167.5t-22.5 164.5q-2 13 -7 35t-13 44t-18.5 40t-23.5 22h-18q-9 0 -22.5 -1t-26 -5t-22 -11.5 t-9.5 -19.5q0 -17 1 -35t3 -36q16 -158 23.5 -314.5t7.5 -314.5q0 -113 -2 -224.5t-2 -224.5v-79q0 -40 2 -80q-25 2 -48 5t-46 3q-6 0 -13.5 -6t-14 -14t-11 -17t-4.5 -14q0 -17 14.5 -33t34.5 -28t41.5 -19.5t35.5 -7.5q62 0 123.5 5.5t123.5 13.5l124 18q62 9 123 16 q69 8 139 11.5t140 6.5q9 1 28 1t42 2t47.5 5.5t44.5 10t33 16.5t13 25z" />
<glyph unicode="M" horiz-adv-x="2189" d="M2292 47q0 9 -5.5 14.5t-13 8.5t-15.5 4.5t-13 1.5q-23 0 -47.5 -5t-48 -11.5t-44.5 -11.5t-37 -5q-8 0 -18.5 3t-20 8.5t-16 14t-6.5 19.5q0 14 4.5 42.5t10.5 59.5l13 62q6 29 9 45q20 109 34.5 219t14.5 221q0 49 -3.5 120t-14 149t-30.5 155.5t-52 139t-79 99.5 t-112 38q-76 0 -139 -41.5t-114.5 -111.5t-92.5 -163t-74.5 -196t-59.5 -210l-48 -204l-40 -181q-17 -83 -34 -138l33 245q16 121 16 246q0 51 -4.5 127.5t-16 161t-32.5 169t-54 152.5t-79.5 110t-110.5 42q-75 0 -135 -35.5t-108 -97t-85 -143.5t-66 -175.5t-52 -193 t-42 -195.5l-34 -183q-16 -87 -32 -156t-34 -114.5t-40 -58.5q-4 84 -14 177.5t-24.5 188t-33.5 186.5t-41 173q-6 20 -18 54t-29 74t-37 80.5t-41.5 73.5t-43.5 54t-42 21q-9 0 -26.5 -4.5t-34 -12t-29 -17.5t-12.5 -22v-2q0 -12 8 -32.5t18 -43.5l22 -42q10 -21 15 -33 q69 -169 123.5 -338t91.5 -348q3 -12 8 -35l8 -50l9.5 -47t7.5 -30q5 -12 17.5 -35t29 -46t33.5 -40.5t30 -17.5q10 0 25.5 5.5t31.5 14t30.5 17.5t21.5 16q13 13 27 57t29 111t32 151l36 177l42 189q21 95 45.5 185t52.5 169.5t59.5 138.5t67.5 93.5t76 34.5 q35 0 61.5 -31.5t47.5 -84t35.5 -121.5t25 -144t16.5 -151.5t9.5 -144.5t4.5 -122t1 -85q0 -84 -2 -166.5t-2 -167.5q0 -18 1.5 -40.5t8 -42.5t20 -34t37.5 -14q37 0 62.5 25.5t38.5 56.5q16 39 34 114l41 172l47 206q26 110 55.5 219t63 209.5t71.5 177.5t80.5 123t90.5 46 q32 0 57 -27t44.5 -72.5t33.5 -104.5t24 -123.5t16 -130t9.5 -123.5t4.5 -103.5t1 -70.5q0 -121 -7 -240t-7 -240q0 -71 40.5 -112t115.5 -41q21 0 43.5 4t44.5 10q8 2 29 11t43 21t39.5 25.5t17.5 24.5z" />
<glyph unicode="N" horiz-adv-x="1323" d="M1405 6q0 9 -6 15t-14.5 9.5t-18 5t-16.5 1.5q-45 0 -88 -9.5t-86 -9.5q-10 0 -21.5 3t-21 9t-15.5 15t-6 21q0 5 8 32l18 58l20 62q9 28 11 36q26 87 47 171.5t35.5 169t22.5 170.5t8 177q0 43 -2.5 95t-11 106t-25.5 105t-45 91t-69 64t-99 24q-75 0 -141.5 -36 t-124.5 -97.5t-108 -144t-94 -175t-82 -190.5l-70 -190l-60 -176q-27 -82 -51.5 -143.5t-45.5 -97.5t-40 -36q-15 0 -17.5 13t-2.5 24q0 46 4 92.5t9 93t9 93t4 94.5q0 103 -8.5 208t-36.5 206q-4 13 -13 38.5t-21.5 56t-28.5 62.5t-33 58t-35.5 42.5t-36.5 16.5 q-12 0 -30 -3t-35.5 -9.5t-30 -17t-12.5 -25.5q0 -3 8 -29l20 -57l21 -58q10 -28 12 -34q34 -116 56 -232.5t34 -236.5q4 -38 9 -97.5t12.5 -122t18 -118.5t24.5 -88q14 -31 36.5 -54.5t59.5 -23.5q46 0 77 26t52 64t35 81l26 77q17 44 41 113l54 150l65 174q35 90 73 177.5 t79.5 166.5t84 139.5t86 96t85.5 35.5q34 0 57.5 -25.5t39 -65.5t24 -89.5t12.5 -98t5 -90.5t1 -67q-2 -156 -17 -308t-38 -304l-11 -56l-10 -60t-8.5 -59t-3.5 -55q0 -32 15 -56.5t38.5 -40.5t53 -24t57.5 -8q21 0 40.5 1.5t39.5 6.5q8 2 31 9.5t48 17.5t44.5 22t19.5 23z " />
<glyph unicode="O" d="M1348 655q0 70 -10.5 136.5t-28 125t-39.5 106t-45 79.5q-48 69 -88 69q-8 0 -16.5 -2.5t-8.5 -13.5q0 -3 0.5 -5t3.5 -5q5 -6 24 -45t39 -102t36 -144t16 -170q0 -118 -37 -223.5t-107 -184.5t-169 -125.5t-224 -46.5q-114 0 -211.5 35.5t-168 102t-110.5 161t-40 211.5 q0 78 19 159.5t54.5 158.5t87 145.5t115.5 120t140.5 81.5t162.5 30q26 0 57.5 -6t58.5 -20t45 -36.5t18 -54.5q0 -25 -12 -48t-29 -46q-7 -11 -11 -32t-4 -44q0 -10 1 -23.5t4.5 -25.5t11.5 -20.5t22 -8.5q13 0 26 5.5t25 13.5q15 11 35.5 37.5t39 63t31.5 78.5t13 83v12 q0 53 -27.5 88.5t-69.5 57.5t-90.5 31t-90.5 9q-104 0 -201.5 -34.5t-182.5 -94t-155.5 -140t-121 -173t-78 -192.5t-27.5 -199q0 -136 49.5 -250.5t136 -197t202.5 -129t249 -46.5q143 0 267 54t216 147t144.5 218.5t52.5 268.5z" />
<glyph unicode="P" horiz-adv-x="1368" d="M1409 1004q0 89 -53.5 168t-150.5 138.5t-233.5 94.5t-303.5 35q-158 0 -285.5 -29t-217 -76t-137.5 -107t-48 -122q0 -54 26 -101t66.5 -86t88.5 -68.5t93 -49.5q-2 -19 -2 -36v-36q0 -76 3 -156.5t8 -158.5t11 -150t12 -130l12 -100q5 -42 9 -59q6 -21 21 -26.5 t24 -5.5q17 0 30.5 8t18.5 26v27q0 29 -3 78l-5 108q-3 61 -5.5 130.5t-2.5 138.5v43q0 21 2 43q2 54 4.5 106.5t7.5 102.5h11h12q18 0 34.5 8.5t16.5 19.5l-2 2q0 13 -19.5 37t-43.5 45q8 78 13 139.5t5 96.5q0 14 -0.5 23t-3.5 12q-1 5 -7.5 12t-15 13.5t-19 11t-20.5 4.5 h-2h-3q-36 0 -57 -55q-23 -57 -36 -179q-46 29 -77 74t-31 102q0 51 39 96t106 78.5t156.5 52.5t189.5 19q67 0 136 -9.5t134 -29.5t122.5 -50t100.5 -71t68.5 -93.5t26.5 -117.5v-5q0 -84 -31 -146q-32 -65 -85 -112t-121 -78t-139.5 -51.5t-139.5 -33.5t-121.5 -22 t-86 -17.5t-32.5 -21.5q0 -5 4.5 -8.5t11.5 -5t14.5 -2t14.5 -0.5q77 0 173 9t194.5 31.5t192 59.5t166.5 94t117 135.5t44 182.5z" />
<glyph unicode="Q" d="M1348 655q0 70 -10.5 136.5t-28 125t-39.5 106t-45 79.5q-48 69 -86 69q-10 0 -18.5 -3.5t-8.5 -14.5q0 -2 0.5 -4t3.5 -4q6 -6 25 -45t39 -102t35.5 -144t15.5 -170q0 -142 -51.5 -258.5t-159.5 -212.5l-14 -12q-2 9 -3.5 18t-3.5 19q-8 39 -32 81.5t-57.5 78 t-75.5 58.5t-86 23q-11 0 -24 -3.5t-24 -10.5t-18.5 -17t-7.5 -22q0 -17 7 -27.5t18.5 -18t25 -13t25.5 -11.5q20 -8 40 -18t37 -25.5t28.5 -38t14.5 -55.5q2 -22 2 -43t2 -43q-43 -14 -88 -21.5t-92 -7.5q-115 0 -212 36t-167 102.5t-109.5 160.5t-39.5 211q0 78 19 160 t54.5 159t87 145.5t115.5 119.5t140.5 81t162.5 30q26 0 57 -6t57.5 -20t44.5 -36.5t18 -54.5q0 -25 -12 -48t-29 -46q-7 -10 -11 -30t-4 -42q0 -11 1 -25t5 -26t12 -20.5t23 -8.5q11 0 24.5 4.5t24.5 12.5q16 11 36.5 37.5t39 63t31 78.5t12.5 83v12q0 53 -27.5 88.5 t-69 57.5t-90 31t-91.5 9q-103 0 -200 -34.5t-182.5 -94t-156 -140t-121 -173t-78.5 -192.5t-28 -199q0 -135 49.5 -249t135 -197t201.5 -130t249 -47q52 0 103.5 9t100.5 24q-2 -17 -2 -34v-32q0 -68 8 -134t23 -132q14 -60 30 -88.5t38 -28.5q14 0 27.5 5.5t24.5 15t18 22 t7 27.5q0 5 -0.5 13.5t-3.5 31.5q-14 82 -20 165t-6 167v65q83 54 145.5 114.5t104.5 132.5t63 157t21 188z" />
<glyph unicode="R" horiz-adv-x="1346" d="M1366 1010q0 110 -38 188.5t-103.5 129t-154 74.5t-189.5 25h-7q-73 0 -140 -21q-71 -23 -133 -63t-116.5 -93.5t-100 -114.5t-82.5 -127.5t-64 -130.5q-3 38 -7 78t-9.5 80t-11.5 79t-13 74q-17 83 -31.5 119.5t-24.5 40.5q-8 2 -19 4t-24 2q-9 0 -23 -3.5t-14 -17.5 q0 -5 3 -22t6 -43q4 -37 9 -88l11 -114q6 -63 12 -134t11 -146t8.5 -157t3.5 -168q0 -79 -3 -157t-3 -157v-63q0 -31 2 -72q2 -5 14.5 -9.5t27.5 -7.5t29.5 -5t20.5 -2q32 0 49 14q0 70 2.5 165t10.5 202.5t24 221.5t44 222t70.5 204t104 168t143 114t187.5 42 q86 0 150.5 -27t108 -75t65.5 -114t22 -144q0 -93 -36 -165.5t-96.5 -127t-139 -93t-163 -63.5t-169.5 -39t-158 -20l-2 -8q0 -5 2.5 -14.5t5.5 -12.5l44 -30l83 -60l103 -74l105 -75l89 -64l53 -39l41 -30l54 -40q30 -22 62.5 -43.5t63.5 -39t59 -28.5t48 -11q15 0 25 7 t17 18t10 24.5t3 26.5t-24.5 35t-62 48t-82.5 53l-86 50l-72 40l-41 21q-75 40 -141 79l-116 70l-81 52q-30 20 -33 23h8q78 0 167.5 15.5t178.5 46t170.5 77t144.5 109t100.5 140t37.5 171.5z" />
<glyph unicode="S" horiz-adv-x="1296" d="M1296 1151q0 64 -33.5 111t-88 81.5t-123 56.5t-137.5 35t-132 18t-108 5q-63 0 -140.5 -14t-157 -41t-154.5 -67t-133.5 -92.5t-94 -117.5t-35.5 -141q0 -64 22.5 -114t62.5 -88t94 -67t117 -51.5t133 -40.5l138 -34q98 -24 190.5 -49.5t164 -62t114.5 -89.5t43 -131 q0 -47 -23 -79.5t-57.5 -53.5t-75.5 -32.5t-76 -17t-58.5 -6.5t-24.5 -1q-122 0 -219 21t-171.5 51t-127.5 62l-88 54q-25 17 -38.5 27t-23.5 10q-11 0 -14.5 -8.5t-3.5 -18.5q0 -7 10.5 -24t30.5 -40.5t50.5 -51t70.5 -56.5q36 -24 86 -50t113.5 -47t140.5 -34.5t168 -13.5 q48 0 102.5 6.5t107.5 22t102.5 39.5t86.5 59.5t59.5 82.5t22.5 107q0 64 -22 112.5t-61 85.5t-92 64.5t-114.5 49t-129 38t-136.5 31.5l-100 23q-56 12 -113 29.5t-111.5 42t-97 58.5t-68.5 79.5t-26 105.5q0 61 24 113.5t64.5 95.5t93.5 76t111 56t117 34.5t112 11.5 q110 0 198 -15t149.5 -42.5t94.5 -67.5t33 -90t-20 -86t-47 -60t-54.5 -37.5t-42.5 -19.5q-13 -4 -33 -21.5t-38.5 -38.5t-31.5 -42t-13 -33q0 -17 19 -26t42 -9q20 0 57.5 11.5t82 33.5t91 54t84.5 73t62 90t24 105z" />
<glyph unicode="T" horiz-adv-x="1016" d="M985 1319q0 6 -2 8q0 3 -1 6t-3 8q0 7 2 9q0 13 -17 29.5t-40 31.5t-45 25t-33 10h-27q-106 0 -211.5 -12t-211 -26t-211 -26t-212.5 -12q-27 0 -53.5 7t-54.5 7q-7 0 -15.5 -6.5t-16 -15.5t-12.5 -19t-5 -18q0 -15 14.5 -32.5t34.5 -32t41 -24t35 -9.5h16 q128 0 254.5 17t253.5 30q93 9 185.5 11.5t185.5 8.5q-13 -38 -24 -93l-28 -132q-16 -82 -30 -181.5t-25.5 -203.5t-20.5 -207.5t-15.5 -193t-9.5 -159.5t-3 -108v-24q2 -23 13.5 -37t33.5 -14q17 0 29.5 10t17.5 24q6 22 14 89l19 165q25 226 57.5 444t81.5 441l28 130 q11 52 11 75z" />
<glyph unicode="U" horiz-adv-x="1458" d="M1427 59q0 8 -10 46.5t-25 102.5t-33 151.5t-34 193.5q-10 63 -16.5 133.5t-11.5 142.5t-11 142.5t-14 133t-19.5 114t-29.5 86.5q-17 34 -42 51.5t-53 17.5h-2h-2q-38 0 -70 -22.5t-46 -59.5q-18 -51 -28.5 -131.5t-19.5 -177.5l-20 -204q-10 -107 -27 -211.5 t-43.5 -199t-68 -166.5t-101.5 -114.5t-143 -42.5q-79 0 -135 43t-93 113t-58.5 158t-32.5 177.5t-14 172t-3 141.5t1 117t2 109.5t2 95.5t1 75v31q0 13 -2 22q-3 26 -17 47.5t-35 36.5t-48 23t-57 8q-10 0 -31.5 -4t-47 -10.5t-53 -16t-49.5 -21t-36.5 -23.5t-14.5 -25 q0 -8 5.5 -13t13 -8t15.5 -4.5t13 -1.5q22 0 46.5 5.5t49 12t48 12t45.5 5.5q10 0 21 -2.5t20.5 -7.5t15.5 -13t6 -20v-2q0 -10 -6 -43l-15 -82q-9 -49 -19 -110t-19 -127.5t-15 -135t-6 -131.5q0 -69 7.5 -148t26 -157t50.5 -150.5t80 -127.5t114 -88t154 -33q11 0 21.5 1 t21.5 1q100 9 175 51t129.5 108t91.5 151t61.5 179t38.5 191.5t22 190t13.5 174t13 142.5t19 97t32.5 37h2q8 1 12 -4.5t6 -14t2.5 -17.5t0.5 -15v-7q0 -57 -10.5 -166.5t-10.5 -267.5q0 -136 15 -303q6 -53 17 -108t25.5 -107t31.5 -98.5t35 -81t35 -54.5t32 -20q17 0 36 4 t35 11t26.5 17t10.5 23z" />
<glyph unicode="V" horiz-adv-x="1163" d="M1204 1391q0 14 -11 21t-24 7q-11 0 -24 -3.5t-23 -14.5q-29 -38 -65 -98t-76 -135l-83 -159l-84 -175l-81 -178l-73 -174q-33 -83 -59.5 -156t-41.5 -129q-72 211 -159 417l-181 410l-55 120l-50 107l-44 87q-20 39 -35 63q-11 18 -27.5 25.5t-27.5 7.5t-16 -10t-5 -19 q0 -25 15 -72t40 -111l58 -143l70 -168l73 -187q37 -97 70 -198q5 -14 15.5 -46.5l25.5 -75.5l35 -93l39 -100l42.5 -97t42.5 -82.5t40 -57t34 -21.5q11 0 20.5 -2t18.5 -2h9q4 0 7 2q10 2 15 5.5t8 8.5q3 3 10.5 25t18.5 51l45 135l62 176l77 201q41 105 88 209l60 134 l61 136l56 126l46 109q20 48 31.5 80t11.5 42v2z" />
<glyph unicode="W" horiz-adv-x="1810" d="M1780 1354q0 47 -29 47q-9 0 -22.5 -4.5t-26.5 -12.5t-22 -19.5t-11 -25.5q-3 -35 -8.5 -109t-14 -170.5t-20.5 -208t-28 -223t-37 -214t-48.5 -181.5t-60.5 -126.5t-74 -47.5q-46 0 -84 47.5t-69 126.5t-55 182t-43 213.5t-33.5 220.5t-25.5 204l-18 163q-9 70 -16 99 q-3 25 -12 45q-8 17 -21 31t-36 14q-38 0 -62.5 -23.5t-32.5 -58.5q-9 -38 -18.5 -113t-20.5 -171.5t-25 -208t-32 -222t-41 -212t-52.5 -180t-66 -125t-82.5 -46.5q-35 0 -65 31.5t-54.5 80.5t-44.5 109.5t-34.5 118t-24.5 105.5t-16 73q-14 63 -24 137.5t-18 151.5 t-13 152l-10 136l-9 108t-8 65q-6 26 -21.5 47t-38 36t-49 23t-55.5 8q-10 0 -29.5 -3.5t-43 -10.5t-48 -16t-44.5 -20t-33 -23t-13 -25v-2q3 -9 15.5 -18t33.5 -9q23 0 45.5 6l44.5 12l43 13q22 6 43 6q10 0 21.5 -3.5t21.5 -10t16.5 -16t6.5 -21.5q0 -15 -3.5 -57 t-8 -101.5t-8 -131t-3.5 -146.5q0 -46 4 -109.5t13 -135.5t24 -149t36.5 -150t50 -138t65.5 -114.5t82.5 -78t101.5 -28.5q78 0 137 43t102.5 115.5t74.5 168t52.5 200.5t35 213t23.5 206t17.5 178.5t16.5 130.5q0 -48 -2 -108t-2 -131q0 -46 4.5 -114t14.5 -148 t25.5 -166.5t38.5 -170t52.5 -158.5t68 -131.5t85.5 -90t104 -33.5q72 0 128 48.5t99 130.5t74.5 189t54 224t37.5 236t25 225t17 190.5t14 132.5q2 8 2 15v12z" />
<glyph unicode="X" horiz-adv-x="1032" d="M1073 -18q0 12 -6 24q-12 26 -27.5 51.5t-33.5 50.5l-36 49l-36 48l-162 223l-162 219l105 142l102 144q50 73 96 148t86 154l17 33q10 20 19 41.5t15.5 42t6.5 34.5q0 13 -7.5 21t-19 12.5t-24 6t-21.5 1.5q-14 0 -23.5 -3.5t-17.5 -12.5q-15 -15 -27.5 -38t-23.5 -40 l-180 -287l-189 -280l-40 58l-63 90l-79 112l-86 118l-87 114q-43 55 -80.5 97.5t-66.5 67.5t-45 25q-11 0 -14.5 -7t-3.5 -18q0 -15 5 -36t12 -43t15 -42.5t15 -35.5q28 -59 68 -112l78 -105l146 -199l148 -195l-39 -53l-62 -84l-77 -104l-82 -112l-79 -110l-67 -98 q-30 -43 -47.5 -72.5t-17.5 -37.5q0 -19 10 -28t27 -9t28.5 4.5t25.5 15.5q34 28 64 65l60 70q90 109 172 220l168 223l74 -95l74 -94l70 -90l77 -102l81 -96q40 -47 77 -80q16 -14 31 -23.5t37 -9.5t22 27z" />
<glyph unicode="Y" horiz-adv-x="1247" d="M1227 1190q0 29 -1.5 66.5t-12 71t-33 56.5t-64.5 23q-37 0 -67.5 -19.5t-49.5 -50.5q-22 -36 -38 -94t-29 -131.5t-24 -157.5l-23 -174q-12 -89 -25.5 -178t-32 -170.5t-43 -152t-57 -122.5t-75 -82t-97.5 -30q-83 0 -140.5 43.5t-94.5 114t-57 159t-29.5 178t-11 171.5 t-1.5 139q0 99 3 197t3 198q0 80 -37.5 125t-121.5 45q-25 0 -49.5 -4t-47.5 -12q-10 -3 -32 -12.5t-45 -22t-40.5 -25.5t-17.5 -24q0 -8 5.5 -13t13.5 -8t16.5 -4.5t13.5 -1.5q25 0 48.5 5.5t47 12t46.5 12t47 5.5q9 0 20 -2.5t20.5 -8t16 -13.5t6.5 -19q0 -24 -4 -50 t-9 -52l-12 -52q-6 -26 -10 -49q-20 -106 -33.5 -213.5t-13.5 -216.5q0 -74 7 -154.5t24.5 -158t49 -148t81 -123.5t118.5 -84.5t163 -31.5t164.5 38.5t122.5 105t87 154.5t59 186.5t39 202.5t26 202l19 184q9 86 21 149q3 14 8.5 36t14.5 43t22 36.5t31 15.5q5 0 7 -5.5 t3.5 -12.5t1.5 -14v-11q0 -106 -19 -212l-38 -209q-18 -111 -38 -222t-36 -223t-26.5 -224.5t-10.5 -225.5q0 -21 2 -58t6 -82t11.5 -92.5t19 -88.5t27 -70t35.5 -37h18q11 0 28 2t32.5 7t27 14t11.5 24q0 46 -6 91t-9 91q-6 74 -8 149t-2 150q0 144 12 287.5t27 287t27 287 t12 287.5z" />
<glyph unicode="Z" horiz-adv-x="1083" d="M1124 1010q0 76 -28 137t-75.5 108.5t-110 82t-131 57t-138.5 33t-133 10.5q-54 0 -121.5 -7.5t-137.5 -25t-137 -45.5t-119 -69t-84 -96t-32 -126q0 -54 23 -99t61 -83q30 -29 66.5 -52t72 -38.5t67 -24t52.5 -8.5q8 0 19 2t21 6.5t17.5 11.5t8.5 17q0 14 -12 33t-29 37 t-35.5 32t-30.5 17l-38 15q-24 10 -48 29.5t-41.5 49.5t-17.5 73q0 56 24 97.5t63 71t89.5 49t103.5 31t104 16t91 4.5q51 0 105 -10.5t105 -31.5t97 -51.5t80 -70.5t53 -90q19 -47 19 -101v-6q-1 -108 -38 -193t-98.5 -154t-140.5 -124.5t-164 -103.5q-49 -29 -71.5 -46 t-24.5 -32q0 -23 23 -46t57 -52l54 -47q27 -25 49.5 -54.5t37.5 -64t15 -76.5q0 -53 -9 -105t-20 -103.5t-20 -104t-9 -105.5q0 -13 1.5 -40t5.5 -60t10.5 -67.5t18 -63t27.5 -46.5t38 -18q14 0 29.5 3.5t29 10t23.5 16.5t12 22q0 5 -1 14t-3 24l-5 85q-3 51 -3 110 q0 48 5 96t11 95.5t11 95.5t5 96q0 59 -18.5 121t-52 116.5t-81 96.5t-106.5 61q65 32 131.5 70.5t129 84.5t116.5 100t94.5 116.5t64 134t23.5 152.5z" />
<glyph unicode="[" horiz-adv-x="682" d="M623 1372q0 10 -9.5 28.5t-23 36.5t-27.5 32.5t-24 15.5q-7 2 -13 2h-12q-32 0 -78.5 -7.5l-93.5 -15.5l-90 -16q-42 -8 -66 -8q-10 0 -18 3t-15 7t-14.5 7t-15.5 3q-4 0 -9 -6t-10 -14.5t-8.5 -19t-3.5 -19.5q0 -19 5.5 -36t15.5 -34q-14 -82 -24 -182.5t-16 -207 t-9 -213.5t-3 -202q0 -66 1.5 -124t3.5 -104t5 -78t7 -46l8 -28q4 -17 10 -37q-8 -8 -15 -25t-7 -31q0 -10 4.5 -28.5t12.5 -36.5t19 -32.5t23 -16.5q9 -2 17.5 -3.5t17.5 -1.5q21 0 43 4l46 10q24 5 50.5 10t57.5 7q58 3 102 3h22h14q41 0 56 5q20 7 32.5 17t12.5 33 q0 10 -9.5 28t-23 36t-28.5 32t-25 16q-6 2 -12 2h-14q-27 0 -65 -5.5t-79 -13.5l-79 -16l-68 -12q2 17 3 34.5t1 37.5q0 56 -5 126l-11 148q-6 77 -11 158q-4 68 -4 134v26v34q0 172 12.5 296.5t18.5 199.5q20 2 40 6t41.5 9.5t46 10t52.5 5.5q62 3 109 3h15q4 -1 8 -1 q45 0 63 6t30.5 16.5t12.5 32.5z" />
<glyph unicode="\" horiz-adv-x="662" d="M631 -14q0 -17 -11 -32t-28 -15q-8 0 -18 5t-21 23q-7 13 -19 49l-30 90l-40 120l-46 141l-50 152l-53 153q-30 86 -63 168l-64 158l-60 139l-50 115q-21 51 -33.5 85t-13.5 47v2v3q0 9 3.5 22.5t10.5 26t16 21.5t21 9q34 0 77.5 -78.5t110.5 -242.5q38 -93 78 -207 l78 -233l74 -235l61 -212l45 -165q18 -69 23 -95q0 -5 1 -8t1 -6z" />
<glyph unicode="]" horiz-adv-x="682" d="M623 526q0 95 -3 202t-9.5 213.5t-16.5 207t-25 182.5q23 35 23 70q0 9 -3.5 19.5t-8.5 19t-10 14.5t-9 6q-8 0 -15.5 -3t-14.5 -7t-15 -7t-18 -3q-24 0 -66 8l-90 16l-94 16q-46 7 -78 7h-14q-6 0 -11 -2q-10 -1 -24 -15.5t-27.5 -32.5t-23 -36.5t-9.5 -28.5 q0 -22 11.5 -32.5t29.5 -16.5t65 -6q3 0 7 1h16q47 0 109 -3q28 -1 52 -5.5t46 -10t42 -9.5t40 -6q5 -75 17 -199.5t14 -296.5v-34q0 -78 -5 -159.5t-11 -158.5l-10 -148q-5 -70 -5 -126q0 -20 1 -37.5t3 -34.5l-69 12l-80 16q-40 8 -77 13.5t-64 5.5h-15q-7 0 -12 -2 q-11 -2 -25.5 -16t-28 -32t-23 -36t-9.5 -28q0 -23 12 -33t31 -17q16 -5 52 -5h19q12 1 25 1q43 0 98 -4q32 -2 58.5 -7t50.5 -10l46 -10q22 -4 44 -4q8 0 17 1.5t18 3.5q12 2 23 16.5t19 32.5t12.5 36.5t4.5 28.5q0 14 -7.5 31t-16.5 25q8 20 12 37t6 28q4 14 7.5 46t6 78 t4 104t1.5 124z" />
<glyph unicode="^" horiz-adv-x="793" d="M733 885q0 3 -1 5.5t-1 4.5q-15 34 -34 88t-43 116t-52.5 124.5t-62 113t-72 82t-82.5 31.5q-20 0 -47 -27.5t-55.5 -70.5t-57.5 -94.5t-53 -100.5l-44 -88l-26 -57q-1 -5 -8 -20.5t-14 -33.5l-13 -32q-6 -15 -6 -19q0 -10 4.5 -24.5t12 -28t18.5 -23.5t23 -10 q14 0 33 35t41 88l45 114q24 62 47 115t44.5 88t39.5 35q13 0 31.5 -29.5t39.5 -75l44 -99.5l42 -106l36 -90q17 -39 26 -54q9 -16 19.5 -24.5t29.5 -8.5q13 0 29.5 6.5t31.5 17.5t25 24.5t10 27.5z" />
<glyph unicode="_" horiz-adv-x="1882" d="M1944 30q-18 -11 -47 -17t-64 -7q-26 -2 -51 -2h-16q-33 1 -60 2.5t-39 1.5l-329 6q-36 1 -71 1q-130 0 -261 -9q-244 -17 -487 -26q-112 -3 -224 -3q-132 0 -264 5q-19 1 -39.5 10.5t-37 24.5t-26.5 35q-10 17 -10 36v4q0 6 5 16.5t12 20.5t15.5 17t16.5 6 q22 0 43.5 -7.5t42.5 -9.5q141 -5 281 -5l121 1q201 3 401.5 10t401 15t401.5 12q42 2 81 3h27q27 0 54 -1q14 -1 38.5 -12t48 -27.5t40.5 -35.5q16 -18 16 -32q0 -20 -20 -33z" />
<glyph unicode="`" horiz-adv-x="1376" d="M852 1188q0 -14 -13.5 -26.5t-27.5 -12.5q-8 0 -31.5 11t-53.5 28l-64 39q-34 21 -63 41.5t-49 38t-24 26.5q-2 5 -2 9v8q0 10 6.5 24.5t16.5 28t22 23.5t23 10t34.5 -16t52 -40.5t59.5 -54t56 -57t41.5 -49.5t16.5 -31z" />
<glyph unicode="a" horiz-adv-x="803" d="M915 207q0 5 -2 14t-6.5 17t-10 14t-13.5 6q-6 0 -10 -4.5t-7.5 -10t-5.5 -11.5t-4 -9q-12 -30 -25.5 -52.5t-31.5 -38t-42 -23t-57 -7.5q-38 0 -64.5 21t-41.5 55q17 34 30 75t13 79q0 16 -1.5 40.5t-8 47t-19 39t-35.5 16.5q-29 0 -45 -17t-23.5 -42t-9 -52.5 t-1.5 -48.5q0 -32 3 -64t11 -63q-34 -43 -81.5 -74.5t-104.5 -31.5q-31 0 -59.5 10.5t-50 30t-34 46.5t-12.5 60q0 62 24.5 108.5t64 79.5t91 54t105.5 31l18 2q11 2 21.5 6t18 10.5t7.5 16.5q0 11 -5 17t-13 9.5t-17.5 4.5t-17.5 1q-48 0 -99 -10.5t-99 -31t-90.5 -50.5 t-74.5 -68.5t-50.5 -85t-18.5 -100.5q0 -56 17.5 -102.5t50 -80.5t78.5 -52.5t102 -18.5q80 0 147 34.5t117 96.5l33 -42q17 -20 36 -35t42.5 -24t54.5 -9q40 0 77 19t65.5 50t46 70t17.5 78z" />
<glyph unicode="b" horiz-adv-x="737" d="M707 270q0 67 -25.5 119.5t-69 88.5t-101 54.5t-120.5 18.5q-10 0 -22 -1.5t-22.5 -6t-17.5 -13t-7 -22.5q0 -6 6.5 -11t15 -9t17 -6.5t12.5 -4.5q42 -15 78 -33.5t62 -44.5t41 -62t15 -85q0 -79 -46.5 -125.5t-125.5 -46.5q-43 0 -78.5 14.5t-65.5 39t-54.5 56.5 t-44.5 66q45 85 82 196t64 230t41.5 236.5t14.5 216.5q0 28 -2 68t-8 84t-17.5 87.5t-31.5 78t-49 56t-70 21.5q-66 0 -112.5 -37t-77.5 -96t-49 -133.5t-27 -148.5t-11.5 -141t-2.5 -112q0 -51 6.5 -116t20 -137t34.5 -147.5t50.5 -146.5t67.5 -133.5t86 -109.5t105.5 -74 t126.5 -27q65 0 121.5 22t99 61.5t67 94.5t24.5 121zM229 1169q0 -96 -8.5 -200t-24.5 -208.5t-39.5 -206.5t-52.5 -194q-43 122 -61 247t-18 253q0 31 3 86t9.5 119.5t17.5 131t26.5 121.5t36 91t46.5 39h2h2q14 0 24 -17q10 -18 17 -46t11 -62t6 -65t2.5 -55.5t0.5 -33.5z " />
<glyph unicode="c" horiz-adv-x="645" d="M758 297q0 15 -9.5 23t-23.5 8h-5q-3 0 -5 -2q-11 -4 -23 -24l-31 -48q-18 -29 -43 -61t-62 -58.5t-87.5 -44.5t-118.5 -18q-37 0 -74.5 12t-66.5 35t-47.5 55.5t-18.5 73.5q0 51 18 93.5t50 73.5t75 48.5t93 17.5q7 0 15.5 -1.5t16.5 -4.5t13.5 -9t5.5 -15 q0 -17 -5 -32.5t-11 -28.5l-12 -24q-5 -11 -5 -18q0 -12 13 -19t24 -7q17 0 35 16.5t32.5 39t24 46t9.5 37.5q0 34 -12 55.5t-32.5 34t-47.5 17.5t-56 5q-70 0 -134 -30t-113.5 -79.5t-79 -114t-29.5 -132.5q0 -63 24 -112t64.5 -82t94 -50.5t112.5 -17.5q108 0 195.5 47.5 t152.5 130.5q10 12 24 33.5t27.5 45t23 46.5t9.5 39z" />
<glyph unicode="d" horiz-adv-x="946" d="M1059 201q0 5 -2 14t-5.5 17t-9 14t-12.5 6q-10 0 -15.5 -13.5t-8.5 -21.5q-13 -33 -28 -58t-35 -42.5t-47 -26t-65 -8.5q-29 0 -52 16t-41 40t-30.5 51.5t-21.5 50.5q53 75 89.5 170.5t59.5 199t33.5 207.5t10.5 195q0 38 -1 93t-7.5 116t-20 121.5t-38.5 108.5 t-63.5 78t-93.5 30q-48 0 -82 -33t-57 -85.5t-36 -117.5t-20 -129t-9 -119.5t-2 -89.5q0 -89 7 -184.5t22 -191.5t37.5 -188.5t53.5 -176.5q-20 -31 -45 -61t-55.5 -52.5t-66 -36.5t-76.5 -14q-37 0 -67.5 13t-52.5 35.5t-34 53t-12 66.5q0 56 15.5 95t44 66t69 44t90.5 28 q5 1 14 2.5t19 4.5t17 8t7 12q0 14 -7 22.5t-17 13t-22 6t-23 1.5q-68 0 -129 -21.5t-107 -61.5t-73 -97.5t-27 -128.5q0 -63 22 -113t61 -85.5t91.5 -54t113.5 -18.5q45 0 87 14t80.5 37.5t71.5 54t60 64.5q17 -31 38.5 -61.5t49.5 -54.5t61.5 -39t72.5 -15q42 0 81.5 20.5 t70 53t49 73.5t18.5 83zM752 1028q0 -165 -23 -328.5t-86 -316.5q-35 137 -49 281t-14 286q0 19 0.5 65.5t3 105t8 121.5t15 115t24 86t35.5 34q17 0 30 -29t22.5 -73.5t16 -98t10.5 -103.5t5.5 -89.5t1.5 -55.5z" />
<glyph unicode="e" horiz-adv-x="643" d="M756 299q0 12 -10 19.5t-21 7.5q-14 0 -27.5 -19t-31.5 -47.5t-42.5 -61.5t-61.5 -61.5t-88.5 -47.5t-123.5 -19q-42 0 -79.5 11t-66 33t-45 55.5t-16.5 78.5q0 40 11.5 81.5t34 75.5t56.5 56t79 22q21 0 38.5 -8.5t30 -22.5t20 -32.5t7.5 -38.5q0 -37 -16 -62.5 t-41 -43.5t-55 -31l-58 -23q-16 -6 -22.5 -12t-6.5 -25q0 -28 31 -28q46 0 98 17.5t95.5 49t72.5 75t29 95.5q0 42 -17.5 75.5t-46.5 57t-66 36.5t-75 13q-68 0 -125 -32t-98.5 -83t-64.5 -115t-23 -128q0 -62 24 -110t64.5 -81t93.5 -50t111 -17q106 0 194.5 46.5 t153.5 129.5q11 13 25 34.5t27.5 44.5t22.5 46t9 39z" />
<glyph unicode="f" horiz-adv-x="506" d="M537 453q0 20 -17.5 36t-42 27t-50.5 17t-42 6q-43 0 -86 -6t-86 -9q37 46 74.5 107t72 130.5t65 144t53 148.5t35.5 143t13 128q0 48 -11 90t-34 73.5t-60 49.5t-89 18q-30 0 -59.5 -11t-56.5 -28.5t-51 -39.5t-42 -43q-35 -42 -59.5 -91t-40 -101t-22.5 -106t-7 -108 q0 -64 7.5 -126.5t20 -124.5t28.5 -123l30 -124q-13 2 -26 2h-27q-29 0 -43.5 -13t-14.5 -44q0 -14 12.5 -28t30.5 -25.5t37 -19t31 -7.5q8 0 15.5 1t15.5 3q65 -293 65 -594q0 -72 -11 -142t-36 -136l-5 -15q-3 -10 -3 -16q0 -21 16 -36t39 -15q26 0 46 20t32 41 q16 26 26 61.5t15.5 73.5t7.5 75.5t2 68.5q0 164 -21 323.5t-59 317.5q13 2 23 2h22q27 0 52 -6t49.5 -13.5t48 -13.5t47.5 -6q37 0 53.5 12t16.5 52zM406 1313q0 -80 -20.5 -172.5t-53 -185t-73.5 -178.5t-83 -154q-31 118 -49 237.5t-18 241.5q0 29 5.5 64.5t17 72.5 t28.5 72t40.5 62.5t52.5 44t64 16.5q26 0 43.5 -11t27.5 -28t14 -39t4 -43z" />
<glyph unicode="g" horiz-adv-x="758" d="M758 375q0 22 -23 22q-4 0 -15.5 -13t-24.5 -30l-25 -31l-15 -20q-20 51 -46 94.5t-61 75t-81 49t-105 17.5q-65 0 -125 -23t-105.5 -64t-73 -98t-27.5 -125q0 -49 13.5 -95t41 -81t68 -56.5t94.5 -21.5q47 0 83.5 15t63.5 42t45 63.5t29 78.5q3 8 3.5 14.5t0.5 12.5 q0 9 -4.5 22t-15.5 13q-8 0 -12.5 -12t-4.5 -15q-11 -28 -25 -52t-32.5 -41t-44 -26.5t-60.5 -9.5q-32 0 -54.5 16.5t-36.5 41.5t-20.5 55t-6.5 57q0 41 13.5 80.5t38 70.5t60 49.5t80.5 18.5q55 0 93 -27.5t63 -69.5t38.5 -91.5t18.5 -94.5q-70 -86 -128 -188.5 t-100 -213.5t-65.5 -226.5t-23.5 -227.5q0 -39 6.5 -84.5t24.5 -84.5t50 -65t83 -26q48 0 87.5 27t70 73t54 107t40.5 128.5t28.5 137t18 133.5t9.5 117.5t3 89.5q0 84 -7 173t-32 169q8 11 21 31t25.5 42t22 43t9.5 34zM594 -74q0 -23 -1.5 -66t-5.5 -97.5t-11 -116 t-17 -122.5t-24.5 -117t-33 -99t-42.5 -68.5t-53 -25.5q-19 0 -30.5 21t-17 48t-7 53t-1.5 37q0 94 16.5 190.5t46.5 190t73.5 181t97.5 163.5q6 -43 8 -85.5t2 -86.5z" />
<glyph unicode="h" horiz-adv-x="770" d="M852 158q0 12 -7 27.5t-24 15.5q-7 0 -17 -16l-24 -35q-14 -20 -31 -36t-38 -16q-36 0 -53.5 33t-26 83t-14 107.5t-19.5 107.5t-41.5 83t-79.5 33q-35 0 -67.5 -29t-61.5 -73.5t-56 -96.5l-50 -98q-23 -45 -44 -77t-40 -36q-2 9 -2 19v22q0 286 14.5 569.5t34.5 571.5 q3 31 6.5 62t3.5 63q0 26 -12 36.5t-37 10.5q-12 0 -29 -9.5t-33.5 -23t-29.5 -28t-19 -25.5q-5 -10 -9 -50t-7 -96.5t-4.5 -122t-2 -125t-1 -106.5t-0.5 -67q0 -33 0.5 -99.5t2 -149.5t4.5 -172t7.5 -167t10.5 -135t14 -76q11 -28 31.5 -47t52.5 -19t58.5 32t50 80 t44.5 104t41.5 104t41.5 80t44 32q9 0 15 -5.5t10 -14t6.5 -17.5t3.5 -16q7 -34 11 -73t10.5 -78.5t18 -76t32.5 -64.5t53.5 -45t81.5 -17q60 0 98.5 33t63.5 86q5 8 9.5 20.5t4.5 22.5z" />
<glyph unicode="i" horiz-adv-x="442" d="M305 936q0 24 -8.5 44t-23.5 35t-35 23.5t-43 8.5q-31 0 -59 -9t-49 -26.5t-33.5 -43t-12.5 -57.5q0 -24 10.5 -47t28 -42t40 -30.5t46.5 -11.5q27 0 52 15t44.5 38t31 50.5t11.5 52.5zM606 328q0 12 -10 22t-23 10q-9 0 -23.5 -18.5t-33 -46.5t-42 -60.5t-51 -60.5 t-59 -46.5t-67.5 -18.5q-44 0 -69 26t-37.5 64t-15.5 80t-3 73q0 32 3 64.5t3 64.5q0 16 -11.5 24.5t-27.5 8.5q-13 0 -24 -8q-10 -6 -17.5 -25t-13 -44.5t-9 -55t-5.5 -57t-3 -50t-1 -34.5q0 -50 10.5 -97t34.5 -83t63 -58t96 -22q41 0 77 13.5t66.5 36.5t57 52.5 t47.5 60.5q9 13 24 38t29.5 52.5t24.5 53.5t10 41z" />
<glyph unicode="j" horiz-adv-x="264" d="M244 907q0 28 -11.5 52t-30.5 42t-44 28.5t-52 10.5t-51.5 -4t-43.5 -15.5t-30.5 -32t-11.5 -52.5q0 -27 7.5 -53.5t23 -47.5t38.5 -34t54 -13q28 0 55 6.5t48.5 21t35 37t13.5 54.5zM193 473q0 23 -8.5 35t-32.5 12q-11 0 -26 -9t-29.5 -22t-26 -27t-15.5 -24 q-3 -5 -5 -25t-3.5 -47t-2.5 -58v-60q-1 -29 -1 -52v-34q0 -188 6 -375l3 -89q1 -52 3.5 -113t6 -125.5t8.5 -123.5t12 -107.5t16 -78.5q3 -9 9 -22.5t14.5 -26.5t19.5 -22t23 -9q11 0 17 9.5t8.5 22.5t3 26t0.5 20q0 143 -8.5 286.5t-8.5 289.5q0 128 3.5 253.5t6.5 253.5 q2 62 4.5 122t2.5 120z" />
<glyph unicode="k" horiz-adv-x="725" d="M786 -10q0 13 -13.5 30t-34 36t-46.5 38l-50 36q-25 17 -46 29.5t-33 18.5q-34 19 -70 32.5t-71 29.5q39 14 90 41.5t96.5 65t77 83t31.5 94.5q0 65 -32.5 90t-94.5 25q-64 0 -128 -35.5t-120 -88.5t-101 -114.5t-71 -113.5l12 572q6 284 6 573q0 12 -3 27t-17 20h-4 q-20 -5 -36.5 -47t-29 -108t-21.5 -150t-15.5 -173t-10.5 -177t-6 -161.5t-3 -126.5t-1 -73q0 -18 1 -61t4 -96.5t8.5 -111t14.5 -105t22.5 -78.5t31.5 -31q12 0 24 15t15 28q9 37 29.5 91.5t49 114t65 118.5t79 106t89 76.5t95.5 29.5q14 0 15.5 -5t1.5 -17 q0 -38 -25.5 -76.5t-62.5 -72t-79 -59.5t-75 -38q-7 -3 -16.5 -6.5t-18 -8.5t-14.5 -11.5t-6 -16.5v-8q3 -9 16.5 -20.5t30 -22t32.5 -19.5l25 -14q35 -19 71 -50l70 -61q35 -31 67.5 -57t60.5 -37q15 -5 34.5 -8.5t36.5 -3.5q22 0 37.5 8.5t15.5 34.5z" />
<glyph unicode="l" horiz-adv-x="465" d="M598 266q0 6 -2 15.5t-6.5 17.5t-11 14t-15.5 6q-8 0 -18.5 -18t-24 -45.5t-30.5 -59t-39 -59t-50 -45.5t-63 -18q-39 0 -68 24.5t-49.5 60.5t-33.5 76.5t-21 71.5q112 193 170.5 410.5t58.5 443.5q0 30 -4 66.5t-13.5 74.5t-24.5 73.5t-37 63.5t-51.5 45t-67.5 17 q-52 0 -88 -29.5t-60 -76.5t-38 -105.5t-21 -117.5t-8.5 -112t-1.5 -89q0 -41 2.5 -105.5t9.5 -142.5t19.5 -163.5t31.5 -168.5t45 -158.5t62 -132.5t81.5 -91t102.5 -34q48 0 95.5 28t85 71t60.5 94.5t23 97.5zM285 1112q0 -174 -38.5 -341.5t-109.5 -326.5 q-23 141 -34 282t-11 284q0 16 1.5 52t5.5 80.5t11 91.5t18.5 86t28 64t38.5 25q20 0 34 -18t24 -46.5t16.5 -63t10 -67.5t4.5 -60.5t1 -41.5z" />
<glyph unicode="m" horiz-adv-x="1114" d="M1196 186q0 5 -2.5 13.5t-7 16.5t-10 14t-11.5 6q-4 0 -13.5 -20t-22.5 -43.5t-29.5 -43.5t-34.5 -20q-32 0 -45 29.5t-18 73.5t-6.5 95.5t-10.5 95.5t-30.5 73.5t-65.5 29.5q-32 0 -61.5 -23t-55.5 -57t-48 -74l-40 -75l-30 -57q-12 -23 -19 -23q-4 0 -7.5 10.5 t-5.5 23.5t-3.5 25t-2.5 16q-1 27 -7 67t-19.5 77t-37 63.5t-60.5 26.5t-70 -27t-62 -67.5t-54 -87.5l-47 -88q-22 -41 -41 -68t-36 -27q-11 0 -17.5 6t-9.5 15t-4 19.5t-1 19.5q0 57 9 113t9 112q0 16 -1 34t-7 33t-18 25t-33 10q-22 0 -35.5 -16t-21 -38.5t-9.5 -46 t-2 -38.5q0 -19 1 -57.5t5 -84.5t11.5 -94.5t20.5 -87.5t32.5 -64.5t46.5 -25.5q28 0 55 29.5t52 73.5t48.5 96t45.5 96t41 73.5t36 29.5q16 0 25 -26.5t16 -67t14 -87t20 -87t33.5 -67t53.5 -26.5q14 0 34 26.5t42 67.5l45 86l44 88q21 40 39 66.5t29 26.5q12 0 19 -12.5 t10 -29.5t4 -33.5t2 -25.5l8 -88q5 -47 20.5 -88.5t46 -69.5t87.5 -28q29 0 59 19t54 47.5t39.5 61.5t15.5 60z" />
<glyph unicode="n" horiz-adv-x="717" d="M799 184q0 5 -3 12.5t-7 15t-9 12.5t-10 5t-14.5 -19t-22.5 -42.5t-29.5 -42.5t-35.5 -19q-32 0 -45.5 29.5t-18.5 73.5t-6.5 96t-10.5 96t-30 73.5t-65 29.5q-37 0 -69.5 -27t-61.5 -67.5t-54 -87.5l-47 -88q-22 -41 -41.5 -68t-36.5 -27q-11 0 -17.5 6t-9.5 15t-4 19.5 t-1 19.5q0 55 9 111.5t9 113.5q0 16 -1 33.5t-7 32.5t-18 24.5t-33 9.5q-22 0 -35.5 -16.5t-21 -39t-9.5 -46.5t-2 -39q0 -19 1 -57t5 -83.5t11.5 -93t20.5 -87t32.5 -64.5t46.5 -25q28 0 55 29.5t52.5 73.5t48.5 96l46 96q21 44 40.5 73.5t35.5 29.5q12 0 18 -13t9 -29.5 t4 -33t2 -23.5q4 -43 8 -92t19.5 -89.5t48 -67.5t92.5 -27q29 0 57.5 19.5t52 48.5t38 61.5t14.5 58.5z" />
<glyph unicode="o" horiz-adv-x="651" d="M723 451q0 8 -3.5 19t-12.5 11q-4 0 -17 -13l-31 -30q-18 -17 -37.5 -33.5t-37.5 -23.5q-19 40 -49 70t-72 47q-9 12 -26 19.5t-36.5 12t-38.5 6t-34 1.5q-66 0 -122.5 -23t-97.5 -63.5t-64.5 -97t-23.5 -122.5q0 -57 22 -103.5t59 -78.5t86 -49.5t104 -17.5 q62 0 118.5 21.5t99.5 60t69 91.5t26 117v25q15 8 35.5 26.5t39 41t31.5 45.5t13 41zM510 283q0 -45 -16.5 -79t-44.5 -57t-65 -35t-79 -12q-32 0 -63.5 10t-56.5 29.5t-40.5 47.5t-15.5 63q0 38 15 73.5t40.5 62.5t59.5 43.5t73 16.5q26 0 53 -5t50 -17q-6 -8 -8 -18 t-2 -21q0 -43 30 -69.5t70 -32.5z" />
<glyph unicode="p" horiz-adv-x="715" d="M694 291q0 48 -19 86.5t-51 65.5t-73 41t-86 14q-59 0 -106.5 -22t-85.5 -57.5t-67.5 -81t-53.5 -93.5v125q0 13 1.5 33.5t-1 40.5t-11.5 34.5t-30 14.5q-15 0 -25.5 -13t-18 -30.5t-11 -35.5t-3.5 -28q-14 -189 -18 -380.5t-4 -381.5v-65q0 -39 1 -86l2 -96 q1 -49 4 -94.5t7 -83.5t10 -60q2 -6 7.5 -17t12 -21.5t15 -18t16.5 -7.5q23 0 38.5 19.5t19.5 38.5q6 25 9 56.5t4 64.5t1 65v57q0 150 -8 299.5t-8 300.5q0 16 4 35l6 35q6 32 16.5 72t26 80.5t37 79t49.5 69t62.5 48.5t76.5 18q26 0 49.5 -9.5t40.5 -26t27 -39t10 -48.5 q0 -50 -26 -82t-64.5 -52.5t-83 -31.5t-82.5 -19q-2 -1 -10.5 -2.5t-18 -4t-17 -5.5t-7.5 -8q0 -10 4.5 -23t11.5 -25t17 -21.5t20 -12.5q6 -2 19 -2h20q68 0 130 18t109.5 54.5t76 91t28.5 127.5z" />
<glyph unicode="q" horiz-adv-x="666" d="M635 -639q0 123 -4 246t-9.5 245.5t-9.5 245.5t-4 246q0 16 1 30.5t1 28.5q0 12 -1 27t-5.5 29t-13.5 23.5t-25 9.5q-9 0 -17 -7t-15 -17t-12 -21t-7 -19q-32 29 -75 42t-87 13q-66 0 -129 -27.5t-112.5 -74.5t-80 -108.5t-30.5 -129.5q0 -80 48 -125t128 -45 q40 0 75 12.5t64.5 34t53.5 50.5t43 63q6 9 10 18.5t4 20.5q0 8 -5.5 15.5t-14.5 7.5q-7 0 -19.5 -19t-34 -42.5t-54 -42.5t-79.5 -19q-48 0 -68 24.5t-20 71.5q0 45 18.5 88.5t50 77t73 54t87.5 20.5q39 0 65.5 -14t43 -38t24 -55t7.5 -65q0 -186 -5.5 -369.5t-5.5 -370.5 v-81q0 -49 2 -101.5t7 -100t14 -75.5q2 -7 6.5 -18t11.5 -21t15 -17.5t16 -7.5q25 0 38.5 19.5t18.5 38.5q14 54 15.5 113.5t1.5 115.5z" />
<glyph unicode="r" horiz-adv-x="537" d="M623 156q0 5 -1.5 12t-4.5 14t-7.5 12t-9.5 5q-4 0 -18.5 -20t-34.5 -44.5t-44 -44.5t-48 -20q-35 0 -47.5 21t-12.5 52t9 59.5t20 57t20 57t9 58.5q0 38 -20 63t-60 25q-23 0 -45.5 -6t-44.5 -13l-44 -12q-22 -6 -46 -6q-10 0 -22.5 1t-20.5 9q2 6 2 14v13q0 21 -6 48 t-18.5 50t-31.5 39t-45 16q-18 0 -31.5 -7.5t-22.5 -20.5t-13 -29t-4 -33q0 -46 20 -78.5t55 -60.5q0 -68 -10.5 -134.5t-24.5 -131.5q-5 -29 -14.5 -60.5t-9.5 -60.5q0 -6 3.5 -19t9 -26.5t12.5 -23.5q6 -9 13 -9h1h2q8 5 18.5 34t21.5 71.5t22 92t19.5 95t14 81.5t6.5 50 q14 -2 27 -2h27q26 0 50 5t50 5q8 0 14 -3.5t6 -12.5q0 -22 -7 -46l-14 -48l-13.5 -50t-6.5 -51q0 -80 46.5 -119.5t123.5 -39.5q33 0 61.5 14t51 36.5t39.5 50.5t27 56q2 5 2 9v6z" />
<glyph unicode="s" horiz-adv-x="481" d="M451 223q0 40 -12.5 79.5t-33.5 76t-47.5 69.5t-54.5 60q-18 18 -32.5 29.5t-43.5 11.5q-17 0 -41.5 -2t-40.5 -8q-5 -3 -19 -20.5t-32 -42.5l-39 -55l-37 -55l-27 -46q-11 -19 -11 -25q0 -19 13 -33t32 -14q6 0 19.5 15t30.5 37l37 48q19 27 37 49t33 37t23 15 q29 0 49 -27.5t32.5 -64.5t18.5 -75t6 -59q0 -22 -9 -47t-24.5 -46t-36 -34.5t-44.5 -13.5q-17 0 -33 4t-32 8.5t-31.5 8t-30.5 3.5q-6 0 -15 -3t-17.5 -8t-14 -11.5t-5.5 -13.5q0 -10 12 -22.5t30.5 -24.5t41 -23.5t44.5 -20.5t40 -14.5t27 -5.5q54 0 98 22t75 58.5 t48 84.5t17 99z" />
<glyph unicode="t" horiz-adv-x="281" d="M690 877q0 15 -20 33t-47 33.5t-54 25.5t-41 10q-89 0 -176.5 -18t-175.5 -33q6 77 16.5 153.5t10.5 153.5q0 8 -1.5 20t-6 23t-11.5 19t-18 8q-22 0 -36 -19.5t-19 -38.5q-10 -36 -16.5 -79t-11 -88t-7 -89.5t-4.5 -83.5q-44 -8 -86.5 -15t-85.5 -7q-25 0 -48.5 6 t-48.5 6q-7 0 -15.5 -7.5t-16 -17t-12.5 -20t-5 -16.5q0 -19 12 -38.5t30 -34.5t39.5 -24.5t39.5 -9.5q94 0 188 23q-5 -104 -6.5 -205t-1.5 -203q0 -66 1.5 -136.5t17.5 -135.5q2 -12 9.5 -39.5t18 -56t23 -50.5t25.5 -22q18 0 28 18.5t14.5 43.5t5.5 50t1 37q0 80 -5 160 t-10.5 159.5t-10.5 159.5t-5 160v40q0 20 2 40q26 5 52 8.5t52 5.5q16 2 53 4t83.5 5.5t95.5 9t90 14.5t67.5 23t26.5 35z" />
<glyph unicode="u" horiz-adv-x="731" d="M844 250q0 6 -4 18.5t-10 25t-13 22t-14 8.5q-5 -5 -9 -23.5t-10 -42.5t-14.5 -51t-21.5 -49.5t-31.5 -37t-44.5 -14.5q-22 0 -37.5 17t-25.5 43.5t-15.5 59t-9 64t-6 58t-5.5 41.5q-3 14 -6.5 28.5t-10.5 26.5t-17.5 19.5t-28.5 7.5q-28 0 -47 -27t-33 -67t-26.5 -87 t-28.5 -87t-37.5 -67t-54.5 -27q-31 0 -52.5 14.5t-35.5 38.5t-22.5 54t-12.5 61t-5 60.5t-1 51.5q0 21 -1.5 40t-9 34t-21.5 24t-40 9q-21 0 -33.5 -11.5t-19 -28t-8 -35.5t-1.5 -34q0 -32 4 -75.5t14 -89.5t26 -90.5t40 -80t57 -57t75 -21.5t75 17.5t58.5 45.5t43.5 63 t31 69q3 7 8.5 26.5t12.5 40.5t15 37.5t14 16.5q5 0 8 -13.5t5.5 -31t4 -34t2.5 -22.5q4 -31 12 -66t24 -65t41.5 -49.5t63.5 -19.5q48 0 84 25.5t59 64.5t34.5 85t11.5 87z" />
<glyph unicode="v" horiz-adv-x="526" d="M537 430q0 9 -3.5 21t-9.5 23.5t-15 19.5t-20 8q-12 0 -28 -29t-34.5 -73t-37.5 -94.5t-38 -94.5t-36.5 -73t-31.5 -29q-11 0 -26.5 24.5t-33 62t-36.5 82.5l-35 87l-30 75q-14 32 -22 45t-17 20t-26 7q-10 0 -23 -5.5t-25 -14.5t-20.5 -20.5t-8.5 -22.5q0 -5 2 -9 q12 -27 28 -72l36 -96q19 -51 42.5 -102.5t51 -93t59.5 -68t69 -26.5q17 0 39 22.5t46 58t47 78.5l44 83q21 40 36 72l22 48l8 16l11 28l11 26q5 13 5 16z" />
<glyph unicode="w" horiz-adv-x="862" d="M885 422q0 8 -1.5 19.5t-6 22t-12 18t-19.5 7.5q-31 0 -53.5 -26t-39.5 -65.5t-29 -85.5l-24 -86q-12 -39 -23.5 -65t-25.5 -26q-9 0 -22.5 22t-29 55.5t-31.5 73.5l-30 78l-26 68q-11 29 -18 41q-8 11 -16 19t-23 8q-17 0 -29 -9l-25 -18q-23 -20 -40 -53.5t-29.5 -71 t-22.5 -75.5t-19.5 -68.5t-18.5 -50t-21 -19.5q-9 0 -22.5 22t-29 55.5t-31.5 73.5l-31 78l-26 68q-11 29 -18 41q-8 11 -15.5 19t-23.5 8q-10 0 -22.5 -5.5t-24 -14.5t-19 -20t-7.5 -22q0 -2 1 -4t1 -4q8 -25 17 -49t17 -49q8 -22 19 -55.5t26 -71.5t33.5 -76t40.5 -68.5 t48 -49.5t55 -19q26 0 44.5 21t32.5 54t25 73l21 77q10 38 21.5 69t27.5 46l19 -55q12 -34 28.5 -71.5t37 -75.5t43.5 -69t49 -50t54 -19q29 0 50 26t36.5 65t28.5 84l24 84q11 39 24.5 65t31.5 26q14 0 23 8.5t15 21t8.5 26.5t2.5 24z" />
<glyph unicode="x" horiz-adv-x="559" d="M621 147q0 11 -10 23t-21 12q-12 0 -19 -16l-16 -37q-9 -20 -25 -36.5t-47 -16.5q-18 0 -41.5 15t-46 36t-42.5 43l-31 35l28 26l41 41l47 48q25 26 45.5 50t33.5 43.5t13 30.5q0 12 -7 22t-17 17t-22 11t-23 4q-12 0 -31 -12t-40.5 -31t-44.5 -42l-43 -45l-36 -40 l-24 -27l-62 85q-29 42 -57 87q-8 12 -17.5 19.5t-23.5 7.5q-11 0 -25 -5.5t-27 -14t-21.5 -19.5t-8.5 -23q0 -7 10.5 -25t26.5 -41.5l35 -49.5l38 -50l32 -41q14 -18 20 -24q-5 -7 -18 -22l-28 -35l-33 -40l-31 -41q-14 -19 -23 -34t-9 -21q0 -7 6 -19t14.5 -23t18 -19 t17.5 -8q6 0 10 4q35 46 73.5 89.5t80.5 86.5q21 -23 47.5 -48t56.5 -45.5t62.5 -34t66.5 -13.5q35 0 62.5 13t46.5 35t29 51.5t10 63.5z" />
<glyph unicode="y" horiz-adv-x="618" d="M608 -604q0 184 -10 363l-18 362l-2 55q-2 34 -6 74t-11.5 80.5t-20.5 73.5t-33.5 54t-49.5 21t-56 -27t-51.5 -67t-46.5 -87l-41 -87q-20 -40 -37 -67t-32 -27q-11 0 -22.5 22.5t-22 57t-20.5 76.5l-18 81l-16 69q-7 31 -12 44q-5 11 -10.5 16.5t-18.5 5.5 q-9 0 -21.5 -5.5t-24 -14t-19.5 -19t-8 -20.5q0 -22 7.5 -52.5t12.5 -53.5q4 -20 9.5 -53t14 -71t21 -77t29 -70t38 -51t48.5 -20q28 0 54.5 24t51.5 60t48.5 78.5t45.5 78.5t42 60t38 24q14 0 21.5 -10.5t11 -25.5t4 -30.5t0.5 -25.5q0 -117 -6 -234.5t-13.5 -234.5 t-13.5 -233.5t-6 -233.5q0 -21 0.5 -57.5t2 -75t5 -73t9.5 -52.5q6 -20 21 -37.5t38 -17.5q10 0 19.5 6.5t18 15.5t14.5 19t9 18q12 25 18.5 74.5t9.5 105.5t4 108.5t1 82.5z" />
<glyph unicode="z" horiz-adv-x="582" d="M582 422q0 39 -26.5 66.5t-64 45t-79.5 25.5t-74 8t-71 -9.5t-79 -26.5t-77.5 -41t-66.5 -53.5t-46.5 -64t-17.5 -71.5q0 -22 8.5 -43.5t23 -38t34.5 -27t44 -10.5q18 0 34.5 6.5t30 18t21.5 27.5t8 34q0 29 -12 39.5t-27 14.5l-27 6q-12 3 -12 18q0 26 26 49.5 t61.5 40.5t73 27t59.5 10q15 0 32.5 -3.5t33 -11t26 -20.5t10.5 -32q0 -28 -23 -51.5t-50.5 -45.5t-50.5 -45.5t-23 -52.5q0 -12 8 -34t19 -47l22 -47q11 -23 16 -38q-65 -88 -117.5 -191t-89 -213.5t-56.5 -224.5t-20 -225q0 -37 6 -80.5t23 -81t46.5 -63t76.5 -25.5 q41 0 76 25t64.5 67t53.5 97.5t42.5 117t32.5 124.5t22.5 120.5t13 105t4.5 78.5q0 64 -6 123.5t-19.5 116t-35 112.5t-51.5 113q-5 11 -15 30t-10 32t14.5 26t36.5 27l46 32q26 16 47.5 36t36 44t14.5 54zM401 -311q0 -20 -3.5 -57.5t-10 -85.5t-16 -102.5t-22 -108 t-28.5 -102.5t-34.5 -86.5t-40.5 -58.5q-19 -20 -41 -20h-4h-4q-10 20 -11.5 42.5t-1.5 43.5q0 87 14.5 191.5t40.5 210.5t62 204.5t78 173.5q12 -60 17 -121.5t5 -123.5z" />
<glyph unicode="{" horiz-adv-x="856" d="M795 1370q0 12 -9.5 30.5t-23 36.5t-28 32t-25.5 16q-7 2 -13 2h-12q-39 0 -81 -7.5l-85 -15.5l-83 -16q-41 -8 -77 -8q-21 0 -36 10t-29 10q-6 0 -11.5 -8t-9.5 -18t-6 -20t-2 -15q0 -19 5.5 -35.5t15.5 -32.5q-16 -86 -22.5 -170.5t-14.5 -171.5q-2 -23 -16.5 -45.5 t-35.5 -45t-44.5 -44.5t-43.5 -44t-33.5 -44t-13.5 -43q0 -18 12.5 -35t32 -33.5t41.5 -32.5l41 -32q20 -16 32.5 -32t12.5 -32q0 -40 -1 -85v-23q0 -34 2 -68q1 -47 5 -92t13 -84q3 -17 7 -33.5t9 -31.5q-11 -11 -17.5 -28.5t-6.5 -31.5q0 -11 5 -28.5t13 -35t18.5 -31 t22.5 -15.5q9 -4 18 -4.5t17 -0.5q26 0 51 4.5t49 9.5l50 10q24 5 49 7q14 1 42 1h59q31 0 58 1.5t37 5.5q19 7 30 17.5t11 32.5q0 11 -9.5 28.5t-22.5 35t-27.5 31.5t-24.5 17q-6 2 -13 2h-13q-37 0 -74 -5.5t-74 -13.5l-72 -15q-37 -8 -73 -13q2 17 3 34t1 34 q0 59 -4.5 118t-8.5 119q-3 32 -5 65.5t-5 65.5q-1 18 -14.5 34.5t-32.5 33.5t-40.5 33t-40 32t-30.5 32t-12 32q0 6 12 19.5t30 31.5l40 39q22 21 41 42t32 41t15 36q3 35 4 70.5t4 72.5l10 105q4 51 7 104q45 5 88.5 16.5t89.5 14.5q14 1 43 1h58q31 0 57.5 1.5t36.5 5.5 q18 6 31.5 16.5t13.5 30.5z" />
<glyph unicode="|" horiz-adv-x="281" d="M219 1370v20q0 15 -2 21q-4 9 -11.5 18t-17 17t-20.5 13t-21 5q-20 0 -33.5 -22.5t-22 -57.5t-13.5 -77t-7.5 -80.5t-3.5 -69t-1 -41.5q-4 -45 -4.5 -88t-0.5 -86q0 -210 11 -418.5t32 -417.5q1 -5 3 -21.5t4 -35t4.5 -35t3.5 -20.5q6 -19 14 -30t31 -11q17 0 25.5 9.5 t12 23.5t3.5 30v27q0 168 -8.5 334.5t-8.5 335.5q0 102 6 203l11 202q5 63 9.5 126t4.5 126z" />
<glyph unicode="}" horiz-adv-x="856" d="M795 723q0 22 -13.5 43.5t-33.5 43.5t-43.5 44t-44.5 44.5t-35.5 45t-16.5 45.5q-8 87 -14.5 171.5t-22.5 170.5q10 16 15.5 32.5t5.5 35.5q0 5 -2.5 15t-6.5 20t-9 18t-11 8q-14 0 -29 -10t-36 -10q-36 0 -77 8l-83 16l-85 15.5t-81 7.5h-12q-6 0 -13 -2q-10 -2 -25 -16 t-28.5 -32t-23 -36.5t-9.5 -30.5q0 -20 13 -30.5t30 -16.5q11 -4 38 -5.5t58 -1.5h58q29 0 43 -1q45 -3 88.5 -14.5t89.5 -16.5q2 -53 6.5 -104.5t8.5 -104.5q3 -37 5 -72.5t5 -70.5q2 -16 15 -36t32 -41t41 -42l40 -39q18 -18 30 -31.5t12 -19.5q0 -16 -12 -32t-30.5 -32 t-40.5 -32t-41 -33t-32.5 -33.5t-15.5 -34.5q-3 -32 -4 -65.5t-4 -65.5q-5 -60 -9 -119t-4 -118v-34q0 -17 2 -34q-35 5 -71 13l-72 15q-37 8 -73.5 13.5t-73.5 5.5h-14q-7 0 -13 -2q-11 -3 -25.5 -17t-27.5 -31.5t-22 -35t-9 -28.5q0 -22 11 -32.5t30 -17.5 q10 -4 36.5 -5.5t56.5 -1.5h60q28 0 41 -1q26 -2 51 -7l50 -10q24 -5 49 -9.5t49 -4.5q9 0 18 0.5t17 4.5q12 2 23.5 15.5t19.5 31t13 35t5 28.5q0 14 -7.5 31.5t-16.5 28.5q5 15 9 31.5t7 33.5q9 39 13 84t5 92q2 34 2 68v23q-1 45 -1 85q0 16 12.5 32t32.5 32l41 32 q22 16 41.5 32.5t32 33.5t12.5 35z" />
<glyph unicode="~" horiz-adv-x="993" d="M932 696q0 6 -5.5 18.5t-14 25t-17.5 21.5t-16 9q-9 0 -29.5 -13t-47 -28t-55 -28t-53.5 -13q-43 0 -86.5 16.5t-88 37t-90.5 37t-95 16.5q-29 0 -58 -8.5t-55 -20.5q-12 -5 -38.5 -21.5t-53.5 -37t-47.5 -41t-20.5 -33.5q0 -6 5.5 -18.5t14 -25t17.5 -21.5t15 -9 q9 0 31 13l47 27q26 15 54 27.5t50 12.5q38 0 78.5 -16t84.5 -35.5t92 -36t101 -16.5q32 0 62 7t59 21q12 6 38.5 22.5t53.5 37t47.5 40.5t20.5 33z" />
<glyph unicode="&#xa1;" horiz-adv-x="387" d="M115 131q0 42 1 102t3 129t4.5 144t5.5 148l6 138q3 67 6 119l5 85q2 34 4 42q3 19 19.5 24t33.5 5q8 0 16.5 -4t13.5 -21q4 -15 9 -56t10 -100t10.5 -132t9.5 -152t6.5 -160t2.5 -155q0 -47 -0.5 -88t-4.5 -78q-4 -60 -7 -95.5t-8.5 -53.5t-13.5 -23.5t-22 -5.5 q-10 0 -24.5 2.5t-28 7.5t-24.5 12.5t-15 16.5q-12 27 -15 65.5t-3 83.5zM61 1309q0 20 10.5 47t28.5 51.5t43.5 41.5t55.5 17q29 0 52.5 -14t40 -34.5t25.5 -43t9 -39.5q0 -19 -7 -43t-24.5 -45t-47.5 -35t-75 -14q-31 0 -52 11.5t-34 28t-19 36t-6 35.5z" />
<glyph unicode="&#xa2;" horiz-adv-x="862" d="M801 649q0 11 -9.5 21t-21.5 10q-17 0 -26 -10t-17 -23q-26 -37 -54 -66.5t-60.5 -50.5t-71 -32t-86.5 -13q-2 62 -3 123t-1 121q0 91 4 181.5t10 181.5q8 2 16.5 3t18.5 1q15 0 30.5 -2.5t28 -9t20 -18.5t7.5 -30q0 -15 -7 -27t-15.5 -25t-15.5 -29t-7 -40 q0 -20 10.5 -32.5t32.5 -12.5q27 0 51 19t42 47t29 59t11 56q0 47 -26.5 72.5t-65 37.5t-81.5 14q-29 1 -53 1h-24q5 51 8.5 101t3.5 101q0 11 -0.5 20.5t-3.5 18.5q-2 8 -8.5 17t-15 17t-18 13.5t-17.5 5.5q-16 0 -27.5 -20.5t-19.5 -53t-12 -71.5t-6.5 -75.5t-3.5 -66 t-1 -42.5q-59 -25 -111 -67t-90.5 -96t-61 -117t-22.5 -128q0 -67 22 -125t61.5 -103t94 -74.5t119.5 -41.5q3 -63 8.5 -127t10.5 -129q3 -32 4.5 -66.5t9.5 -66.5q5 -19 13.5 -30t29.5 -11q12 0 18.5 10t9.5 23.5t3 28.5v24q0 85 -2.5 169t-5.5 171q96 3 177.5 45.5 t131.5 126.5l12 21q6 11 11 24t8.5 25t3.5 22zM352 494q-39 11 -73 35t-59.5 56t-40.5 71t-15 81q0 99 48 176t130 131v-110q0 -112 2.5 -220.5t7.5 -219.5z" />
<glyph unicode="&#xa3;" horiz-adv-x="848" d="M786 342q0 9 -10 21.5t-23.5 23.5t-28.5 18.5t-24 8.5h-14q-114 0 -228 -13t-229 -24q29 37 56 81t41 89q21 3 42.5 5.5t43.5 2.5q21 2 51 2.5t61.5 1.5t61 3.5t47.5 6.5q5 1 12.5 3t15.5 5.5t13.5 8.5t5.5 12q0 9 -11.5 19t-27 19t-31.5 15.5t-24 7.5q-28 3 -60.5 1.5 t-66.5 -6t-66.5 -9.5t-60.5 -8q-6 38 -20 69l-30 64q-15 31 -26.5 66t-11.5 79q0 45 10 86t32.5 72t58.5 49.5t87 18.5q35 0 68.5 -10t59.5 -30t42 -49.5t16 -68.5q0 -42 -16 -66.5t-51 -39.5q-9 -3 -19 -13.5t-18.5 -23.5t-14 -26t-5.5 -21q0 -16 12.5 -25.5t28.5 -9.5 q36 0 69 20.5t58 51t40 67.5t15 70q0 61 -26 107.5t-68.5 77.5t-96 46.5t-108.5 15.5q-65 0 -119.5 -21.5t-93.5 -60.5t-60.5 -93t-21.5 -119q0 -33 5 -61.5t14.5 -54t23 -50.5t29.5 -52q11 -18 21.5 -38t16.5 -41q-14 -2 -29 -2h-28q-14 0 -28 5t-29 5q-6 0 -12 -4t-11 -10 t-8.5 -13t-3.5 -12q0 -15 9 -26.5t22 -19.5t28 -12t27 -4h24q11 0 23 2q-20 -34 -47 -64l-53 -58l-13 -14l-20 -20q-9 -10 -16 -20t-7 -16q0 -16 10 -30t25 -24t32 -16t32 -6q58 0 116.5 4.5t117.5 10.5l117 11q59 6 118 7q12 1 38.5 0t52.5 2t46 12.5t20 30.5z" />
<glyph unicode="&#xa4;" horiz-adv-x="1198" d="M1137 582q0 14 -11.5 22t-23.5 8q-14 0 -29 -17.5t-34.5 -43.5t-47 -56.5t-67.5 -56.5t-95.5 -43.5t-130.5 -17.5q-97 0 -175 43t-122 133q20 2 50 3t61 3t59.5 5t46.5 7q6 2 14.5 4.5t16 6t12.5 9.5t5 13q0 9 -12.5 20t-29.5 20.5t-34.5 15.5t-26.5 6q-48 0 -97 -9.5 t-97 -17.5q0 12 -1 24.5t-1 24.5q0 41 6 78q54 5 106 9t105 9q24 2 49.5 3t48.5 6q6 2 15 4t17.5 5t14.5 8.5t6 12.5q0 10 -14.5 21t-33.5 20t-38 15t-28 6q-54 0 -110 -9l-110 -16q23 51 63.5 99t90.5 85.5t107 60.5t114 23q21 0 41 -3t36 -12t26 -24.5t10 -39.5 q0 -19 -9 -33l-18 -28q-9 -15 -17.5 -34t-8.5 -49q0 -21 9 -35t32 -14t40.5 10.5t34.5 26.5q35 34 57.5 78.5t22.5 95.5q0 46 -24.5 75t-61 45t-79.5 21.5t-79 5.5q-81 0 -160 -29.5t-146.5 -80.5t-119 -118.5t-77.5 -143.5q-29 -3 -58 -8t-57 -5q-19 0 -36 4.5t-34 4.5 q-5 0 -12 -4t-13 -9t-10 -11t-4 -11q0 -14 10 -26t24.5 -21t30.5 -14t28 -5q26 0 53 3.5t53 7.5q-3 -17 -3.5 -33t-0.5 -33q0 -15 1 -30.5t3 -30.5l-48 -9q-25 -4 -50 -4q-17 0 -33 4t-33 4q-4 0 -10.5 -4t-11.5 -9.5t-9 -11.5t-4 -11q0 -12 8.5 -23.5t20.5 -20.5t26 -14.5 t25 -5.5q35 0 71 6t71 13q24 -69 66 -119.5t96.5 -82.5t119.5 -47.5t135 -15.5q61 0 118.5 12.5t108.5 38t94.5 64t74.5 90.5q5 8 12 23l13 30q7 16 11.5 30.5t4.5 23.5z" />
<glyph unicode="&#xa5;" horiz-adv-x="1206" d="M1147 700q0 9 -13.5 19.5t-31.5 19.5t-35.5 15t-26.5 6q-42 0 -86 -6q3 28 5.5 55.5t5.5 56.5q11 1 40.5 2.5t61 6t56 13t24.5 23.5q0 9 -13.5 19.5t-31.5 19.5t-35.5 15t-26.5 6q-17 0 -35 -1t-36 -3q6 59 6 116q0 19 -1.5 44t-8.5 47.5t-22 38.5t-42 16q-30 0 -51 -16 t-35.5 -42t-23 -59t-14 -66t-8 -63t-5.5 -51q-34 -5 -66.5 -11t-64.5 -6q-16 0 -30 4.5t-30 4.5q-4 0 -10 -4.5t-10.5 -10.5t-8 -12t-3.5 -10q0 -14 8.5 -25.5t21 -20t26.5 -13.5t26 -5q32 0 64 5l63 10q-4 -31 -9 -60.5t-8 -60.5q-25 -5 -49 -8.5t-49 -3.5q-16 0 -31 4 t-31 4q-4 0 -10 -4t-10.5 -10t-8 -12t-3.5 -11q0 -13 8 -24.5t20.5 -20.5t27 -14t26.5 -5q23 0 46 2.5t46 6.5q-7 -34 -19.5 -82t-33.5 -92.5t-52 -75.5t-75 -31q-53 0 -90 27t-61 70.5t-37 98t-19.5 110.5t-7.5 107.5t-1 88.5q0 69 2.5 138t2.5 138q0 54 -26 85.5t-83 31.5 q-15 0 -38.5 -5t-47.5 -14.5t-43 -22.5t-25 -28q4 -12 14 -16t21 -4q32 0 61.5 11t61.5 11q11 0 24 -6t13 -20t-2.5 -28t-5.5 -28q-19 -91 -30 -183t-11 -185q0 -49 4.5 -101t16 -101.5t32 -94t52.5 -78t77.5 -53t106.5 -19.5q50 0 89 16t68.5 43.5t51.5 64t38.5 77.5 t27.5 83.5t20 82.5l40 4q-15 -93 -27.5 -186t-12.5 -189q0 -13 1.5 -37.5t4.5 -55t8 -62.5t13 -58.5t19 -45t25 -21.5h10q6 0 17.5 1.5t23 5t19.5 9.5t8 14q0 11 -1 21.5t-3 19.5q-12 146 -12 285q0 78 11 156.5t11 156.5q12 1 44.5 2t67.5 5.5t62 13.5t27 24zM903 1126 q0 -45 -7 -87.5t-15 -86.5l-50 -8q3 14 7 48t11 69.5t18.5 62.5t29.5 27q5 0 5.5 -11t0.5 -14zM864 856q0 -31 -6.5 -60.5t-11.5 -58.5l-39 -8q5 31 8 61l6 62z" />
<glyph unicode="&#xa6;" horiz-adv-x="281" d="M219 1364q0 15 -3 32.5t-10.5 32.5t-20.5 25t-33 10q-21 0 -36 -23t-24 -59t-14.5 -78.5t-7.5 -81t-2.5 -68t-1.5 -38.5q-2 -24 -3 -58.5t-1.5 -71.5t-0.5 -74v-66q0 -14 11 -25t27.5 -19t35.5 -12t35 -4q12 0 17.5 12.5t5.5 20.5q3 81 7 162l9 153q4 73 7 133t3 97z M207 45q0 33 -1 82l-2 103l-4 108q-1 55 -2.5 99t-3 73t-1.5 33q-1 6 -10 13.5t-22 14t-28.5 11t-30.5 4.5q-11 0 -19.5 -10t-8.5 -21v-2q3 -94 9 -185.5t13 -168t13 -131t10 -74.5q2 -15 8 -23t12.5 -12t13.5 -5t11 -1q18 0 28 11t13 30q2 6 2 18v33z" />
<glyph unicode="&#xa7;" horiz-adv-x="1169" d="M1108 201q0 62 -26 106t-67 76t-92 53.5t-102 36.5q40 12 77 32.5t65.5 50t45.5 67t17 82.5q0 58 -23 100.5t-62.5 73.5t-92 53t-111.5 38.5t-121.5 29.5t-121.5 28t-111.5 33.5t-92 44t-62.5 61.5t-23 86q0 45 18 84t48.5 70.5t70 56t83 41t87.5 25t82 8.5q24 0 59.5 -2 t74.5 -7.5t78 -15.5t70 -27t50.5 -41.5t19.5 -58.5q0 -32 -9.5 -53.5t-26 -37.5t-38.5 -28l-45 -26q-12 -7 -28.5 -20t-31.5 -29.5t-25.5 -33.5t-10.5 -32q0 -10 6 -17.5t14.5 -12.5t18.5 -7t18 -2q20 0 45.5 8.5t51 20.5t49 26t39.5 25q26 19 50.5 41.5t43 49t30 57.5 t11.5 65q0 50 -26 88t-68 65.5t-95 46t-107.5 29t-105.5 15t-88 4.5q-50 0 -111 -11t-123 -32t-120 -53t-103.5 -74t-72.5 -93.5t-27 -113.5q0 -61 26 -105.5t67 -76t92 -52.5t102 -36q-40 -12 -77 -33t-65.5 -50.5t-45.5 -66.5t-17 -81q0 -73 35.5 -122t93 -82.5t131.5 -55 t151 -39.5l151 -37q74 -18 131.5 -45.5t93 -68t35.5 -101.5q0 -45 -18 -83.5t-48.5 -70t-70.5 -56t-83.5 -41.5t-87 -25.5t-82.5 -8.5q-24 0 -59.5 2t-74.5 7.5t-78 15.5t-70 27t-50.5 41.5t-19.5 58.5q0 32 9.5 53.5t26 37.5t37.5 28l46 26q12 7 28.5 20t31.5 29.5 t25.5 33.5t10.5 32q0 11 -6 18.5t-14.5 12t-18.5 6.5t-18 2q-20 0 -45 -8t-50.5 -20t-49 -25.5t-39.5 -24.5q-27 -18 -51.5 -41t-43.5 -50t-30 -57.5t-11 -64.5q0 -51 26 -89t68 -65.5t95 -45.5t107.5 -28.5t105.5 -15t88 -4.5q51 0 112 10.5t123 32t120 53t103 73t72 93.5 t27 113zM885 698q0 -39 -24 -65t-59 -41.5t-74.5 -22t-70.5 -6.5q-28 0 -67 3.5t-80 12t-81.5 22.5t-72.5 35t-51.5 50.5t-19.5 67.5q0 39 24 65t59 41.5t74 22t70 6.5q29 0 67.5 -3.5t80 -12t82 -22.5t72.5 -35t51.5 -50.5t19.5 -67.5z" />
<glyph unicode="&#xa8;" horiz-adv-x="1376" d="M950 1327q0 15 -5.5 32.5t-17.5 32.5t-31 25t-46 10q-41 0 -67.5 -12.5t-42 -31.5t-21.5 -40t-6 -38q0 -15 8 -35.5t22.5 -39t35 -31.5t46.5 -13q27 0 50 15.5t39.5 37.5t26 46t9.5 42zM664 1327q0 15 -5.5 32.5t-18 32.5t-31.5 25t-46 10q-40 0 -66.5 -12.5t-42.5 -31.5 t-22 -40t-6 -38q0 -15 8 -35.5t22.5 -39t35.5 -31.5t47 -13q27 0 49.5 15.5t39.5 37.5t26.5 46t9.5 42z" />
<glyph unicode="&#xa9;" horiz-adv-x="848" d="M623 850q0 11 -9 16.5t-20 5.5q-12 0 -22.5 -14.5t-26.5 -32.5t-42 -32.5t-71 -14.5q-24 0 -46 8.5t-39 23.5t-27.5 35.5t-10.5 45.5q0 30 12.5 59.5t33.5 53.5t49 38.5t59 14.5q12 0 22.5 -2.5t10.5 -18.5q0 -4 -3.5 -9t-7 -11.5t-7 -14.5t-3.5 -20q0 -15 8.5 -25 t24.5 -10q15 0 28.5 11t23.5 26.5t16 33t6 30.5q0 22 -11 36t-28 21.5t-36.5 10.5t-37.5 3q-45 0 -86.5 -19t-73 -51t-50.5 -73t-19 -86q0 -42 15 -76t41.5 -57.5t62 -36t75.5 -12.5q53 0 97.5 22.5t72.5 69.5q5 9 12 24t7 27zM786 895q0 29 -4 62t-12.5 66t-20.5 64t-28 54 q-9 12 -22.5 25.5t-30.5 13.5q-8 0 -15.5 -3.5t-7.5 -11.5q0 -1 5 -15l13 -30l13 -31q7 -15 8 -20q11 -37 17 -76t6 -78v-20q0 -61 -21 -113.5t-59 -91t-89.5 -60.5t-113.5 -22q-60 0 -110.5 18.5t-86.5 52.5t-56.5 83t-20.5 110q0 62 22 127t62.5 118t97 86.5t125.5 33.5 q24 0 39 -6t27 -13l24 -12q12 -6 31 -6q18 0 37.5 9t19.5 32q0 20 -18 34.5t-42.5 23.5t-50.5 13.5t-41 4.5q-85 0 -161.5 -41t-134.5 -106.5t-92 -147.5t-34 -164q0 -75 27 -137.5t74 -107.5t111 -70t139 -25q78 0 146.5 29t119 80t79.5 120t29 148z" />
<glyph unicode="&#xaa;" horiz-adv-x="944" d="M915 961q0 6 -2 15t-6.5 17.5t-10 14.5t-13.5 6q-11 0 -17.5 -13.5t-9.5 -21.5q-12 -29 -25 -52t-30.5 -38.5t-42 -24t-58.5 -8.5q-38 0 -64.5 22t-41.5 56q17 34 30 74t13 77q0 16 -1.5 41t-8 48t-19 40t-35.5 17q-30 0 -46 -17.5t-23.5 -42.5t-8.5 -53t-1 -49 q0 -32 4 -63.5t10 -63.5q-17 -21 -37.5 -39.5t-44 -33t-50 -23t-54.5 -8.5q-32 0 -60.5 10.5t-49.5 30t-33.5 46.5t-12.5 60q0 62 24.5 108t64 78t91 52.5t105.5 31.5q7 2 18 4.5t21.5 7t18 10.5t7.5 15q0 11 -5.5 17t-13.5 9t-17 4t-17 1q-48 0 -99 -10.5t-99 -31 t-90.5 -50.5t-74.5 -68.5t-50.5 -85t-18.5 -100.5q0 -55 17.5 -102t50 -80.5t78.5 -52.5t102 -19q80 0 147 34.5t117 96.5q16 -22 33 -42t36.5 -35t43 -23.5t53.5 -8.5q34 0 63 11.5t53 31.5t43 46.5t31 56.5q6 17 11 34t5 36z" />
<glyph unicode="&#xab;" horiz-adv-x="727" d="M666 840q0 9 -3 24t-9.5 30t-16 25.5t-21.5 10.5q-2 0 -11 -6l-20 -12q-11 -7 -20.5 -14t-13.5 -9l-73 -47q-40 -25 -73 -57.5t-55 -71t-22 -84.5q0 -17 13 -39.5t33.5 -46.5t46 -48.5t51.5 -46.5l47 -40l36 -27q2 -1 9 -7l16 -11q8 -6 15.5 -10.5t10.5 -4.5 q10 0 19.5 5.5t17 13.5t12 18.5t4.5 20.5q0 15 -17.5 32.5t-43.5 36t-56.5 38t-56.5 38t-43.5 35t-17.5 30.5q0 8 14 22t36 31t48 35l52 35l44 31q20 13 29 21q11 11 15 23t4 26zM393 406q0 15 -14.5 34t-36 40.5t-46.5 43.5t-46.5 43t-36 39.5t-14.5 32.5q0 13 10.5 30 t27 35t36.5 36l39 35l35 29l24 21q20 21 20 49q0 9 -2 19t-6.5 18.5t-12.5 13.5t-20 5q-2 0 -11 -6l-20 -12q-11 -7 -20.5 -14t-13.5 -9l-73 -47q-40 -25 -73.5 -57.5t-55.5 -71t-22 -84.5q0 -17 13 -39.5t33.5 -46.5t46.5 -49l51 -46q25 -22 47.5 -39.5t36.5 -27.5 q2 -1 9 -7l16 -11q8 -6 15.5 -10.5t10.5 -4.5q10 0 19.5 5.5t17 13.5t12 18.5t4.5 20.5z" />
<glyph unicode="&#xac;" horiz-adv-x="205" />
<glyph unicode="&#xad;" horiz-adv-x="981" d="M920 721q1 15 -17 32.5t-42.5 32.5t-49.5 25t-39 10q-32 0 -81 -7t-106 -18l-117 -22l-113 -22q-53 -11 -95 -18t-63 -7q-23 0 -44 6t-44 6h-3q-6 1 -14 -5.5t-14.5 -16.5t-11.5 -20.5t-5 -18.5q0 -20 11 -39t28.5 -34t38 -24.5t39.5 -9.5q41 0 81 6.5t83 16.5l90 20 q48 10 105 17q58 7 109 11.5t92 8.5t70 8t44 9q32 9 50 20t18 33z" />
<glyph unicode="&#xae;" horiz-adv-x="846" d="M618 997q0 30 -11.5 51.5t-30 36t-43.5 21t-52 6.5q-24 0 -45.5 -8t-40 -21.5t-34 -31.5t-27.5 -37q-2 9 -4 22.5t-6 26.5t-11.5 22t-21.5 9q-9 0 -18 -5t-9 -16q0 -34 5 -68t7 -69q2 -31 2.5 -62t0.5 -63q0 -12 -1.5 -24t-1.5 -23q0 -41 41 -41q8 0 17.5 4.5t9.5 15.5 q0 22 1 53.5t5 66.5t12.5 70t22.5 63t35.5 45.5t52.5 17.5q32 0 51 -21t19 -53q0 -24 -12 -42t-30.5 -30t-40.5 -19.5t-42 -12.5q-11 -3 -21.5 -4t-19.5 -5q-12 -3 -12 -18q0 -10 8 -18q7 -7 22 -19.5t35 -27.5l42 -31q22 -15 42.5 -27.5t36 -20.5t22.5 -8q16 0 22.5 13.5 t6.5 25.5q0 9 -20.5 23.5t-46.5 30t-51 28.5t-33 19q30 8 59.5 19.5t53.5 29.5t39 44t15 62zM786 895q0 29 -4 62t-12.5 66t-21 64t-29.5 54q-9 12 -22.5 25.5t-30.5 13.5q-8 0 -14.5 -3.5t-6.5 -11.5l27 -69q11 -32 19 -62.5t12 -63.5t4 -75q0 -60 -21.5 -112.5t-60 -91 t-90 -61t-111.5 -22.5q-61 0 -111.5 18t-86.5 52t-56 83t-20 111t22 127t61.5 118t95.5 86.5t124 33.5q24 0 39.5 -6t28 -12.5t25.5 -12.5t32 -6q8 0 18 2t18.5 6.5t14.5 11.5t6 17q0 21 -17.5 36.5t-41.5 25t-50 14t-43 4.5q-86 0 -162.5 -40t-134.5 -104.5t-91.5 -146 t-33.5 -164.5q0 -75 26.5 -138t73.5 -109t110.5 -71.5t138.5 -25.5q79 0 147.5 29t119.5 80t80 120t29 148z" />
<glyph unicode="&#xaf;" horiz-adv-x="1376" d="M893 1335q0 9 -8.5 20t-20.5 20.5t-25 15.5t-22 6q-33 0 -65.5 -6t-64.5 -13.5t-64 -13.5t-64 -6q-12 0 -23.5 5t-23.5 5q-4 0 -9 -9t-9.5 -20.5t-7.5 -22t-3 -13.5q0 -9 4.5 -19t11 -19t15 -15.5t16.5 -8.5q7 -2 12 -2h11q40 0 78.5 11t79.5 14q11 1 32 1.5t43.5 2 t42.5 3.5t27 5q14 6 25.5 25t11.5 34z" />
<glyph unicode="&#xb0;" horiz-adv-x="520" d="M459 1260q0 40 -15 73.5t-41 57.5t-60 37.5t-73 13.5q-44 0 -82.5 -15.5t-66.5 -43t-44 -65.5t-16 -83q0 -39 15 -71t40.5 -54.5t59.5 -34.5t72 -12q41 0 79.5 15t67.5 41t46.5 62.5t17.5 78.5zM371 1262q0 -23 -10 -41t-26.5 -30t-37 -18t-41.5 -6q-17 0 -34 5.5 t-31 15.5t-22.5 25t-8.5 34q0 22 8 41.5t22 34.5t33 24t41 9q45 0 76 -23t31 -71z" />
<glyph unicode="&#xb1;" horiz-adv-x="205" />
<glyph unicode="&#xb2;" horiz-adv-x="535" d="M473 705q0 22 -10 34.5t-25 19t-32.5 8t-32.5 1.5q-25 0 -62 -2t-71 -2q-16 0 -29.5 0.5t-24.5 3.5q44 41 94 95.5t92.5 116t70.5 126t28 125.5q0 46 -16.5 85.5t-45 69t-68 46t-85.5 16.5q-39 0 -74.5 -10.5t-62 -31.5t-42.5 -52.5t-16 -73.5q0 -24 11 -51t29.5 -49.5 t43 -37.5t50.5 -14q14 0 24 9t10 24q0 25 -13 38t-28 24.5t-28 25t-13 39.5q0 45 30.5 67.5t70.5 22.5q35 0 57.5 -13.5t36.5 -35.5t20 -50t7 -56q0 -48 -25 -103t-61 -108.5t-76 -101.5l-70 -83l-33 -37l-20 -24q-7 -10 -9.5 -16.5t-2.5 -12.5q0 -23 8 -36.5t21 -20 t29.5 -8.5t33.5 -2h26h52h64q35 0 64 0.5t48.5 0.5t19.5 1q14 2 24.5 10.5t10.5 22.5z" />
<glyph unicode="&#xb3;" horiz-adv-x="494" d="M434 903q0 45 -17 77.5t-42.5 55t-56 37t-58.5 23.5q27 7 50 24.5t39.5 41.5t26 51.5t9.5 54.5q0 43 -16 76t-43 55.5t-63.5 34.5t-78.5 12q-11 0 -22.5 -1t-24.5 -3q-15 -3 -30 -14.5t-15 -32.5q0 -22 13.5 -32.5t31.5 -10.5q10 0 19 2t18 2q20 0 41.5 -6t39 -17t29 -28 t11.5 -39q0 -32 -10.5 -54t-27 -37t-35.5 -25l-38 -17q-23 -10 -38 -20.5t-15 -27.5q0 -7 6 -12.5t14.5 -9.5t17.5 -6t15 -4q23 -6 49.5 -14t49 -24t38 -43t15.5 -71q0 -31 -12 -56.5t-33 -44.5t-50.5 -29.5t-64.5 -10.5q-17 0 -33.5 4t-33.5 4q-20 0 -34 -12.5t-14 -32.5 q0 -4 2.5 -13t12.5 -17t28.5 -14.5t49.5 -6.5q55 0 105.5 13.5t89.5 41.5t62 71.5t23 104.5z" />
<glyph unicode="&#xb4;" horiz-adv-x="1376" d="M852 1350v-8q0 -4 -2 -9q-4 -9 -24 -26.5t-49 -38t-63 -41.5l-64 -39q-30 -17 -53.5 -28t-31.5 -11q-14 0 -27.5 12.5t-13.5 26.5q0 9 16.5 31t41.5 49.5t56 57t59.5 54t52 40.5t34.5 16t23 -10t22 -23.5t16.5 -28t6.5 -24.5z" />
<glyph unicode="&#xb5;" horiz-adv-x="567" d="M659 172q0 11 -8 23t-20 12q-6 0 -21 -11l-37 -28l-51 -37q-29 -20 -63.5 -36.5t-74.5 -28t-83 -11.5q-15 0 -34 3t-36 10t-29 19t-12 30q0 20 12 35t30 28t39 26t39 28t30 34t12 45q0 23 -14.5 36t-36.5 21.5t-47 13.5t-47 11t-36.5 14.5t-14.5 24.5q0 18 25.5 39 t59.5 39t67.5 29.5t49.5 11.5q6 0 14.5 -0.5t16 -3t12.5 -7.5t5 -14q0 -11 -8.5 -23.5t-8.5 -23.5q0 -20 18.5 -33.5t36.5 -13.5q39 0 65 26.5t26 63.5q0 31 -11.5 52t-30.5 34t-44 19t-52 6q-24 0 -62.5 -7.5t-83 -21.5t-89 -33t-81 -43t-59 -51t-22.5 -57q0 -25 16 -40.5 t39.5 -25.5t51 -15.5t51 -11.5t39.5 -13t16 -19q0 -11 -12.5 -22t-32.5 -23l-41 -26q-22 -14 -41.5 -32t-32 -40.5t-12.5 -51.5q0 -44 21.5 -72.5t54.5 -44.5t72.5 -22t74.5 -6q78 0 151.5 27t135.5 73q8 6 25 21l36 34q19 18 33 35t14 25z" />
<glyph unicode="&#xb6;" horiz-adv-x="1550" d="M1489 1124q0 66 -37.5 116t-98 87t-136 62t-152 40.5t-146.5 22t-118 6.5q-65 0 -145 -9t-162.5 -30t-160 -54t-138 -82t-97.5 -114t-37 -149q0 -83 28 -149.5t76 -117.5t111.5 -88.5t134.5 -64t145 -43.5t142 -27q1 -20 3 -64t6 -100t9 -117t10.5 -114t11 -91.5 t10.5 -49.5q8 -17 14 -25t26 -8q32 0 43 15t11 44q0 55 -3 109.5t-7 109t-7 109.5q-2 40 -2 82v27v59q62 -6 121 -6q13 0 23.5 1.5t21.5 10.5q1 -20 3.5 -64t6.5 -98l9 -115q4 -60 9 -112t10.5 -90t10.5 -49q8 -17 14.5 -25t26.5 -8q32 0 43 15t11 44q0 42 -3 83l-6 81 q-3 72 -6.5 143t-3.5 142q0 80 4 159.5t12 157.5q37 11 77.5 28t80.5 40.5t76.5 52.5t64 62.5t44 72.5t16.5 82zM1315 1139q0 -38 -14 -70.5t-38 -58.5t-54.5 -45t-63.5 -31q5 46 8.5 92t3.5 92q0 6 -0.5 18.5t-3.5 18.5q-8 16 -27 28.5t-36 12.5q-27 0 -45 -28t-30 -71 t-18.5 -95.5t-9.5 -102.5t-3.5 -90t-0.5 -59q0 -108 6 -215q-9 7 -31 13t-47 10l-49 9q-24 4 -37 6q3 85 10 169t15 167l10 107q4 52 4 104q0 6 0.5 18t-2.5 17q-9 16 -28 28.5t-37 12.5q-27 0 -45 -28.5t-29.5 -72.5t-18 -98t-9 -104.5t-3 -91.5t-0.5 -60v-71q0 -35 2 -70 q-83 19 -165 49t-147 78t-105.5 118t-40.5 169q0 70 28 124t74.5 95.5t107 70t126 46.5t130.5 26t121 8q36 0 86 -5t104.5 -16.5t108.5 -30t97 -45.5t69.5 -63.5t26.5 -84.5z" />
<glyph unicode="&#xb7;" horiz-adv-x="387" d="M326 715q0 16 -6 35.5t-19.5 36t-34.5 27.5t-51 11q-45 0 -75 -14t-47.5 -35t-24.5 -45t-7 -43q0 -17 8.5 -39.5t25 -43t39.5 -34.5t52 -14q31 0 56.5 17t44 42t29 52t10.5 47z" />
<glyph unicode="&#xb8;" horiz-adv-x="1376" d="M920 -229q0 42 -14.5 73.5t-39.5 52.5t-59.5 31.5t-73.5 10.5q-24 0 -47 -5l7 17l10 25l9 24q5 11 5 14q0 17 -11.5 23t-25.5 6h-21q-4 0 -20.5 -23t-34.5 -53t-32.5 -58t-14.5 -38q0 -25 17 -36t38 -11q25 0 49.5 6t49.5 6q15 0 31 -2t29 -8.5t21.5 -18t8.5 -30.5 q0 -32 -20 -49t-49 -25.5t-60 -10t-54 -1.5q-35 0 -69.5 3t-69.5 3q-15 0 -18.5 -11.5t-3.5 -23.5v-18q9 -11 41 -20.5t69.5 -17t73 -12t51.5 -4.5q44 0 85 9.5t73 31t51 56t19 84.5z" />
<glyph unicode="&#xb9;" horiz-adv-x="231" d="M170 1378q0 22 -10.5 42.5t-36.5 23.5q-17 0 -25 -10q-14 -11 -21.5 -45.5t-11 -76t-4 -82t-0.5 -63.5q0 -70 3.5 -147t8 -144.5t9.5 -118t8 -67.5q2 -8 10.5 -20.5t28.5 -12.5q12 0 19 6.5t10 16t3.5 21t0.5 20.5q0 80 -4 160.5t-4 160.5q0 85 8 169t8 167z" />
<glyph unicode="&#xba;" horiz-adv-x="764" d="M733 1206q0 6 -3.5 17.5t-12.5 11.5q-1 0 -17 -13l-34 -32l-40 -34q-20 -16 -32 -21q-19 40 -49 70.5t-72 45.5q-10 12 -26.5 20t-35.5 12t-38.5 5.5t-34.5 1.5q-67 0 -123 -22.5t-97 -62.5t-64 -96t-23 -124q0 -57 22 -102.5t59 -78t86 -50t103 -17.5q62 0 118.5 21.5 t99.5 60t69 92t26 117.5v25q15 8 35 26t39 40.5t32 45.5t13 41zM520 1036q0 -43 -16.5 -76.5t-44 -57t-64.5 -36t-78 -12.5q-32 0 -64 10.5t-57.5 30t-41 47t-15.5 62.5q0 39 15 75t40.5 63t60 43.5t73.5 16.5q26 0 51.5 -4.5t50.5 -15.5q-6 -11 -8 -21.5t-2 -21.5 q0 -42 30 -69.5t70 -33.5z" />
<glyph unicode="&#xbb;" horiz-adv-x="727" d="M666 629q0 46 -22 84.5t-55 71t-73 57.5l-74 47q-4 2 -13.5 9t-20.5 14l-20 12q-9 6 -11 6q-23 0 -32 -18.5t-9 -37.5q0 -28 20 -49l42 -34q28 -23 57 -50t51 -54.5t22 -47.5q0 -14 -14.5 -32.5t-36 -39.5t-46.5 -43t-46.5 -43.5t-36 -40.5t-14.5 -34q0 -10 5 -20.5 t12.5 -18.5t17 -13.5t18.5 -5.5q3 0 10.5 4.5t16 10.5t15.5 11.5t9 6.5q14 10 36.5 27.5t47.5 39.5l51 46q26 25 46.5 49t33.5 46.5t13 39.5zM399 629q0 46 -22 84.5t-55 71t-72 57.5l-74 47q-4 2 -13.5 9t-20.5 14l-20 12q-9 6 -11 6q-12 0 -21 -10.5t-15.5 -25.5t-10 -30 t-3.5 -24q0 -28 21 -49q8 -8 28 -21l44 -31l51 -35q26 -18 48 -35t36 -31t14 -22q0 -14 -17.5 -30.5t-43.5 -35t-56.5 -38t-56.5 -38t-43.5 -36t-17.5 -32.5q0 -10 5 -20.5t12.5 -18.5t17 -13.5t18.5 -5.5q3 0 10.5 4.5t16 10.5t15.5 11.5t9 6.5l36 27l48 40l50.5 46.5 t46 48.5t33.5 46.5t13 39.5z" />
<glyph unicode="&#xbc;" horiz-adv-x="956" d="M186 1378q0 22 -11 42.5t-36 23.5q-9 0 -14.5 -2t-11.5 -8q-13 -11 -20.5 -45.5t-11 -76t-4.5 -82t-1 -63.5q0 -46 1.5 -96.5t4 -100t5.5 -95t6.5 -83t7 -64.5t5.5 -38q1 -4 3.5 -9.5t6.5 -10.5t10.5 -9t16.5 -4q13 0 20 6.5t10.5 16t4 21t0.5 20.5q0 80 -4 160.5 t-4 160.5q0 85 8 169t8 167zM713 1331q0 9 -3.5 22t-9.5 24.5t-14.5 19.5t-19.5 8q-32 0 -77.5 -73t-117.5 -228l-64 -143l-66 -159l-65 -168l-62 -164l-54 -154l-46 -131l-33 -101q-13 -41 -18 -59q-2 -7 -2 -11v-10q0 -14 10 -27.5t25 -13.5q8 0 17 5t20 24q7 12 21 46 l35 84l45 113l52 133l56 144l59 143l69 159l70 147l65 131l55 110l38 80q14 32 15 45v4zM895 293q0 8 -6.5 17.5t-15.5 18.5t-18.5 15.5t-16.5 7.5q-3 0 -7.5 1t-9.5 3v27q0 54 4 106.5t9 106.5q2 31 3 51.5t1 34.5q0 23 -11 43t-39 20q-20 0 -31.5 -26t-17.5 -63t-8 -78 t-2 -70v-80q0 -40 2 -80q-45 -5 -93.5 -9.5t-94.5 -4.5q15 34 33 79t33.5 93t26.5 95t11 85q0 26 -10.5 38.5t-38.5 12.5q-12 0 -19 -3t-11 -9t-6.5 -14.5t-4.5 -18.5q-3 -15 -7 -38t-10 -50t-14 -56.5t-18 -58.5q-3 -10 -12 -37l-18 -56q-9 -30 -16 -57t-7 -38t6 -21.5 t14.5 -19t17.5 -14t15 -6.5q5 -2 9 -2h9q53 0 105 8t106 8q2 -43 4.5 -82.5t5 -71.5t5.5 -55.5t4 -34.5q3 -8 11 -19t28 -11q11 0 18 5.5t10.5 14t4.5 18.5t1 19q0 54 -2.5 108.5t-5.5 108.5q17 2 27 2h14q13 6 23 13.5t10 23.5z" />
<glyph unicode="&#xbd;" horiz-adv-x="987" d="M186 1378q0 22 -11 42.5t-36 23.5q-9 0 -14.5 -2t-11.5 -8q-13 -11 -20.5 -45.5t-11 -76t-4.5 -82t-1 -63.5q0 -46 1.5 -96.5t4 -100t5.5 -95t6.5 -83t7 -64.5t5.5 -38q1 -4 3.5 -9.5t6.5 -10.5t10.5 -9t16.5 -4q13 0 20 6.5t10.5 16t4 21t0.5 20.5q0 80 -4 160.5 t-4 160.5q0 85 8 169t8 167zM926 16q0 23 -10 35.5t-25 19t-33 8t-33 1.5q-24 0 -61.5 -2t-71.5 -2h-28q-14 0 -25 2q44 41 94 95.5t92.5 116.5t70.5 126.5t28 124.5q0 46 -16.5 85.5t-45.5 69t-68 46t-85 16.5q-39 0 -74.5 -10.5t-62.5 -31.5t-42.5 -52.5t-15.5 -73.5 q0 -24 11 -50.5t29.5 -49t42.5 -37.5t50 -15q14 0 24.5 9.5t10.5 23.5v2q0 24 -13 37t-28 24.5t-28 25.5t-13 40q0 44 30 66t70 22q35 1 58 -12.5t36.5 -35.5t19.5 -50.5t7 -57.5q0 -31 -11.5 -66t-30.5 -71t-43.5 -72t-49.5 -69l-51 -62l-45 -53q-20 -22 -32.5 -37 t-20 -25.5t-10.5 -17.5t-3 -12q0 -22 8 -35t21 -19.5t29.5 -8.5t33.5 -2h275q14 3 24.5 11t10.5 23zM713 1331q0 9 -3.5 22t-9.5 24.5t-14.5 19.5t-19.5 8q-32 0 -77.5 -73t-117.5 -228q-41 -87 -86 -194l-88 -219l-83 -221l-70 -200l-54 -156q-21 -65 -27 -89q-2 -7 -2 -11 v-10q0 -14 10 -27.5t25 -13.5q8 0 17 5t20 24q7 12 21 46l35 84l45 113l52 133l56 144l59 143l69 159l70 147l65 131l55 110l38 80q14 32 15 45v4z" />
<glyph unicode="&#xbe;" horiz-adv-x="1118" d="M434 903q0 45 -17 77.5t-42.5 55t-56 37t-58.5 23.5q27 7 50 24.5t39.5 41.5t26 51.5t9.5 54.5q0 43 -16 76t-43 55.5t-63.5 34.5t-78.5 12q-11 0 -22.5 -1t-24.5 -3q-15 -3 -30 -14.5t-15 -32.5q0 -22 13.5 -32.5t31.5 -10.5q10 0 19 2t18 2q20 0 41.5 -6t39 -17t29 -28 t11.5 -39q0 -32 -10.5 -54t-27 -37t-35.5 -25l-38 -17q-23 -10 -38 -20.5t-15 -27.5q0 -7 6 -12.5t14.5 -9.5t17.5 -6t15 -4q23 -6 49.5 -14t49 -24t38 -43t15.5 -71q0 -31 -12 -56.5t-33 -44.5t-50.5 -29.5t-64.5 -10.5q-17 0 -33.5 4t-33.5 4q-20 0 -34 -12.5t-14 -32.5 q0 -4 2.5 -13t12.5 -17t28.5 -14.5t49.5 -6.5q55 0 105.5 13.5t89.5 41.5t62 71.5t23 104.5zM879 1331q0 9 -3 22t-9 24.5t-15 19.5t-21 8q-30 0 -76 -72.5t-118 -228.5l-64 -143l-66 -159l-65 -168l-62 -164l-54 -154l-46 -131l-33 -101q-13 -41 -18 -59q0 -7 -1 -11.5 t-1 -9.5q0 -14 10 -27.5t25 -13.5q8 0 18 5t19 24q7 12 21 46l35 84l45 113l52 133l56 144l59 143q33 81 69 159l70 147l64 131l54 110l38 80q15 32 17 45v4zM1057 293q0 8 -6.5 18t-15.5 19t-19 15t-17 7q-6 0 -14 4v27q0 54 2.5 107t7.5 106q3 31 4.5 52t1.5 36 q0 22 -11.5 41.5t-37.5 19.5q-21 0 -33 -26t-18 -63t-8 -78t-2 -70v-80q0 -40 2 -80q-45 -3 -93.5 -8.5t-94.5 -5.5l32 79q18 45 34 93t27 95t11 85q0 26 -10.5 39.5t-36.5 13.5q-25 0 -31.5 -13.5t-9.5 -33.5l-7 -38q-5 -23 -12 -50l-14 -56q-7 -30 -16 -59q-3 -10 -12 -36 l-19 -56q-10 -30 -17.5 -57t-7.5 -39q0 -11 6 -21.5t15 -19t18.5 -14t16.5 -6.5q3 0 7 -1t9 -1q53 0 105.5 8t105.5 8l4 -82q2 -40 5 -72t6 -55t6 -33q2 -9 9 -20.5t27 -11.5q12 0 18.5 5.5t10.5 14t5 18.5t1 19q0 54 -2 109l-4 108q16 2 25 2t14 2q12 5 22.5 12t10.5 23z " />
<glyph unicode="&#xbf;" horiz-adv-x="891" d="M61 340q0 51 14 94t36.5 82t52.5 74l61 72l65 75q32 38 57 81t40.5 92.5t15.5 107.5q0 8 -1 14t-1 12q0 13 8 20t19 7q13 0 29 -7.5t30 -19.5t23.5 -26.5t9.5 -28.5q0 -43 -11 -79t-30 -68t-43 -62l-51 -59q-39 -44 -70 -83.5t-53 -81.5t-33.5 -91t-11.5 -111v-8 q0 -60 13 -114q15 -59 46.5 -103t81.5 -70t121 -26q48 0 90 13.5t73.5 40t50 65t18.5 88.5q0 52 -22.5 93.5t-72.5 61.5q-10 3 -22 17t-23 32t-18.5 36t-7.5 28q0 18 15.5 28.5t31.5 10.5q12 0 27 -5t31.5 -13t34 -19.5t32.5 -24.5q52 -43 82 -102t30 -127q0 -78 -29.5 -137 t-79.5 -98t-116 -58.5t-139 -19.5q-91 0 -165.5 27.5t-127.5 79.5t-82 125.5t-29 164.5zM328 1307q0 19 10 45.5t28.5 51t44 41.5t56.5 17q29 0 52.5 -14t39.5 -34.5t24.5 -43t8.5 -39.5q0 -19 -7 -43t-24 -45t-47 -35t-76 -14q-30 0 -51 11.5t-34 28.5t-19 36.5t-6 36.5z " />
<glyph unicode="&#xc0;" horiz-adv-x="1321" d="M1352 377q0 9 -18 24t-42.5 29.5t-51 25t-44.5 11.5h-20q-20 0 -46.5 -1t-58.5 -3l-73 195l-71 196l-74 196q-38 98 -81 193q-21 49 -38.5 81t-32 51t-26 26.5t-20.5 7.5t-17.5 3t-19.5 3q-18 0 -28.5 -10t-16.5 -24.5t-9.5 -31t-8.5 -30.5q-78 -233 -172 -459l-195 -452 h-22h-21q-13 0 -29.5 2t-33 5t-32.5 5t-27 2q-7 1 -16.5 -4.5t-17.5 -13.5t-14 -16.5t-6 -14.5v-2q0 -15 17 -31.5t40 -30t47 -22t38 -8.5h20l-47 -109q-23 -52 -39 -92.5t-25.5 -67t-9.5 -35.5v-2q-2 -15 9.5 -22.5t25.5 -7.5q11 0 24.5 3.5t22.5 14.5q13 17 31.5 47.5 t40.5 72.5l49 93l53 109q57 3 120 7l126 8l120 9q59 4 107 8q56 5 124 7t136 2l53 -116l49 -102l42 -84q19 -38 33 -61q12 -18 30 -25.5t29 -7.5t15.5 11.5t4.5 19.5l-2 4q0 13 -11 48.5t-30 84.5l-41 110l-47 122q57 0 96.5 2.5t53.5 5.5q35 6 55.5 15t22.5 26zM940 455 q-70 -4 -150 -9.5t-161 -10.5l-157 -10l-142 -9l90 194q46 99 88 201.5t79 205.5t64 204q65 -196 137 -385zM771 1577q0 -14 -13.5 -26.5t-27.5 -12.5q-8 0 -31.5 11t-53.5 28l-64 39q-34 21 -63 41.5t-49 38t-24 26.5q-2 5 -2 9v8q0 10 6.5 24.5t16.5 28t22 23.5t23 10 t34.5 -16t52 -40.5t59.5 -54t56 -57t41.5 -49.5t16.5 -31z" />
<glyph unicode="&#xc1;" horiz-adv-x="1321" d="M1352 377q0 9 -18 24t-42.5 29.5t-51 25t-44.5 11.5h-20q-20 0 -46.5 -1t-58.5 -3l-73 195l-71 196l-74 196q-38 98 -81 193q-21 49 -38.5 81t-32 51t-26 26.5t-20.5 7.5t-17.5 3t-19.5 3q-18 0 -28.5 -10t-16.5 -24.5t-9.5 -31t-8.5 -30.5q-78 -233 -172 -459l-195 -452 h-22h-21q-13 0 -29.5 2t-33 5t-32.5 5t-27 2q-7 1 -16.5 -4.5t-17.5 -13.5t-14 -16.5t-6 -14.5v-2q0 -15 17 -31.5t40 -30t47 -22t38 -8.5h20l-47 -109q-23 -52 -39 -92.5t-25.5 -67t-9.5 -35.5v-2q-2 -15 9.5 -22.5t25.5 -7.5q11 0 24.5 3.5t22.5 14.5q13 17 31.5 47.5 t40.5 72.5l49 93l53 109q57 3 120 7l126 8l120 9q59 4 107 8q56 5 124 7t136 2l53 -116l49 -102l42 -84q19 -38 33 -61q12 -18 30 -25.5t29 -7.5t15.5 11.5t4.5 19.5l-2 4q0 13 -11 48.5t-30 84.5l-41 110l-47 122q57 0 96.5 2.5t53.5 5.5q35 6 55.5 15t22.5 26zM940 455 q-70 -4 -150 -9.5t-161 -10.5l-157 -10l-142 -9l90 194q46 99 88 201.5t79 205.5t64 204q65 -196 137 -385zM833 1739v-8q0 -4 -2 -9q-4 -9 -24 -26.5t-49 -38t-63 -41.5l-64 -39q-30 -17 -53.5 -28t-31.5 -11q-14 0 -27.5 12.5t-13.5 26.5q0 9 16.5 31t41.5 49.5t56 57 t59.5 54t52 40.5t34.5 16t23 -10t22 -23.5t16.5 -28t6.5 -24.5z" />
<glyph unicode="&#xc2;" horiz-adv-x="1321" d="M1352 377q0 9 -18 24t-42.5 29.5t-51 25t-44.5 11.5h-20q-20 0 -46.5 -1t-58.5 -3l-73 195l-71 196l-74 196q-38 98 -81 193q-21 49 -38.5 81t-32 51t-26 26.5t-20.5 7.5t-17.5 3t-19.5 3q-18 0 -28.5 -10t-16.5 -24.5t-9.5 -31t-8.5 -30.5q-78 -233 -172 -459l-195 -452 h-22h-21q-13 0 -29.5 2t-33 5t-32.5 5t-27 2q-7 1 -16.5 -4.5t-17.5 -13.5t-14 -16.5t-6 -14.5v-2q0 -15 17 -31.5t40 -30t47 -22t38 -8.5h20l-47 -109q-23 -52 -39 -92.5t-25.5 -67t-9.5 -35.5v-2q-2 -15 9.5 -22.5t25.5 -7.5q11 0 24.5 3.5t22.5 14.5q13 17 31.5 47.5 t40.5 72.5l49 93l53 109q57 3 120 7l126 8l120 9q59 4 107 8q56 5 124 7t136 2l53 -116l49 -102l42 -84q19 -38 33 -61q12 -18 30 -25.5t29 -7.5t15.5 11.5t4.5 19.5l-2 4q0 13 -11 48.5t-30 84.5l-41 110l-47 122q57 0 96.5 2.5t53.5 5.5q35 6 55.5 15t22.5 26zM940 455 q-70 -4 -150 -9.5t-161 -10.5l-157 -10l-142 -9l90 194q46 99 88 201.5t79 205.5t64 204q65 -196 137 -385zM873 1534q0 2 -4 11l-9 20l-10 19q-5 9 -7 12q-15 29 -34.5 63.5t-45 65t-56 51t-67.5 20.5q-15 0 -36.5 -16.5t-46 -42t-48.5 -56t-43 -58t-31 -49.5t-12 -29 q0 -17 14 -33.5t33 -16.5q12 0 25.5 16t28 39.5t29.5 50.5l29 52q13 23 25.5 39t22.5 16q4 0 14 -13t23.5 -33l28.5 -44l28 -46l24 -39q10 -17 15 -23q15 -19 39 -19q8 0 20.5 3.5t23.5 9t19 13.5t8 17z" />
<glyph unicode="&#xc3;" horiz-adv-x="1321" d="M1352 377q0 9 -18 24t-42.5 29.5t-51 25t-44.5 11.5h-20q-20 0 -46.5 -1t-58.5 -3l-73 195l-71 196l-74 196q-38 98 -81 193q-21 49 -38.5 81t-32 51t-26 26.5t-20.5 7.5t-17.5 3t-19.5 3q-18 0 -28.5 -10t-16.5 -24.5t-9.5 -31t-8.5 -30.5q-78 -233 -172 -459l-195 -452 h-22h-21q-13 0 -29.5 2t-33 5t-32.5 5t-27 2q-7 1 -16.5 -4.5t-17.5 -13.5t-14 -16.5t-6 -14.5v-2q0 -15 17 -31.5t40 -30t47 -22t38 -8.5h20l-47 -109q-23 -52 -39 -92.5t-25.5 -67t-9.5 -35.5v-2q-2 -15 9.5 -22.5t25.5 -7.5q11 0 24.5 3.5t22.5 14.5q13 17 31.5 47.5 t40.5 72.5l49 93l53 109q57 3 120 7l126 8l120 9q59 4 107 8q56 5 124 7t136 2l53 -116l49 -102l42 -84q19 -38 33 -61q12 -18 30 -25.5t29 -7.5t15.5 11.5t4.5 19.5l-2 4q0 13 -11 48.5t-30 84.5l-41 110l-47 122q57 0 96.5 2.5t53.5 5.5q35 6 55.5 15t22.5 26zM940 455 q-70 -4 -150 -9.5t-161 -10.5l-157 -10l-142 -9l90 194q46 99 88 201.5t79 205.5t64 204q65 -196 137 -385zM851 1650q0 6 -3.5 14.5t-9.5 17t-13 14.5t-13 6q-7 0 -16.5 -9t-20 -20t-22.5 -20t-25 -9q-21 0 -43.5 13t-45.5 28t-46.5 28t-48.5 13q-8 0 -12 -2 q-16 -3 -38 -18t-41.5 -34.5t-33.5 -40t-14 -34.5q0 -5 4.5 -13.5t11 -17t14 -14.5t13.5 -6q8 0 16 9l18 20q10 10 21 19t23 9q18 0 38 -13l42 -28q23 -15 48.5 -28t53.5 -13q5 0 8 0.5t8 2.5q16 2 38 17t41.5 34.5t33.5 40.5t14 34z" />
<glyph unicode="&#xc4;" horiz-adv-x="1321" d="M1352 377q0 9 -18 24t-42.5 29.5t-51 25t-44.5 11.5h-20q-20 0 -46.5 -1t-58.5 -3l-73 195l-71 196l-74 196q-38 98 -81 193q-21 49 -38.5 81t-32 51t-26 26.5t-20.5 7.5t-17.5 3t-19.5 3q-18 0 -28.5 -10t-16.5 -24.5t-9.5 -31t-8.5 -30.5q-78 -233 -172 -459l-195 -452 h-22h-21q-13 0 -29.5 2t-33 5t-32.5 5t-27 2q-7 1 -16.5 -4.5t-17.5 -13.5t-14 -16.5t-6 -14.5v-2q0 -15 17 -31.5t40 -30t47 -22t38 -8.5h20l-47 -109q-23 -52 -39 -92.5t-25.5 -67t-9.5 -35.5v-2q-2 -15 9.5 -22.5t25.5 -7.5q11 0 24.5 3.5t22.5 14.5q13 17 31.5 47.5 t40.5 72.5l49 93l53 109q57 3 120 7l126 8l120 9q59 4 107 8q56 5 124 7t136 2l53 -116l49 -102l42 -84q19 -38 33 -61q12 -18 30 -25.5t29 -7.5t15.5 11.5t4.5 19.5l-2 4q0 13 -11 48.5t-30 84.5l-41 110l-47 122q57 0 96.5 2.5t53.5 5.5q35 6 55.5 15t22.5 26zM940 455 q-70 -4 -150 -9.5t-161 -10.5l-157 -10l-142 -9l90 194q46 99 88 201.5t79 205.5t64 204q65 -196 137 -385zM904 1669q0 15 -5.5 32.5t-17.5 32.5t-31 25t-46 10q-41 0 -67.5 -12.5t-42 -31.5t-21.5 -40t-6 -38q0 -15 8 -35.5t22.5 -39t35 -31.5t46.5 -13q27 0 50 15.5 t39.5 37.5t26 46t9.5 42zM618 1669q0 15 -5.5 32.5t-18 32.5t-31.5 25t-46 10q-40 0 -66.5 -12.5t-42.5 -31.5t-22 -40t-6 -38q0 -15 8 -35.5t22.5 -39t35.5 -31.5t47 -13q27 0 49.5 15.5t39.5 37.5t26.5 46t9.5 42z" />
<glyph unicode="&#xc5;" horiz-adv-x="1321" d="M1352 377q0 9 -18 24t-42.5 29.5t-51 25t-44.5 11.5h-20q-20 0 -46.5 -1t-58.5 -3l-73 195l-71 196l-74 196q-38 98 -81 193q-14 34 -27 59l-24 46q53 23 87 69.5t34 108.5q0 39 -15 72t-41 57t-60 37.5t-73 13.5q-44 0 -82.5 -15t-66.5 -42t-44 -65t-16 -83 q0 -60 32 -102.5t83 -59.5q0 -6 -1 -10.5t-3 -9.5q-78 -233 -172 -459l-195 -452h-22h-21q-13 0 -29.5 2t-33 5t-32.5 5t-27 2q-7 1 -16.5 -4.5t-17.5 -13.5t-14 -16.5t-6 -14.5v-2q0 -15 17 -31.5t40 -30t47 -22t38 -8.5h20l-47 -109q-23 -52 -39 -92.5t-25.5 -67 t-9.5 -35.5v-2q-2 -15 9.5 -22.5t25.5 -7.5q11 0 24.5 3.5t22.5 14.5q13 17 31.5 47.5t40.5 72.5l49 93l53 109q57 3 120 7l126 8l120 9q59 4 107 8q56 5 124 7t136 2l53 -116l49 -102l42 -84q19 -38 33 -61q12 -18 30 -25.5t29 -7.5t15.5 11.5t4.5 19.5l-2 4q0 13 -11 48.5 t-30 84.5l-41 110l-47 122q57 0 96.5 2.5t53.5 5.5q35 6 55.5 15t22.5 26zM754 1526q0 -23 -10 -40.5t-26.5 -29.5t-37 -18t-41.5 -6q-17 0 -34 5t-31 15t-22.5 25t-8.5 34q0 22 8 41.5t21.5 34.5t32.5 24t40 9q47 0 78 -23t31 -71zM940 455q-70 -4 -150 -9.5t-161 -10.5 l-157 -10l-142 -9l90 194q46 99 88 201.5t79 205.5t64 204q65 -196 137 -385z" />
<glyph unicode="&#xc6;" horiz-adv-x="2187" d="M2218 1155q0 62 -36.5 108t-95.5 79t-132.5 54.5t-147 34.5t-140.5 18t-112 5q-58 0 -134.5 -12t-157 -36.5t-158.5 -60.5t-139 -84.5t-98.5 -109t-37.5 -133.5q0 -92 39.5 -164.5t103 -126t142.5 -89.5t158 -56q-51 -23 -100 -52.5t-91 -66.5q-185 -11 -368.5 -24.5 t-370.5 -22.5l142 296q72 148 153 294l75 130l72 130l32 58q16 29 24 60q2 2 2 9q0 9 -3 23t-9.5 27t-16 22.5t-22.5 9.5q-23 0 -57.5 -39.5t-75.5 -105.5t-86 -152l-91 -179l-88 -186l-79 -173l-61 -142l-38 -90h-29q-34 0 -66.5 7t-66.5 7q-7 0 -16 -5.5t-17 -13t-14 -16 t-6 -14.5q0 -16 17 -33t40 -30.5t46.5 -22t37.5 -8.5h19l-17 -41l-25 -62l-27 -70l-25.5 -70t-19 -58t-7.5 -35q0 -17 10 -31t27 -14q14 0 23.5 8.5t17.5 19.5q20 26 34.5 60t28.5 63l52 117l51 115q174 9 346.5 24t349.5 19q-8 -20 -11 -41.5t-3 -42.5q0 -61 25 -108 t66.5 -81t95 -56.5t111 -36t114 -19t104.5 -5.5q84 0 170 13.5t168 42.5t155.5 74t132.5 108q6 5 15.5 16t19 23.5t16.5 25t7 19.5q0 8 -4 16.5t-15 8.5q-6 0 -15 -4t-18.5 -9.5t-18 -11.5t-13.5 -10q-75 -50 -148.5 -86t-150 -59.5t-158 -34.5t-172.5 -11q-31 0 -68 2 t-74 8.5t-71 18.5t-60.5 32.5t-42.5 51t-16 72.5q0 60 21 104.5t52 77t67 56.5l68 43q31 19 52 36t21 37q0 18 -30 33t-75.5 34t-98.5 46t-98.5 68t-75.5 100t-30 143q0 58 26 107t68.5 88.5t97.5 69t114 49.5t117 30t106 10q34 0 84.5 -2.5t107 -10t113 -21.5t101.5 -37.5 t73.5 -57.5t28.5 -82q0 -40 -14 -68t-36.5 -48.5t-51.5 -35.5l-62 -30q-13 -6 -33 -21t-38.5 -34t-32 -39t-13.5 -35q0 -9 7.5 -15.5t18 -10.5t22 -5.5t18.5 -1.5q37 0 81.5 13.5t89 37.5t86.5 56.5t74.5 70t52 78.5t19.5 82z" />
<glyph unicode="&#xc7;" horiz-adv-x="1425" d="M1425 428q0 9 -10 16t-18 9q-16 0 -26.5 -13.5t-27.5 -38.5q-57 -84 -120 -147.5t-137.5 -106t-161.5 -63.5t-191 -21q-113 0 -217 40t-183.5 112t-127 171t-47.5 216q0 90 26 180t72.5 173.5t111.5 155.5t143 125t166 83.5t181 30.5q39 0 77 -7.5t68 -25.5t48 -48.5 t18 -76.5q0 -21 -6.5 -40.5t-15 -35.5t-17.5 -28l-14 -17q-7 -7 -13.5 -20t-11 -29.5t-7.5 -34.5t-3 -33q0 -26 9.5 -38.5t37.5 -12.5q9 0 20.5 1.5t22.5 6.5q15 8 46 33.5t61.5 66t53.5 94.5t23 118q0 71 -38.5 113.5t-95.5 65t-122 29.5t-118 7q-109 0 -214 -32 t-199.5 -88.5t-174.5 -135t-138 -172t-91 -198.5t-33 -214q0 -153 50 -272t138.5 -202.5t208.5 -129.5t260 -53q-12 -17 -23 -35.5t-20 -35.5t-14.5 -30t-5.5 -18q0 -25 16 -36t39 -11q25 0 49 6t49 6q15 0 31 -2.5t29 -9t21.5 -18.5t8.5 -31q0 -32 -20 -49t-48.5 -24.5 t-60 -9t-53.5 -1.5q-35 0 -70 3t-69 3q-16 0 -19.5 -12t-3.5 -23v-19q6 -7 23 -13.5t39.5 -12.5t48.5 -11t50 -8.5t44 -5.5t31 -2q43 0 83.5 9.5t72.5 30.5t51.5 55.5t19.5 84.5q0 42 -14.5 73t-39.5 51.5t-59 31t-73 10.5h-25q-11 0 -22 -2l9 23l13 33q90 4 174.5 25 t159.5 61t138.5 99t111.5 138q18 29 30 56t20 49t11.5 37.5t3.5 21.5z" />
<glyph unicode="&#xc8;" horiz-adv-x="1360" d="M1391 1155q0 62 -37 108.5t-96.5 79.5t-134 54.5t-148 34t-139.5 17.5t-109 5q-60 0 -137 -12t-158 -36t-158.5 -60t-138.5 -84.5t-98 -109.5t-37 -134q0 -96 38.5 -168t101 -124.5t142 -87.5t160.5 -56q-51 -23 -105 -56t-99 -75.5t-74 -95t-29 -115.5q0 -61 25 -108 t67 -81t95.5 -56.5t111 -36t114 -19t103.5 -5.5q137 0 243 27t183 65t127.5 78.5t75.5 67.5q25 26 40 49.5t15 34.5q0 8 -4.5 16.5t-13.5 8.5q-11 0 -26 -10t-40 -25q-34 -23 -87.5 -56t-130.5 -63t-178.5 -51t-231.5 -21q-31 0 -67.5 2t-73 8t-70.5 18t-60.5 32.5t-42.5 51 t-16 73.5q0 58 19 101.5t48 75.5t63.5 56t65.5 43q38 22 60 39t22 39v2q0 19 -23 30.5t-65 28.5q-64 26 -121.5 56.5t-100 72.5t-67.5 99q-28 62 -28 139q0 56 24 103q26 49 69 88.5t98 69t114 49.5t116.5 30t104.5 10q33 0 83 -2t106.5 -9.5t113 -21.5t102 -37.5t74 -58.5 t29.5 -84q0 -44 -20 -76t-47 -53.5t-54.5 -33.5t-42.5 -17q-12 -4 -31.5 -19.5t-37.5 -35.5t-31.5 -40.5t-13.5 -33.5q2 -16 21 -24.5t42 -8.5q22 0 62 11.5t87 33.5t94.5 53t84.5 70q78 81 78 170zM852 1577q0 -14 -13.5 -26.5t-27.5 -12.5q-8 0 -31.5 11t-53.5 28l-64 39 q-34 21 -63 41.5t-49 38t-24 26.5q-2 5 -2 9v8q0 10 6.5 24.5t16.5 28t22 23.5t23 10t34.5 -16t52 -40.5t59.5 -54t56 -57t41.5 -49.5t16.5 -31z" />
<glyph unicode="&#xc9;" horiz-adv-x="1360" d="M1391 1155q0 62 -37 108.5t-96.5 79.5t-134 54.5t-148 34t-139.5 17.5t-109 5q-60 0 -137 -12t-158 -36t-158.5 -60t-138.5 -84.5t-98 -109.5t-37 -134q0 -96 38.5 -168t101 -124.5t142 -87.5t160.5 -56q-51 -23 -105 -56t-99 -75.5t-74 -95t-29 -115.5q0 -61 25 -108 t67 -81t95.5 -56.5t111 -36t114 -19t103.5 -5.5q137 0 243 27t183 65t127.5 78.5t75.5 67.5q25 26 40 49.5t15 34.5q0 8 -4.5 16.5t-13.5 8.5q-11 0 -26 -10t-40 -25q-34 -23 -87.5 -56t-130.5 -63t-178.5 -51t-231.5 -21q-31 0 -67.5 2t-73 8t-70.5 18t-60.5 32.5t-42.5 51 t-16 73.5q0 58 19 101.5t48 75.5t63.5 56t65.5 43q38 22 60 39t22 39v2q0 19 -23 30.5t-65 28.5q-64 26 -121.5 56.5t-100 72.5t-67.5 99q-28 62 -28 139q0 56 24 103q26 49 69 88.5t98 69t114 49.5t116.5 30t104.5 10q33 0 83 -2t106.5 -9.5t113 -21.5t102 -37.5t74 -58.5 t29.5 -84q0 -44 -20 -76t-47 -53.5t-54.5 -33.5t-42.5 -17q-12 -4 -31.5 -19.5t-37.5 -35.5t-31.5 -40.5t-13.5 -33.5q2 -16 21 -24.5t42 -8.5q22 0 62 11.5t87 33.5t94.5 53t84.5 70q78 81 78 170zM872 1760v-8q0 -4 -2 -9q-4 -9 -24 -26.5t-49 -38t-63 -41.5l-64 -39 q-30 -17 -53.5 -28t-31.5 -11q-14 0 -27.5 12.5t-13.5 26.5q0 9 16.5 31t41.5 49.5t56 57t59.5 54t52 40.5t34.5 16t23 -10t22 -23.5t16.5 -28t6.5 -24.5z" />
<glyph unicode="&#xca;" horiz-adv-x="1360" d="M1391 1155q0 62 -37 108.5t-96.5 79.5t-134 54.5t-148 34t-139.5 17.5t-109 5q-60 0 -137 -12t-158 -36t-158.5 -60t-138.5 -84.5t-98 -109.5t-37 -134q0 -96 38.5 -168t101 -124.5t142 -87.5t160.5 -56q-51 -23 -105 -56t-99 -75.5t-74 -95t-29 -115.5q0 -61 25 -108 t67 -81t95.5 -56.5t111 -36t114 -19t103.5 -5.5q137 0 243 27t183 65t127.5 78.5t75.5 67.5q25 26 40 49.5t15 34.5q0 8 -4.5 16.5t-13.5 8.5q-11 0 -26 -10t-40 -25q-34 -23 -87.5 -56t-130.5 -63t-178.5 -51t-231.5 -21q-31 0 -67.5 2t-73 8t-70.5 18t-60.5 32.5t-42.5 51 t-16 73.5q0 58 19 101.5t48 75.5t63.5 56t65.5 43q38 22 60 39t22 39v2q0 19 -23 30.5t-65 28.5q-64 26 -121.5 56.5t-100 72.5t-67.5 99q-28 62 -28 139q0 56 24 103q26 49 69 88.5t98 69t114 49.5t116.5 30t104.5 10q33 0 83 -2t106.5 -9.5t113 -21.5t102 -37.5t74 -58.5 t29.5 -84q0 -44 -20 -76t-47 -53.5t-54.5 -33.5t-42.5 -17q-12 -4 -31.5 -19.5t-37.5 -35.5t-31.5 -40.5t-13.5 -33.5q2 -16 21 -24.5t42 -8.5q22 0 62 11.5t87 33.5t94.5 53t84.5 70q78 81 78 170zM933 1575q0 2 -4 11l-9 20l-10 19q-5 9 -7 12q-15 29 -34.5 63.5t-45 65 t-56 51t-67.5 20.5q-15 0 -36.5 -16.5t-46 -42t-48.5 -56t-43 -58t-31 -49.5t-12 -29q0 -17 14 -33.5t33 -16.5q12 0 25.5 16t28 39.5t29.5 50.5l29 52q13 23 25.5 39t22.5 16q4 0 14 -13t23.5 -33l28.5 -44l28 -46l24 -39q10 -17 15 -23q15 -19 39 -19q8 0 20.5 3.5t23.5 9 t19 13.5t8 17z" />
<glyph unicode="&#xcb;" horiz-adv-x="1360" d="M1391 1155q0 62 -37 108.5t-96.5 79.5t-134 54.5t-148 34t-139.5 17.5t-109 5q-60 0 -137 -12t-158 -36t-158.5 -60t-138.5 -84.5t-98 -109.5t-37 -134q0 -96 38.5 -168t101 -124.5t142 -87.5t160.5 -56q-51 -23 -105 -56t-99 -75.5t-74 -95t-29 -115.5q0 -61 25 -108 t67 -81t95.5 -56.5t111 -36t114 -19t103.5 -5.5q137 0 243 27t183 65t127.5 78.5t75.5 67.5q25 26 40 49.5t15 34.5q0 8 -4.5 16.5t-13.5 8.5q-11 0 -26 -10t-40 -25q-34 -23 -87.5 -56t-130.5 -63t-178.5 -51t-231.5 -21q-31 0 -67.5 2t-73 8t-70.5 18t-60.5 32.5t-42.5 51 t-16 73.5q0 58 19 101.5t48 75.5t63.5 56t65.5 43q38 22 60 39t22 39v2q0 19 -23 30.5t-65 28.5q-64 26 -121.5 56.5t-100 72.5t-67.5 99q-28 62 -28 139q0 56 24 103q26 49 69 88.5t98 69t114 49.5t116.5 30t104.5 10q33 0 83 -2t106.5 -9.5t113 -21.5t102 -37.5t74 -58.5 t29.5 -84q0 -44 -20 -76t-47 -53.5t-54.5 -33.5t-42.5 -17q-12 -4 -31.5 -19.5t-37.5 -35.5t-31.5 -40.5t-13.5 -33.5q2 -16 21 -24.5t42 -8.5q22 0 62 11.5t87 33.5t94.5 53t84.5 70q78 81 78 170zM1005 1669q0 15 -5.5 32.5t-17.5 32.5t-31 25t-46 10q-41 0 -67.5 -12.5 t-42 -31.5t-21.5 -40t-6 -38q0 -15 8 -35.5t22.5 -39t35 -31.5t46.5 -13q27 0 50 15.5t39.5 37.5t26 46t9.5 42zM719 1669q0 15 -5.5 32.5t-18 32.5t-31.5 25t-46 10q-40 0 -66.5 -12.5t-42.5 -31.5t-22 -40t-6 -38q0 -15 8 -35.5t22.5 -39t35.5 -31.5t47 -13 q27 0 49.5 15.5t39.5 37.5t26.5 46t9.5 42z" />
<glyph unicode="&#xcc;" horiz-adv-x="938" d="M938 94q0 16 -20 34.5t-46.5 34t-53 26t-40.5 10.5q-60 0 -120 -10l-119 -21q-1 75 -6 149.5t-10.5 148.5t-10 148.5t-4.5 149.5q0 136 11.5 269t21.5 267q16 2 51.5 3.5t79.5 4.5t91 8t86 14t64 22.5t25 33.5q0 15 -19.5 33.5t-45.5 34.5t-52.5 26.5t-40.5 10.5 q-81 0 -161 -15t-158.5 -33t-157 -33t-156.5 -15q-24 0 -46.5 7t-47.5 7q-8 0 -17.5 -7.5t-17.5 -18t-13 -21.5t-5 -19q0 -18 12.5 -36.5t30.5 -33.5t39 -24.5t39 -9.5q41 0 81 5t80 12l78 16q40 8 80 14q-31 -211 -38 -423t-7 -427q0 -74 3.5 -146.5t23.5 -144.5 q-68 -12 -135.5 -27.5t-136.5 -15.5q-25 0 -48.5 7.5t-48.5 7.5q-8 0 -17.5 -7.5t-17.5 -18t-13 -21.5t-5 -19q0 -18 12.5 -36.5t30.5 -33.5t38.5 -24.5t37.5 -9.5q51 0 101.5 7t99.5 16l100 20q49 10 100 16q43 5 86.5 6.5t86.5 4t86 7.5t85 17l22 7q13 4 24.5 10t19.5 15 t8 21zM566 1577q0 -14 -13.5 -26.5t-27.5 -12.5q-8 0 -31.5 11t-53.5 28l-64 39q-34 21 -63 41.5t-49 38t-24 26.5q-2 5 -2 9v8q0 10 6.5 24.5t16.5 28t22 23.5t23 10t34.5 -16t52 -40.5t59.5 -54t56 -57t41.5 -49.5t16.5 -31z" />
<glyph unicode="&#xcd;" horiz-adv-x="938" d="M938 94q0 16 -20 34.5t-46.5 34t-53 26t-40.5 10.5q-60 0 -120 -10l-119 -21q-1 75 -6 149.5t-10.5 148.5t-10 148.5t-4.5 149.5q0 136 11.5 269t21.5 267q16 2 51.5 3.5t79.5 4.5t91 8t86 14t64 22.5t25 33.5q0 15 -19.5 33.5t-45.5 34.5t-52.5 26.5t-40.5 10.5 q-81 0 -161 -15t-158.5 -33t-157 -33t-156.5 -15q-24 0 -46.5 7t-47.5 7q-8 0 -17.5 -7.5t-17.5 -18t-13 -21.5t-5 -19q0 -18 12.5 -36.5t30.5 -33.5t39 -24.5t39 -9.5q41 0 81 5t80 12l78 16q40 8 80 14q-31 -211 -38 -423t-7 -427q0 -74 3.5 -146.5t23.5 -144.5 q-68 -12 -135.5 -27.5t-136.5 -15.5q-25 0 -48.5 7.5t-48.5 7.5q-8 0 -17.5 -7.5t-17.5 -18t-13 -21.5t-5 -19q0 -18 12.5 -36.5t30.5 -33.5t38.5 -24.5t37.5 -9.5q51 0 101.5 7t99.5 16l100 20q49 10 100 16q43 5 86.5 6.5t86.5 4t86 7.5t85 17l22 7q13 4 24.5 10t19.5 15 t8 21zM771 1760v-8q0 -4 -2 -9q-4 -9 -24 -26.5t-49 -38t-63 -41.5l-64 -39q-30 -17 -53.5 -28t-31.5 -11q-14 0 -27.5 12.5t-13.5 26.5q0 9 16.5 31t41.5 49.5t56 57t59.5 54t52 40.5t34.5 16t23 -10t22 -23.5t16.5 -28t6.5 -24.5z" />
<glyph unicode="&#xce;" horiz-adv-x="938" d="M938 94q0 16 -20 34.5t-46.5 34t-53 26t-40.5 10.5q-60 0 -120 -10l-119 -21q-1 75 -6 149.5t-10.5 148.5t-10 148.5t-4.5 149.5q0 136 11.5 269t21.5 267q16 2 51.5 3.5t79.5 4.5t91 8t86 14t64 22.5t25 33.5q0 15 -19.5 33.5t-45.5 34.5t-52.5 26.5t-40.5 10.5 q-81 0 -161 -15t-158.5 -33t-157 -33t-156.5 -15q-24 0 -46.5 7t-47.5 7q-8 0 -17.5 -7.5t-17.5 -18t-13 -21.5t-5 -19q0 -18 12.5 -36.5t30.5 -33.5t39 -24.5t39 -9.5q41 0 81 5t80 12l78 16q40 8 80 14q-31 -211 -38 -423t-7 -427q0 -74 3.5 -146.5t23.5 -144.5 q-68 -12 -135.5 -27.5t-136.5 -15.5q-25 0 -48.5 7.5t-48.5 7.5q-8 0 -17.5 -7.5t-17.5 -18t-13 -21.5t-5 -19q0 -18 12.5 -36.5t30.5 -33.5t38.5 -24.5t37.5 -9.5q51 0 101.5 7t99.5 16l100 20q49 10 100 16q43 5 86.5 6.5t86.5 4t86 7.5t85 17l22 7q13 4 24.5 10t19.5 15 t8 21zM750 1595q0 2 -4 11l-9 20l-10 19q-5 9 -7 12q-15 29 -34.5 63.5t-45 65t-56 51t-67.5 20.5q-15 0 -36.5 -16.5t-46 -42t-48.5 -56t-43 -58t-31 -49.5t-12 -29q0 -17 14 -33.5t33 -16.5q12 0 25.5 16t28 39.5t29.5 50.5l29 52q13 23 25.5 39t22.5 16q4 0 14 -13 t23.5 -33l28.5 -44l28 -46l24 -39q10 -17 15 -23q15 -19 39 -19q8 0 20.5 3.5t23.5 9t19 13.5t8 17z" />
<glyph unicode="&#xcf;" horiz-adv-x="938" d="M938 94q0 16 -20 34.5t-46.5 34t-53 26t-40.5 10.5q-60 0 -120 -10l-119 -21q-1 75 -6 149.5t-10.5 148.5t-10 148.5t-4.5 149.5q0 136 11.5 269t21.5 267q16 2 51.5 3.5t79.5 4.5t91 8t86 14t64 22.5t25 33.5q0 15 -19.5 33.5t-45.5 34.5t-52.5 26.5t-40.5 10.5 q-81 0 -161 -15t-158.5 -33t-157 -33t-156.5 -15q-24 0 -46.5 7t-47.5 7q-8 0 -17.5 -7.5t-17.5 -18t-13 -21.5t-5 -19q0 -18 12.5 -36.5t30.5 -33.5t39 -24.5t39 -9.5q41 0 81 5t80 12l78 16q40 8 80 14q-31 -211 -38 -423t-7 -427q0 -74 3.5 -146.5t23.5 -144.5 q-68 -12 -135.5 -27.5t-136.5 -15.5q-25 0 -48.5 7.5t-48.5 7.5q-8 0 -17.5 -7.5t-17.5 -18t-13 -21.5t-5 -19q0 -18 12.5 -36.5t30.5 -33.5t38.5 -24.5t37.5 -9.5q51 0 101.5 7t99.5 16l100 20q49 10 100 16q43 5 86.5 6.5t86.5 4t86 7.5t85 17l22 7q13 4 24.5 10t19.5 15 t8 21zM740 1689q0 15 -5.5 32.5t-17.5 32.5t-31 25t-46 10q-41 0 -67.5 -12.5t-42 -31.5t-21.5 -40t-6 -38q0 -15 8 -35.5t22.5 -39t35 -31.5t46.5 -13q27 0 50 15.5t39.5 37.5t26 46t9.5 42zM454 1689q0 15 -5.5 32.5t-18 32.5t-31.5 25t-46 10q-40 0 -66.5 -12.5 t-42.5 -31.5t-22 -40t-6 -38q0 -15 8 -35.5t22.5 -39t35.5 -31.5t47 -13q27 0 49.5 15.5t39.5 37.5t26.5 46t9.5 42z" />
<glyph unicode="&#xd0;" horiz-adv-x="1423" d="M1423 852q0 102 -27.5 185.5t-77 149.5t-117.5 114t-149 80t-171.5 47.5t-184.5 15.5q-142 0 -272.5 -34t-237.5 -97q-42 -25 -92 -63t-94 -84t-73 -99.5t-29 -110.5q0 -23 11.5 -44t37.5 -21q15 0 26 15.5t17 27.5q49 90 124.5 162.5t166.5 123t192.5 78t202.5 27.5 q72 0 145.5 -12.5t141.5 -37.5t127.5 -63.5t103 -91.5t69 -120t25.5 -150q0 -94 -27.5 -189t-77.5 -182.5t-118.5 -163.5t-151 -132.5t-175 -89t-189.5 -32.5q-47 0 -84 9t-57 24q-18 15 -30 49t-19 80.5t-10 103.5t-3 119v103q59 7 109.5 11.5t91.5 8.5t70.5 8t44.5 9 q30 9 47.5 20t19.5 33q1 15 -17 32.5t-42.5 33t-49 26t-38.5 10.5q-39 0 -99 -9t-129 -23l10 131q4 63 9 112l7 112q3 38 3 56q0 14 -5 24.5t-22 10.5q-11 0 -21.5 -5t-21.5 -13q-2 -1 -7.5 -7t-14 -27.5t-19.5 -62t-24 -110.5q-9 -57 -18 -120.5t-15 -129.5l-67 -13 l-60 -11q-28 -5 -49.5 -8t-34.5 -3q-22 0 -43 6t-43 8h-2q-6 0 -14 -6.5t-14.5 -16.5t-11.5 -21t-5 -22q0 -19 10 -35q11 -19 28.5 -33.5t38.5 -23.5t40 -9q52 0 104 10l111 22q-3 -37 -4.5 -78.5t-1.5 -85.5q0 -57 3.5 -114.5t12 -107.5t23.5 -88.5t38 -57.5 q26 -22 77.5 -32.5t117.5 -10.5q119 0 235.5 32.5t222.5 92t197 142t157.5 183t104 215.5t37.5 238z" />
<glyph unicode="&#xd1;" horiz-adv-x="1323" d="M1405 6q0 9 -6 15t-14.5 9.5t-18 5t-16.5 1.5q-45 0 -88 -9.5t-86 -9.5q-10 0 -21.5 3t-21 9t-15.5 15t-6 21q0 5 8 32l18 58l20 62q9 28 11 36q26 87 47 171.5t35.5 169t22.5 170.5t8 177q0 43 -2.5 95t-11 106t-25.5 105t-45 91t-69 64t-99 24q-75 0 -141.5 -36 t-124.5 -97.5t-108 -144t-94 -175t-82 -190.5l-70 -190l-60 -176q-27 -82 -51.5 -143.5t-45.5 -97.5t-40 -36q-15 0 -17.5 13t-2.5 24q0 46 4 92.5t9 93t9 93t4 94.5q0 103 -8.5 208t-36.5 206q-4 13 -13 38.5t-21.5 56t-28.5 62.5t-33 58t-35.5 42.5t-36.5 16.5 q-12 0 -30 -3t-35.5 -9.5t-30 -17t-12.5 -25.5q0 -3 8 -29l20 -57l21 -58q10 -28 12 -34q34 -116 56 -232.5t34 -236.5q4 -38 9 -97.5t12.5 -122t18 -118.5t24.5 -88q14 -31 36.5 -54.5t59.5 -23.5q46 0 77 26t52 64t35 81l26 77q17 44 41 113l54 150l65 174q35 90 73 177.5 t79.5 166.5t84 139.5t86 96t85.5 35.5q34 0 57.5 -25.5t39 -65.5t24 -89.5t12.5 -98t5 -90.5t1 -67q-2 -156 -17 -308t-38 -304l-11 -56l-10 -60t-8.5 -59t-3.5 -55q0 -32 15 -56.5t38.5 -40.5t53 -24t57.5 -8q21 0 40.5 1.5t39.5 6.5q8 2 31 9.5t48 17.5t44.5 22t19.5 23z M1280 1691q0 6 -3.5 14.5t-9.5 17t-13 14.5t-13 6q-7 0 -16.5 -9t-20 -20t-22.5 -20t-25 -9q-21 0 -43.5 13t-45.5 28t-46.5 28t-48.5 13q-8 0 -12 -2q-16 -3 -38 -18t-41.5 -34.5t-33.5 -40t-14 -34.5q0 -5 4.5 -13.5t11 -17t14 -14.5t13.5 -6q8 0 16 9l18 20q10 10 21 19 t23 9q18 0 38 -13l42 -28q23 -15 48.5 -28t53.5 -13q5 0 8 0.5t8 2.5q16 2 38 17t41.5 34.5t33.5 40.5t14 34z" />
<glyph unicode="&#xd2;" d="M1348 655q0 70 -10.5 136.5t-28 125t-39.5 106t-45 79.5q-48 69 -88 69q-8 0 -16.5 -2.5t-8.5 -13.5q0 -3 0.5 -5t3.5 -5q5 -6 24 -45t39 -102t36 -144t16 -170q0 -118 -37 -223.5t-107 -184.5t-169 -125.5t-224 -46.5q-114 0 -211.5 35.5t-168 102t-110.5 161t-40 211.5 q0 78 19 159.5t54.5 158.5t87 145.5t115.5 120t140.5 81.5t162.5 30q26 0 57.5 -6t58.5 -20t45 -36.5t18 -54.5q0 -25 -12 -48t-29 -46q-7 -11 -11 -32t-4 -44q0 -10 1 -23.5t4.5 -25.5t11.5 -20.5t22 -8.5q13 0 26 5.5t25 13.5q15 11 35.5 37.5t39 63t31.5 78.5t13 83v12 q0 53 -27.5 88.5t-69.5 57.5t-90.5 31t-90.5 9q-104 0 -201.5 -34.5t-182.5 -94t-155.5 -140t-121 -173t-78 -192.5t-27.5 -199q0 -136 49.5 -250.5t136 -197t202.5 -129t249 -46.5q143 0 267 54t216 147t144.5 218.5t52.5 268.5zM872 1577q0 -14 -13.5 -26.5t-27.5 -12.5 q-8 0 -31.5 11t-53.5 28l-64 39q-34 21 -63 41.5t-49 38t-24 26.5q-2 5 -2 9v8q0 10 6.5 24.5t16.5 28t22 23.5t23 10t34.5 -16t52 -40.5t59.5 -54t56 -57t41.5 -49.5t16.5 -31z" />
<glyph unicode="&#xd3;" d="M1348 655q0 70 -10.5 136.5t-28 125t-39.5 106t-45 79.5q-48 69 -88 69q-8 0 -16.5 -2.5t-8.5 -13.5q0 -3 0.5 -5t3.5 -5q5 -6 24 -45t39 -102t36 -144t16 -170q0 -118 -37 -223.5t-107 -184.5t-169 -125.5t-224 -46.5q-114 0 -211.5 35.5t-168 102t-110.5 161t-40 211.5 q0 78 19 159.5t54.5 158.5t87 145.5t115.5 120t140.5 81.5t162.5 30q26 0 57.5 -6t58.5 -20t45 -36.5t18 -54.5q0 -25 -12 -48t-29 -46q-7 -11 -11 -32t-4 -44q0 -10 1 -23.5t4.5 -25.5t11.5 -20.5t22 -8.5q13 0 26 5.5t25 13.5q15 11 35.5 37.5t39 63t31.5 78.5t13 83v12 q0 53 -27.5 88.5t-69.5 57.5t-90.5 31t-90.5 9q-104 0 -201.5 -34.5t-182.5 -94t-155.5 -140t-121 -173t-78 -192.5t-27.5 -199q0 -136 49.5 -250.5t136 -197t202.5 -129t249 -46.5q143 0 267 54t216 147t144.5 218.5t52.5 268.5zM893 1739v-8q0 -4 -2 -9q-4 -9 -24 -26.5 t-49 -38t-63 -41.5l-64 -39q-30 -17 -53.5 -28t-31.5 -11q-14 0 -27.5 12.5t-13.5 26.5q0 9 16.5 31t41.5 49.5t56 57t59.5 54t52 40.5t34.5 16t23 -10t22 -23.5t16.5 -28t6.5 -24.5z" />
<glyph unicode="&#xd4;" d="M1348 655q0 70 -10.5 136.5t-28 125t-39.5 106t-45 79.5q-48 69 -88 69q-8 0 -16.5 -2.5t-8.5 -13.5q0 -3 0.5 -5t3.5 -5q5 -6 24 -45t39 -102t36 -144t16 -170q0 -118 -37 -223.5t-107 -184.5t-169 -125.5t-224 -46.5q-114 0 -211.5 35.5t-168 102t-110.5 161t-40 211.5 q0 78 19 159.5t54.5 158.5t87 145.5t115.5 120t140.5 81.5t162.5 30q26 0 57.5 -6t58.5 -20t45 -36.5t18 -54.5q0 -25 -12 -48t-29 -46q-7 -11 -11 -32t-4 -44q0 -10 1 -23.5t4.5 -25.5t11.5 -20.5t22 -8.5q13 0 26 5.5t25 13.5q15 11 35.5 37.5t39 63t31.5 78.5t13 83v12 q0 53 -27.5 88.5t-69.5 57.5t-90.5 31t-90.5 9q-104 0 -201.5 -34.5t-182.5 -94t-155.5 -140t-121 -173t-78 -192.5t-27.5 -199q0 -136 49.5 -250.5t136 -197t202.5 -129t249 -46.5q143 0 267 54t216 147t144.5 218.5t52.5 268.5zM995 1554q0 2 -4 11l-9 20l-10 19 q-5 9 -7 12q-15 29 -34.5 63.5t-45 65t-56 51t-67.5 20.5q-15 0 -36.5 -16.5t-46 -42t-48.5 -56t-43 -58t-31 -49.5t-12 -29q0 -17 14 -33.5t33 -16.5q12 0 25.5 16t28 39.5t29.5 50.5l29 52q13 23 25.5 39t22.5 16q4 0 14 -13t23.5 -33l28.5 -44l28 -46l24 -39 q10 -17 15 -23q15 -19 39 -19q8 0 20.5 3.5t23.5 9t19 13.5t8 17z" />
<glyph unicode="&#xd5;" d="M1348 655q0 70 -10.5 136.5t-28 125t-39.5 106t-45 79.5q-48 69 -88 69q-8 0 -16.5 -2.5t-8.5 -13.5q0 -3 0.5 -5t3.5 -5q5 -6 24 -45t39 -102t36 -144t16 -170q0 -118 -37 -223.5t-107 -184.5t-169 -125.5t-224 -46.5q-114 0 -211.5 35.5t-168 102t-110.5 161t-40 211.5 q0 78 19 159.5t54.5 158.5t87 145.5t115.5 120t140.5 81.5t162.5 30q26 0 57.5 -6t58.5 -20t45 -36.5t18 -54.5q0 -25 -12 -48t-29 -46q-7 -11 -11 -32t-4 -44q0 -10 1 -23.5t4.5 -25.5t11.5 -20.5t22 -8.5q13 0 26 5.5t25 13.5q15 11 35.5 37.5t39 63t31.5 78.5t13 83v12 q0 53 -27.5 88.5t-69.5 57.5t-90.5 31t-90.5 9q-104 0 -201.5 -34.5t-182.5 -94t-155.5 -140t-121 -173t-78 -192.5t-27.5 -199q0 -136 49.5 -250.5t136 -197t202.5 -129t249 -46.5q143 0 267 54t216 147t144.5 218.5t52.5 268.5zM952 1671q0 6 -3.5 14.5t-9.5 17t-13 14.5 t-13 6q-7 0 -16.5 -9t-20 -20t-22.5 -20t-25 -9q-21 0 -43.5 13t-45.5 28t-46.5 28t-48.5 13q-8 0 -12 -2q-16 -3 -38 -18t-41.5 -34.5t-33.5 -40t-14 -34.5q0 -5 4.5 -13.5t11 -17t14 -14.5t13.5 -6q8 0 16 9l18 20q10 10 21 19t23 9q18 0 38 -13l42 -28q23 -15 48.5 -28 t53.5 -13q5 0 8 0.5t8 2.5q16 2 38 17t41.5 34.5t33.5 40.5t14 34z" />
<glyph unicode="&#xd6;" d="M1348 655q0 70 -10.5 136.5t-28 125t-39.5 106t-45 79.5q-48 69 -88 69q-8 0 -16.5 -2.5t-8.5 -13.5q0 -3 0.5 -5t3.5 -5q5 -6 24 -45t39 -102t36 -144t16 -170q0 -118 -37 -223.5t-107 -184.5t-169 -125.5t-224 -46.5q-114 0 -211.5 35.5t-168 102t-110.5 161t-40 211.5 q0 78 19 159.5t54.5 158.5t87 145.5t115.5 120t140.5 81.5t162.5 30q26 0 57.5 -6t58.5 -20t45 -36.5t18 -54.5q0 -25 -12 -48t-29 -46q-7 -11 -11 -32t-4 -44q0 -10 1 -23.5t4.5 -25.5t11.5 -20.5t22 -8.5q13 0 26 5.5t25 13.5q15 11 35.5 37.5t39 63t31.5 78.5t13 83v12 q0 53 -27.5 88.5t-69.5 57.5t-90.5 31t-90.5 9q-104 0 -201.5 -34.5t-182.5 -94t-155.5 -140t-121 -173t-78 -192.5t-27.5 -199q0 -136 49.5 -250.5t136 -197t202.5 -129t249 -46.5q143 0 267 54t216 147t144.5 218.5t52.5 268.5zM964 1669q0 15 -5.5 32.5t-17.5 32.5 t-31 25t-46 10q-41 0 -67.5 -12.5t-42 -31.5t-21.5 -40t-6 -38q0 -15 8 -35.5t22.5 -39t35 -31.5t46.5 -13q27 0 50 15.5t39.5 37.5t26 46t9.5 42zM678 1669q0 15 -5.5 32.5t-18 32.5t-31.5 25t-46 10q-40 0 -66.5 -12.5t-42.5 -31.5t-22 -40t-6 -38q0 -15 8 -35.5t22.5 -39 t35.5 -31.5t47 -13q27 0 49.5 15.5t39.5 37.5t26.5 46t9.5 42z" />
<glyph unicode="&#xd7;" horiz-adv-x="760" d="M698 926q0 15 -8 27.5t-20.5 21.5t-27.5 13.5t-28 4.5q-15 0 -37.5 -14.5t-48 -37t-53 -50l-51.5 -53.5l-43 -49l-29 -33q-40 49 -76 101l-69 106q-15 30 -47 30q-13 0 -30 -6.5t-32.5 -16.5t-26 -23t-10.5 -27q0 -9 12.5 -30.5t31.5 -50t43 -59.5l44 -60l40 -50 q17 -21 24 -29q-6 -8 -21 -26l-34 -41l-39 -48q-21 -25 -37.5 -48t-27.5 -41t-11 -25q0 -9 7 -23.5t17 -28t22 -23t22 -9.5q7 0 10 6l90 107l94 102q26 -27 58 -56.5t68 -54.5t75 -41t80 -16q5 0 15 8t20 20.5t18 26.5t7.5 26.5t-11 20.5t-37.5 8q-21 0 -49 18.5t-55 43.5 t-51 51l-37 41l33 31l50 50l56 59q30 31 54.5 59.5t40 52t15.5 35.5z" />
<glyph unicode="&#xd8;" d="M1348 655q0 70 -10.5 136.5t-28 125t-39.5 106t-45 79.5q-48 69 -88 69q-8 0 -16.5 -2.5t-8.5 -13.5q0 -3 0.5 -5t3.5 -5q5 -6 24 -45t39 -102t36 -144t16 -170q0 -118 -37 -223.5t-107 -184.5t-169 -125.5t-224 -46.5q-26 0 -51.5 2t-48.5 7l46 113l51 128l56 136 l58 137q36 83 75 163l74 151l70 135l58 111q25 49 40 82.5t17 47.5v2v2q1 9 -2 23t-9 26.5t-15 22t-21 10.5q-14 2 -30 -11.5t-36 -39.5q-22 20 -50.5 33.5t-59 22t-61.5 12t-58 3.5q-104 0 -201.5 -34.5t-182.5 -94t-155.5 -140t-121 -173t-78 -192.5t-27.5 -199 q0 -107 31 -200.5t87 -169.5t133.5 -131.5t170.5 -86.5q-3 -8 -5 -14t-2 -11q-2 -5 -2 -8t-2 -8q0 -15 9.5 -31t27.5 -18q8 0 18 5t21 22l8 17q5 10 13 24q59 -13 129 -13q143 0 267 54t216 147t144.5 218.5t52.5 268.5zM934 1194l-24 -46l-27 -52l-69 -150l-72 -168 l-71 -174l-67 -172l-60 -160l-48 -137q-75 25 -136 69t-104.5 105t-67.5 138t-24 167q0 78 19 159.5t54.5 158.5t87 145.5t115.5 120t140.5 81.5t162.5 30q26 0 58 -6.5t61 -20.5t49.5 -35.5t22.5 -52.5z" />
<glyph unicode="&#xd9;" horiz-adv-x="1458" d="M1427 59q0 8 -10 46.5t-25 102.5t-33 151.5t-34 193.5q-10 63 -16.5 133.5t-11.5 142.5t-11 142.5t-14 133t-19.5 114t-29.5 86.5q-17 34 -42 51.5t-53 17.5h-2h-2q-38 0 -70 -22.5t-46 -59.5q-18 -51 -28.5 -131.5t-19.5 -177.5l-20 -204q-10 -107 -27 -211.5 t-43.5 -199t-68 -166.5t-101.5 -114.5t-143 -42.5q-79 0 -135 43t-93 113t-58.5 158t-32.5 177.5t-14 172t-3 141.5t1 117t2 109.5t2 95.5t1 75v31q0 13 -2 22q-3 26 -17 47.5t-35 36.5t-48 23t-57 8q-10 0 -31.5 -4t-47 -10.5t-53 -16t-49.5 -21t-36.5 -23.5t-14.5 -25 q0 -8 5.5 -13t13 -8t15.5 -4.5t13 -1.5q22 0 46.5 5.5t49 12t48 12t45.5 5.5q10 0 21 -2.5t20.5 -7.5t15.5 -13t6 -20v-2q0 -10 -6 -43l-15 -82q-9 -49 -19 -110t-19 -127.5t-15 -135t-6 -131.5q0 -69 7.5 -148t26 -157t50.5 -150.5t80 -127.5t114 -88t154 -33q11 0 21.5 1 t21.5 1q100 9 175 51t129.5 108t91.5 151t61.5 179t38.5 191.5t22 190t13.5 174t13 142.5t19 97t32.5 37h2q8 1 12 -4.5t6 -14t2.5 -17.5t0.5 -15v-7q0 -57 -10.5 -166.5t-10.5 -267.5q0 -136 15 -303q6 -53 17 -108t25.5 -107t31.5 -98.5t35 -81t35 -54.5t32 -20q17 0 36 4 t35 11t26.5 17t10.5 23zM751 1495q0 -14 -13.5 -26.5t-27.5 -12.5q-8 0 -31.5 11t-53.5 28l-64 39q-34 21 -63 41.5t-49 38t-24 26.5q-2 5 -2 9v8q0 10 6.5 24.5t16.5 28t22 23.5t23 10t34.5 -16t52 -40.5t59.5 -54t56 -57t41.5 -49.5t16.5 -31z" />
<glyph unicode="&#xda;" horiz-adv-x="1458" d="M1427 59q0 8 -10 46.5t-25 102.5t-33 151.5t-34 193.5q-10 63 -16.5 133.5t-11.5 142.5t-11 142.5t-14 133t-19.5 114t-29.5 86.5q-17 34 -42 51.5t-53 17.5h-2h-2q-38 0 -70 -22.5t-46 -59.5q-18 -51 -28.5 -131.5t-19.5 -177.5l-20 -204q-10 -107 -27 -211.5 t-43.5 -199t-68 -166.5t-101.5 -114.5t-143 -42.5q-79 0 -135 43t-93 113t-58.5 158t-32.5 177.5t-14 172t-3 141.5t1 117t2 109.5t2 95.5t1 75v31q0 13 -2 22q-3 26 -17 47.5t-35 36.5t-48 23t-57 8q-10 0 -31.5 -4t-47 -10.5t-53 -16t-49.5 -21t-36.5 -23.5t-14.5 -25 q0 -8 5.5 -13t13 -8t15.5 -4.5t13 -1.5q22 0 46.5 5.5t49 12t48 12t45.5 5.5q10 0 21 -2.5t20.5 -7.5t15.5 -13t6 -20v-2q0 -10 -6 -43l-15 -82q-9 -49 -19 -110t-19 -127.5t-15 -135t-6 -131.5q0 -69 7.5 -148t26 -157t50.5 -150.5t80 -127.5t114 -88t154 -33q11 0 21.5 1 t21.5 1q100 9 175 51t129.5 108t91.5 151t61.5 179t38.5 191.5t22 190t13.5 174t13 142.5t19 97t32.5 37h2q8 1 12 -4.5t6 -14t2.5 -17.5t0.5 -15v-7q0 -57 -10.5 -166.5t-10.5 -267.5q0 -136 15 -303q6 -53 17 -108t25.5 -107t31.5 -98.5t35 -81t35 -54.5t32 -20q17 0 36 4 t35 11t26.5 17t10.5 23zM852 1616v-8q0 -4 -2 -9q-4 -9 -24 -26.5t-49 -38t-63 -41.5l-64 -39q-30 -17 -53.5 -28t-31.5 -11q-14 0 -27.5 12.5t-13.5 26.5q0 9 16.5 31t41.5 49.5t56 57t59.5 54t52 40.5t34.5 16t23 -10t22 -23.5t16.5 -28t6.5 -24.5z" />
<glyph unicode="&#xdb;" horiz-adv-x="1458" d="M1427 59q0 8 -10 46.5t-25 102.5t-33 151.5t-34 193.5q-10 63 -16.5 133.5t-11.5 142.5t-11 142.5t-14 133t-19.5 114t-29.5 86.5q-17 34 -42 51.5t-53 17.5h-2h-2q-38 0 -70 -22.5t-46 -59.5q-18 -51 -28.5 -131.5t-19.5 -177.5l-20 -204q-10 -107 -27 -211.5 t-43.5 -199t-68 -166.5t-101.5 -114.5t-143 -42.5q-79 0 -135 43t-93 113t-58.5 158t-32.5 177.5t-14 172t-3 141.5t1 117t2 109.5t2 95.5t1 75v31q0 13 -2 22q-3 26 -17 47.5t-35 36.5t-48 23t-57 8q-10 0 -31.5 -4t-47 -10.5t-53 -16t-49.5 -21t-36.5 -23.5t-14.5 -25 q0 -8 5.5 -13t13 -8t15.5 -4.5t13 -1.5q22 0 46.5 5.5t49 12t48 12t45.5 5.5q10 0 21 -2.5t20.5 -7.5t15.5 -13t6 -20v-2q0 -10 -6 -43l-15 -82q-9 -49 -19 -110t-19 -127.5t-15 -135t-6 -131.5q0 -69 7.5 -148t26 -157t50.5 -150.5t80 -127.5t114 -88t154 -33q11 0 21.5 1 t21.5 1q100 9 175 51t129.5 108t91.5 151t61.5 179t38.5 191.5t22 190t13.5 174t13 142.5t19 97t32.5 37h2q8 1 12 -4.5t6 -14t2.5 -17.5t0.5 -15v-7q0 -57 -10.5 -166.5t-10.5 -267.5q0 -136 15 -303q6 -53 17 -108t25.5 -107t31.5 -98.5t35 -81t35 -54.5t32 -20q17 0 36 4 t35 11t26.5 17t10.5 23zM873 1493q0 2 -4 11l-9 20l-10 19q-5 9 -7 12q-15 29 -34.5 63.5t-45 65t-56 51t-67.5 20.5q-15 0 -36.5 -16.5t-46 -42t-48.5 -56t-43 -58t-31 -49.5t-12 -29q0 -17 14 -33.5t33 -16.5q12 0 25.5 16t28 39.5t29.5 50.5l29 52q13 23 25.5 39t22.5 16 q4 0 14 -13t23.5 -33l28.5 -44l28 -46l24 -39q10 -17 15 -23q15 -19 39 -19q8 0 20.5 3.5t23.5 9t19 13.5t8 17z" />
<glyph unicode="&#xdc;" horiz-adv-x="1458" d="M1427 59q0 8 -10 46.5t-25 102.5t-33 151.5t-34 193.5q-10 63 -16.5 133.5t-11.5 142.5t-11 142.5t-14 133t-19.5 114t-29.5 86.5q-17 34 -42 51.5t-53 17.5h-2h-2q-38 0 -70 -22.5t-46 -59.5q-18 -51 -28.5 -131.5t-19.5 -177.5l-20 -204q-10 -107 -27 -211.5 t-43.5 -199t-68 -166.5t-101.5 -114.5t-143 -42.5q-79 0 -135 43t-93 113t-58.5 158t-32.5 177.5t-14 172t-3 141.5t1 117t2 109.5t2 95.5t1 75v31q0 13 -2 22q-3 26 -17 47.5t-35 36.5t-48 23t-57 8q-10 0 -31.5 -4t-47 -10.5t-53 -16t-49.5 -21t-36.5 -23.5t-14.5 -25 q0 -8 5.5 -13t13 -8t15.5 -4.5t13 -1.5q22 0 46.5 5.5t49 12t48 12t45.5 5.5q10 0 21 -2.5t20.5 -7.5t15.5 -13t6 -20v-2q0 -10 -6 -43l-15 -82q-9 -49 -19 -110t-19 -127.5t-15 -135t-6 -131.5q0 -69 7.5 -148t26 -157t50.5 -150.5t80 -127.5t114 -88t154 -33q11 0 21.5 1 t21.5 1q100 9 175 51t129.5 108t91.5 151t61.5 179t38.5 191.5t22 190t13.5 174t13 142.5t19 97t32.5 37h2q8 1 12 -4.5t6 -14t2.5 -17.5t0.5 -15v-7q0 -57 -10.5 -166.5t-10.5 -267.5q0 -136 15 -303q6 -53 17 -108t25.5 -107t31.5 -98.5t35 -81t35 -54.5t32 -20q17 0 36 4 t35 11t26.5 17t10.5 23zM904 1608q0 15 -5.5 32.5t-17.5 32.5t-31 25t-46 10q-41 0 -67.5 -12.5t-42 -31.5t-21.5 -40t-6 -38q0 -15 8 -35.5t22.5 -39t35 -31.5t46.5 -13q27 0 50 15.5t39.5 37.5t26 46t9.5 42zM618 1608q0 15 -5.5 32.5t-18 32.5t-31.5 25t-46 10 q-40 0 -66.5 -12.5t-42.5 -31.5t-22 -40t-6 -38q0 -15 8 -35.5t22.5 -39t35.5 -31.5t47 -13q27 0 49.5 15.5t39.5 37.5t26.5 46t9.5 42z" />
<glyph unicode="&#xdd;" horiz-adv-x="1247" d="M1227 1190q0 29 -1.5 66.5t-12 71t-33 56.5t-64.5 23q-37 0 -67.5 -19.5t-49.5 -50.5q-22 -36 -38 -94t-29 -131.5t-24 -157.5l-23 -174q-12 -89 -25.5 -178t-32 -170.5t-43 -152t-57 -122.5t-75 -82t-97.5 -30q-83 0 -140.5 43.5t-94.5 114t-57 159t-29.5 178t-11 171.5 t-1.5 139q0 99 3 197t3 198q0 80 -37.5 125t-121.5 45q-25 0 -49.5 -4t-47.5 -12q-10 -3 -32 -12.5t-45 -22t-40.5 -25.5t-17.5 -24q0 -8 5.5 -13t13.5 -8t16.5 -4.5t13.5 -1.5q25 0 48.5 5.5t47 12t46.5 12t47 5.5q9 0 20 -2.5t20.5 -8t16 -13.5t6.5 -19q0 -24 -4 -50 t-9 -52l-12 -52q-6 -26 -10 -49q-20 -106 -33.5 -213.5t-13.5 -216.5q0 -74 7 -154.5t24.5 -158t49 -148t81 -123.5t118.5 -84.5t163 -31.5t164.5 38.5t122.5 105t87 154.5t59 186.5t39 202.5t26 202l19 184q9 86 21 149q3 14 8.5 36t14.5 43t22 36.5t31 15.5q5 0 7 -5.5 t3.5 -12.5t1.5 -14v-11q0 -106 -19 -212l-38 -209q-18 -111 -38 -222t-36 -223t-26.5 -224.5t-10.5 -225.5q0 -21 2 -58t6 -82t11.5 -92.5t19 -88.5t27 -70t35.5 -37h18q11 0 28 2t32.5 7t27 14t11.5 24q0 46 -6 91t-9 91q-6 74 -8 149t-2 150q0 144 12 287.5t27 287t27 287 t12 287.5zM852 1678v-8q0 -4 -2 -9q-4 -9 -24 -26.5t-49 -38t-63 -41.5l-64 -39q-30 -17 -53.5 -28t-31.5 -11q-14 0 -27.5 12.5t-13.5 26.5q0 9 16.5 31t41.5 49.5t56 57t59.5 54t52 40.5t34.5 16t23 -10t22 -23.5t16.5 -28t6.5 -24.5z" />
<glyph unicode="&#xde;" horiz-adv-x="1386" d="M1427 731q0 89 -53 168.5t-150 139t-233.5 94t-304.5 34.5q-74 0 -142 -7t-130 -19q5 66 7.5 118.5t2.5 88.5q0 18 -3 36.5t-10.5 33t-21.5 23.5t-37 9h-2q-20 0 -34 -19q-16 -20 -27.5 -63.5t-18.5 -110.5t-10 -161q-125 -48 -192.5 -117.5t-67.5 -144.5q0 -55 26 -102 t66 -86t88 -69.5t92 -50.5q7 -96 15 -185l15 -161q7 -73 13.5 -124t10.5 -72q4 -14 12 -21.5t17 -12.5q11 -5 22 -7q14 0 22 6t12.5 16t5.5 21t1 22q0 28 -2.5 77t-6.5 113t-8 138t-6 151q11 -3 20.5 -4.5t20.5 -1.5h4q20 0 37 9t15 20q0 9 -9.5 23.5t-24.5 30.5t-32.5 31 t-32.5 26v55q0 102 6 199l11 184q55 18 119.5 27.5t134.5 9.5q67 0 136 -9.5t134 -29.5t122.5 -50.5t100.5 -72t68 -94t26 -117.5q0 -87 -32 -151.5t-85 -111t-121 -78t-139 -52t-139 -32.5l-121 -22q-53 -9 -85.5 -17.5t-32.5 -20.5q0 -11 15.5 -15t29.5 -4q8 0 11 1t5 1 q5 0 45 1t102 7t140 19t158 37t156.5 60.5t136 90.5t96 126.5t36.5 168.5zM264 684q-40 29 -65 71t-25 95q0 37 22 71.5t60 63.5q0 -71 2.5 -147.5t5.5 -153.5z" />
<glyph unicode="&#xdf;" horiz-adv-x="899" d="M868 223q0 77 -37 137.5t-93 108t-120 85.5l-121 71q-56 33 -93 63.5t-37 63.5q0 27 8 58.5t20 63t25.5 62t23.5 55.5q34 81 59 163.5t25 170.5q0 48 -11 90t-35 73.5t-61 49.5t-89 18q-30 0 -59.5 -11t-56.5 -28.5t-51 -39.5t-42 -43q-35 -42 -59.5 -91t-40 -101 t-22.5 -106t-7 -108q0 -64 7.5 -126.5t20 -124.5t28.5 -123l30 -124q-13 2 -26 2h-27q-29 0 -43.5 -13t-14.5 -44q0 -14 12.5 -28t30.5 -25.5t37 -19t31 -7.5q8 0 15.5 1t15.5 3q65 -293 65 -594q0 -72 -11 -141t-36 -137l-5 -15q-3 -10 -3 -16q0 -23 16 -37t39 -14 q13 0 24.5 6t21.5 15t18 19.5t14 20.5q16 26 26 61.5t15.5 73.5t7.5 75.5t2 68.5q0 196 -30.5 384t-79.5 378q-34 137 -60 275t-26 280q0 29 5.5 64.5t17 72.5t28.5 72t40.5 62.5t52.5 44t64 16.5q26 0 43.5 -11t27.5 -28t14 -39t4 -43q0 -78 -18.5 -148t-43.5 -141l-23 -63 q-12 -32 -22 -65t-16.5 -66.5t-6.5 -65.5q0 -53 33 -93.5t82.5 -76.5t107 -72t107 -78.5t82.5 -95.5t33 -125q0 -21 -8.5 -45.5t-24 -44.5t-36 -33.5t-44.5 -13.5q-16 0 -31.5 3.5t-31 8t-31 8t-31.5 3.5q-7 0 -16.5 -3t-18 -8t-14.5 -12.5t-6 -15.5q0 -17 25.5 -37 t59.5 -37.5t66.5 -29t47.5 -11.5q57 0 101.5 22.5t75.5 59.5t47.5 85.5t16.5 100.5z" />
<glyph unicode="&#xe0;" horiz-adv-x="803" d="M915 207q0 5 -2 14t-6.5 17t-10 14t-13.5 6q-6 0 -10 -4.5t-7.5 -10t-5.5 -11.5t-4 -9q-12 -30 -25.5 -52.5t-31.5 -38t-42 -23t-57 -7.5q-38 0 -64.5 21t-41.5 55q17 34 30 75t13 79q0 16 -1.5 40.5t-8 47t-19 39t-35.5 16.5q-29 0 -45 -17t-23.5 -42t-9 -52.5 t-1.5 -48.5q0 -32 3 -64t11 -63q-34 -43 -81.5 -74.5t-104.5 -31.5q-31 0 -59.5 10.5t-50 30t-34 46.5t-12.5 60q0 62 24.5 108.5t64 79.5t91 54t105.5 31l18 2q11 2 21.5 6t18 10.5t7.5 16.5q0 11 -5 17t-13 9.5t-17.5 4.5t-17.5 1q-48 0 -99 -10.5t-99 -31t-90.5 -50.5 t-74.5 -68.5t-50.5 -85t-18.5 -100.5q0 -56 17.5 -102.5t50 -80.5t78.5 -52.5t102 -18.5q80 0 147 34.5t117 96.5l33 -42q17 -20 36 -35t42.5 -24t54.5 -9q40 0 77 19t65.5 50t46 70t17.5 78zM525 738q0 -14 -13.5 -26.5t-27.5 -12.5q-8 0 -31.5 11t-53.5 28l-64 39 q-34 21 -63 41.5t-49 38t-24 26.5q-2 5 -2 9v8q0 10 6.5 24.5t16.5 28t22 23.5t23 10t34.5 -16t52 -40.5t59.5 -54t56 -57t41.5 -49.5t16.5 -31z" />
<glyph unicode="&#xe1;" horiz-adv-x="803" d="M915 207q0 5 -2 14t-6.5 17t-10 14t-13.5 6q-6 0 -10 -4.5t-7.5 -10t-5.5 -11.5t-4 -9q-12 -30 -25.5 -52.5t-31.5 -38t-42 -23t-57 -7.5q-38 0 -64.5 21t-41.5 55q17 34 30 75t13 79q0 16 -1.5 40.5t-8 47t-19 39t-35.5 16.5q-29 0 -45 -17t-23.5 -42t-9 -52.5 t-1.5 -48.5q0 -32 3 -64t11 -63q-34 -43 -81.5 -74.5t-104.5 -31.5q-31 0 -59.5 10.5t-50 30t-34 46.5t-12.5 60q0 62 24.5 108.5t64 79.5t91 54t105.5 31l18 2q11 2 21.5 6t18 10.5t7.5 16.5q0 11 -5 17t-13 9.5t-17.5 4.5t-17.5 1q-48 0 -99 -10.5t-99 -31t-90.5 -50.5 t-74.5 -68.5t-50.5 -85t-18.5 -100.5q0 -56 17.5 -102.5t50 -80.5t78.5 -52.5t102 -18.5q80 0 147 34.5t117 96.5l33 -42q17 -20 36 -35t42.5 -24t54.5 -9q40 0 77 19t65.5 50t46 70t17.5 78zM587 900v-8q0 -4 -2 -9q-4 -9 -24 -26.5t-49 -38t-63 -41.5l-64 -39 q-30 -17 -53.5 -28t-31.5 -11q-14 0 -27.5 12.5t-13.5 26.5q0 9 16.5 31t41.5 49.5t56 57t59.5 54t52 40.5t34.5 16t23 -10t22 -23.5t16.5 -28t6.5 -24.5z" />
<glyph unicode="&#xe2;" horiz-adv-x="803" d="M915 207q0 5 -2 14t-6.5 17t-10 14t-13.5 6q-6 0 -10 -4.5t-7.5 -10t-5.5 -11.5t-4 -9q-12 -30 -25.5 -52.5t-31.5 -38t-42 -23t-57 -7.5q-38 0 -64.5 21t-41.5 55q17 34 30 75t13 79q0 16 -1.5 40.5t-8 47t-19 39t-35.5 16.5q-29 0 -45 -17t-23.5 -42t-9 -52.5 t-1.5 -48.5q0 -32 3 -64t11 -63q-34 -43 -81.5 -74.5t-104.5 -31.5q-31 0 -59.5 10.5t-50 30t-34 46.5t-12.5 60q0 62 24.5 108.5t64 79.5t91 54t105.5 31l18 2q11 2 21.5 6t18 10.5t7.5 16.5q0 11 -5 17t-13 9.5t-17.5 4.5t-17.5 1q-48 0 -99 -10.5t-99 -31t-90.5 -50.5 t-74.5 -68.5t-50.5 -85t-18.5 -100.5q0 -56 17.5 -102.5t50 -80.5t78.5 -52.5t102 -18.5q80 0 147 34.5t117 96.5l33 -42q17 -20 36 -35t42.5 -24t54.5 -9q40 0 77 19t65.5 50t46 70t17.5 78zM627 736q0 2 -4 11l-9 20l-10 19q-5 9 -7 12q-15 29 -34.5 63.5t-45 65t-56 51 t-67.5 20.5q-15 0 -36.5 -16.5t-46 -42t-48.5 -56t-43 -58t-31 -49.5t-12 -29q0 -17 14 -33.5t33 -16.5q12 0 25.5 16t28 39.5t29.5 50.5l29 52q13 23 25.5 39t22.5 16q4 0 14 -13t23.5 -33l28.5 -44l28 -46l24 -39q10 -17 15 -23q15 -19 39 -19q8 0 20.5 3.5t23.5 9 t19 13.5t8 17z" />
<glyph unicode="&#xe3;" horiz-adv-x="803" d="M915 207q0 5 -2 14t-6.5 17t-10 14t-13.5 6q-6 0 -10 -4.5t-7.5 -10t-5.5 -11.5t-4 -9q-12 -30 -25.5 -52.5t-31.5 -38t-42 -23t-57 -7.5q-38 0 -64.5 21t-41.5 55q17 34 30 75t13 79q0 16 -1.5 40.5t-8 47t-19 39t-35.5 16.5q-29 0 -45 -17t-23.5 -42t-9 -52.5 t-1.5 -48.5q0 -32 3 -64t11 -63q-34 -43 -81.5 -74.5t-104.5 -31.5q-31 0 -59.5 10.5t-50 30t-34 46.5t-12.5 60q0 62 24.5 108.5t64 79.5t91 54t105.5 31l18 2q11 2 21.5 6t18 10.5t7.5 16.5q0 11 -5 17t-13 9.5t-17.5 4.5t-17.5 1q-48 0 -99 -10.5t-99 -31t-90.5 -50.5 t-74.5 -68.5t-50.5 -85t-18.5 -100.5q0 -56 17.5 -102.5t50 -80.5t78.5 -52.5t102 -18.5q80 0 147 34.5t117 96.5l33 -42q17 -20 36 -35t42.5 -24t54.5 -9q40 0 77 19t65.5 50t46 70t17.5 78zM625 852q0 6 -3.5 14.5t-9.5 17t-13 14.5t-13 6q-7 0 -16.5 -9t-20 -20 t-22.5 -20t-25 -9q-21 0 -43.5 13t-45.5 28t-46.5 28t-48.5 13q-8 0 -12 -2q-16 -3 -38 -18t-41.5 -34.5t-33.5 -40t-14 -34.5q0 -5 4.5 -13.5t11 -17t14 -14.5t13.5 -6q8 0 16 9l18 20q10 10 21 19t23 9q18 0 38 -13l42 -28q23 -15 48.5 -28t53.5 -13q5 0 8 0.5t8 2.5 q16 2 38 17t41.5 34.5t33.5 40.5t14 34z" />
<glyph unicode="&#xe4;" horiz-adv-x="803" d="M915 207q0 5 -2 14t-6.5 17t-10 14t-13.5 6q-6 0 -10 -4.5t-7.5 -10t-5.5 -11.5t-4 -9q-12 -30 -25.5 -52.5t-31.5 -38t-42 -23t-57 -7.5q-38 0 -64.5 21t-41.5 55q17 34 30 75t13 79q0 16 -1.5 40.5t-8 47t-19 39t-35.5 16.5q-29 0 -45 -17t-23.5 -42t-9 -52.5 t-1.5 -48.5q0 -32 3 -64t11 -63q-34 -43 -81.5 -74.5t-104.5 -31.5q-31 0 -59.5 10.5t-50 30t-34 46.5t-12.5 60q0 62 24.5 108.5t64 79.5t91 54t105.5 31l18 2q11 2 21.5 6t18 10.5t7.5 16.5q0 11 -5 17t-13 9.5t-17.5 4.5t-17.5 1q-48 0 -99 -10.5t-99 -31t-90.5 -50.5 t-74.5 -68.5t-50.5 -85t-18.5 -100.5q0 -56 17.5 -102.5t50 -80.5t78.5 -52.5t102 -18.5q80 0 147 34.5t117 96.5l33 -42q17 -20 36 -35t42.5 -24t54.5 -9q40 0 77 19t65.5 50t46 70t17.5 78zM664 857q0 15 -5.5 32.5t-17.5 32.5t-31 25t-46 10q-41 0 -67.5 -12.5t-42 -31.5 t-21.5 -40t-6 -38q0 -15 8 -35.5t22.5 -39t35 -31.5t46.5 -13q27 0 50 15.5t39.5 37.5t26 46t9.5 42zM378 857q0 15 -5.5 32.5t-18 32.5t-31.5 25t-46 10q-40 0 -66.5 -12.5t-42.5 -31.5t-22 -40t-6 -38q0 -15 8 -35.5t22.5 -39t35.5 -31.5t47 -13q27 0 49.5 15.5t39.5 37.5 t26.5 46t9.5 42z" />
<glyph unicode="&#xe5;" horiz-adv-x="803" d="M915 207q0 5 -2 14t-6.5 17t-10 14t-13.5 6q-6 0 -10 -4.5t-7.5 -10t-5.5 -11.5t-4 -9q-12 -30 -25.5 -52.5t-31.5 -38t-42 -23t-57 -7.5q-38 0 -64.5 21t-41.5 55q17 34 30 75t13 79q0 16 -1.5 40.5t-8 47t-19 39t-35.5 16.5q-29 0 -45 -17t-23.5 -42t-9 -52.5 t-1.5 -48.5q0 -32 3 -64t11 -63q-34 -43 -81.5 -74.5t-104.5 -31.5q-31 0 -59.5 10.5t-50 30t-34 46.5t-12.5 60q0 62 24.5 108.5t64 79.5t91 54t105.5 31l18 2q11 2 21.5 6t18 10.5t7.5 16.5q0 11 -5 17t-13 9.5t-17.5 4.5t-17.5 1q-48 0 -99 -10.5t-99 -31t-90.5 -50.5 t-74.5 -68.5t-50.5 -85t-18.5 -100.5q0 -56 17.5 -102.5t50 -80.5t78.5 -52.5t102 -18.5q80 0 147 34.5t117 96.5l33 -42q17 -20 36 -35t42.5 -24t54.5 -9q40 0 77 19t65.5 50t46 70t17.5 78zM614 886q0 40 -15 73.5t-41 57.5t-60 37.5t-73 13.5q-44 0 -82.5 -15.5 t-66.5 -43t-44 -65.5t-16 -83q0 -39 15 -71t40.5 -54.5t59.5 -34.5t72 -12q41 0 79 15t67 41t47 62.5t18 78.5zM526 888q0 -23 -10 -41t-26.5 -30t-37 -18t-41.5 -6q-17 0 -34 5.5t-31 15.5t-22.5 25t-8.5 34q0 22 8 41.5t22 34.5t33 24t41 9q45 0 76 -23t31 -71z" />
<glyph unicode="&#xe6;" horiz-adv-x="1294" d="M1386 172q0 11 -7 23t-19 12q-7 0 -22 -11l-36 -28l-50 -37q-29 -20 -63.5 -36.5t-74 -28t-84.5 -11.5q-15 0 -34 2.5t-36 9.5t-28.5 19t-11.5 31q0 20 12 35t30 28.5t38.5 26.5t38.5 28t30 34t12 44q0 23 -14.5 36t-36.5 21.5t-48 13.5t-48 11t-36.5 14.5t-14.5 24.5 q0 19 26 40t60 38.5t68 29t50 11.5q13 0 29.5 -4t16.5 -21q0 -12 -7.5 -23t-7.5 -24q0 -20 18.5 -33.5t37.5 -13.5t35.5 7t28.5 19.5t19 29t7 34.5q0 32 -11.5 53t-31 34t-45 18.5t-52.5 5.5q-24 0 -63 -7.5t-83 -21.5t-88.5 -33t-80 -43t-58 -51t-22.5 -57q0 -25 16 -40.5 t39.5 -25.5t51 -15.5t51 -11.5t39.5 -13t16 -19q0 -8 -7 -16t-17 -15.5t-20 -13.5t-15 -10q-19 -11 -35.5 -23.5t-30.5 -28.5q-15 -15 -26 -30.5t-23 -28t-27.5 -20.5t-40.5 -9h-8h-3q-35 0 -57 22q-24 23 -38 54q18 34 30.5 75t12.5 79q0 15 -1.5 39.5t-7.5 47.5t-19 39.5 t-36 16.5q-29 0 -45 -17t-23.5 -42t-9 -52.5t-1.5 -48.5q0 -32 3 -64t11 -63q-17 -21 -37 -40t-43.5 -33.5t-49.5 -23.5t-54 -9q-32 0 -60.5 10.5t-49.5 29.5t-33.5 46t-12.5 61q0 62 23.5 108t63 79t90.5 54t106 32l18 2q11 2 22 6t19 10.5t8 16.5t-5.5 16t-13.5 9.5t-18 5 t-18 1.5q-48 0 -99 -10.5t-99 -31t-90.5 -50.5t-74.5 -68.5t-50.5 -85t-18.5 -100.5q0 -55 18 -101.5t50.5 -80.5t78.5 -53t101 -19q80 0 147 34.5t117 96.5l29 -40q14 -19 30.5 -35t38 -25.5t49.5 -9.5q29 0 56 8.5t49 28.5q15 -22 38.5 -35.5t50.5 -21t55 -10.5t52 -3 q79 0 152.5 26t136.5 74l24 20q17 15 35 33t32.5 35.5t14.5 26.5z" />
<glyph unicode="&#xe7;" horiz-adv-x="645" d="M758 297q0 15 -9.5 23t-23.5 8h-5q-3 0 -5 -2q-11 -4 -23 -24l-31 -48q-18 -29 -43 -61t-62 -58.5t-87.5 -44.5t-118.5 -18q-37 0 -74.5 12t-66.5 35t-47.5 55.5t-18.5 73.5q0 51 18 93.5t50 73.5t75 48.5t93 17.5q7 0 15.5 -1.5t16.5 -4.5t13.5 -9t5.5 -15 q0 -17 -5 -32.5t-11 -28.5l-12 -24q-5 -11 -5 -18q0 -12 13 -19t24 -7q17 0 35 16.5t32.5 39t24 46t9.5 37.5q0 34 -12 55.5t-32.5 34t-47.5 17.5t-56 5q-70 0 -134 -30t-113.5 -79.5t-79 -114t-29.5 -132.5q0 -57 19.5 -102.5t54 -78.5t80.5 -53t98 -26q-12 -17 -25 -38 t-24 -40.5t-18 -35t-7 -21.5q0 -25 16 -36t39 -11q25 0 49.5 6t48.5 6q15 0 31.5 -2.5t29.5 -9t21.5 -18.5t8.5 -31q0 -32 -20 -49t-49 -24.5t-60 -9t-54 -1.5q-35 0 -70 3t-69 3q-15 0 -18.5 -12t-3.5 -23v-19q6 -7 23 -13.5t39.5 -12.5t48 -11t49.5 -8.5t44 -5.5t31 -2 q43 0 84 9.5t72.5 30.5t51 55.5t19.5 84.5q0 42 -14.5 73t-39.5 51.5t-59 31t-73 10.5h-24q-12 0 -23 -2q2 4 5.5 13t8 19.5l8.5 20.5l7 19q94 8 171 55t136 121q10 12 24 33.5t27.5 45t23 46.5t9.5 39z" />
<glyph unicode="&#xe8;" horiz-adv-x="643" d="M756 299q0 12 -10 19.5t-21 7.5q-14 0 -27.5 -19t-31.5 -47.5t-42.5 -61.5t-61.5 -61.5t-88.5 -47.5t-123.5 -19q-42 0 -79.5 11t-66 33t-45 55.5t-16.5 78.5q0 40 11.5 81.5t34 75.5t56.5 56t79 22q21 0 38.5 -8.5t30 -22.5t20 -32.5t7.5 -38.5q0 -37 -16 -62.5 t-41 -43.5t-55 -31l-58 -23q-16 -6 -22.5 -12t-6.5 -25q0 -28 31 -28q46 0 98 17.5t95.5 49t72.5 75t29 95.5q0 42 -17.5 75.5t-46.5 57t-66 36.5t-75 13q-68 0 -125 -32t-98.5 -83t-64.5 -115t-23 -128q0 -62 24 -110t64.5 -81t93.5 -50t111 -17q106 0 194.5 46.5 t153.5 129.5q11 13 25 34.5t27.5 44.5t22.5 46t9 39zM525 738q0 -14 -13.5 -26.5t-27.5 -12.5q-8 0 -31.5 11t-53.5 28l-64 39q-34 21 -63 41.5t-49 38t-24 26.5q-2 5 -2 9v8q0 10 6.5 24.5t16.5 28t22 23.5t23 10t34.5 -16t52 -40.5t59.5 -54t56 -57t41.5 -49.5t16.5 -31z " />
<glyph unicode="&#xe9;" horiz-adv-x="643" d="M756 299q0 12 -10 19.5t-21 7.5q-14 0 -27.5 -19t-31.5 -47.5t-42.5 -61.5t-61.5 -61.5t-88.5 -47.5t-123.5 -19q-42 0 -79.5 11t-66 33t-45 55.5t-16.5 78.5q0 40 11.5 81.5t34 75.5t56.5 56t79 22q21 0 38.5 -8.5t30 -22.5t20 -32.5t7.5 -38.5q0 -37 -16 -62.5 t-41 -43.5t-55 -31l-58 -23q-16 -6 -22.5 -12t-6.5 -25q0 -28 31 -28q46 0 98 17.5t95.5 49t72.5 75t29 95.5q0 42 -17.5 75.5t-46.5 57t-66 36.5t-75 13q-68 0 -125 -32t-98.5 -83t-64.5 -115t-23 -128q0 -62 24 -110t64.5 -81t93.5 -50t111 -17q106 0 194.5 46.5 t153.5 129.5q11 13 25 34.5t27.5 44.5t22.5 46t9 39zM566 900v-8q0 -4 -2 -9q-4 -9 -24 -26.5t-49 -38t-63 -41.5l-64 -39q-30 -17 -53.5 -28t-31.5 -11q-14 0 -27.5 12.5t-13.5 26.5q0 9 16.5 31t41.5 49.5t56 57t59.5 54t52 40.5t34.5 16t23 -10t22 -23.5t16.5 -28 t6.5 -24.5z" />
<glyph unicode="&#xea;" horiz-adv-x="643" d="M756 299q0 12 -10 19.5t-21 7.5q-14 0 -27.5 -19t-31.5 -47.5t-42.5 -61.5t-61.5 -61.5t-88.5 -47.5t-123.5 -19q-42 0 -79.5 11t-66 33t-45 55.5t-16.5 78.5q0 40 11.5 81.5t34 75.5t56.5 56t79 22q21 0 38.5 -8.5t30 -22.5t20 -32.5t7.5 -38.5q0 -37 -16 -62.5 t-41 -43.5t-55 -31l-58 -23q-16 -6 -22.5 -12t-6.5 -25q0 -28 31 -28q46 0 98 17.5t95.5 49t72.5 75t29 95.5q0 42 -17.5 75.5t-46.5 57t-66 36.5t-75 13q-68 0 -125 -32t-98.5 -83t-64.5 -115t-23 -128q0 -62 24 -110t64.5 -81t93.5 -50t111 -17q106 0 194.5 46.5 t153.5 129.5q11 13 25 34.5t27.5 44.5t22.5 46t9 39zM566 736q0 2 -4 11l-9 20l-10 19q-5 9 -7 12q-15 29 -34.5 63.5t-45 65t-56 51t-67.5 20.5q-15 0 -36.5 -16.5t-46 -42t-48.5 -56t-43 -58t-31 -49.5t-12 -29q0 -17 14 -33.5t33 -16.5q12 0 25.5 16t28 39.5t29.5 50.5 l29 52q13 23 25.5 39t22.5 16q4 0 14 -13t23.5 -33l28.5 -44l28 -46l24 -39q10 -17 15 -23q15 -19 39 -19q8 0 20.5 3.5t23.5 9t19 13.5t8 17z" />
<glyph unicode="&#xeb;" horiz-adv-x="643" d="M756 299q0 12 -10 19.5t-21 7.5q-14 0 -27.5 -19t-31.5 -47.5t-42.5 -61.5t-61.5 -61.5t-88.5 -47.5t-123.5 -19q-42 0 -79.5 11t-66 33t-45 55.5t-16.5 78.5q0 40 11.5 81.5t34 75.5t56.5 56t79 22q21 0 38.5 -8.5t30 -22.5t20 -32.5t7.5 -38.5q0 -37 -16 -62.5 t-41 -43.5t-55 -31l-58 -23q-16 -6 -22.5 -12t-6.5 -25q0 -28 31 -28q46 0 98 17.5t95.5 49t72.5 75t29 95.5q0 42 -17.5 75.5t-46.5 57t-66 36.5t-75 13q-68 0 -125 -32t-98.5 -83t-64.5 -115t-23 -128q0 -62 24 -110t64.5 -81t93.5 -50t111 -17q106 0 194.5 46.5 t153.5 129.5q11 13 25 34.5t27.5 44.5t22.5 46t9 39zM603 857q0 15 -5.5 32.5t-17.5 32.5t-31 25t-46 10q-41 0 -67.5 -12.5t-42 -31.5t-21.5 -40t-6 -38q0 -15 8 -35.5t22.5 -39t35 -31.5t46.5 -13q27 0 50 15.5t39.5 37.5t26 46t9.5 42zM317 857q0 15 -5.5 32.5t-18 32.5 t-31.5 25t-46 10q-40 0 -66.5 -12.5t-42.5 -31.5t-22 -40t-6 -38q0 -15 8 -35.5t22.5 -39t35.5 -31.5t47 -13q27 0 49.5 15.5t39.5 37.5t26.5 46t9.5 42z" />
<glyph unicode="&#xec;" horiz-adv-x="442" d="M606 328q0 12 -10 22t-23 10q-9 0 -23.5 -18.5t-33 -46.5t-42 -60.5t-51 -60.5t-59 -46.5t-67.5 -18.5q-44 0 -69 26t-37.5 64t-15.5 80t-3 73q0 32 3 64.5t3 64.5q0 16 -11.5 24.5t-27.5 8.5q-13 0 -24 -8q-10 -6 -17.5 -25t-13 -44.5t-9 -55t-5.5 -57t-3 -50t-1 -34.5 q0 -50 10.5 -97t34.5 -83t63 -58t96 -22q41 0 77 13.5t66.5 36.5t57 52.5t47.5 60.5q9 13 24 38t29.5 52.5t24.5 53.5t10 41zM198 718q0 -14 -13.5 -26.5t-27.5 -12.5q-8 0 -31.5 11t-53.5 28l-64 39q-34 21 -63 41.5t-49 38t-24 26.5q-2 5 -2 9v8q0 10 6.5 24.5t16.5 28 t22 23.5t23 10t34.5 -16t52 -40.5t59.5 -54t56 -57t41.5 -49.5t16.5 -31z" />
<glyph unicode="&#xed;" horiz-adv-x="442" d="M606 328q0 12 -10 22t-23 10q-9 0 -23.5 -18.5t-33 -46.5t-42 -60.5t-51 -60.5t-59 -46.5t-67.5 -18.5q-44 0 -69 26t-37.5 64t-15.5 80t-3 73q0 32 3 64.5t3 64.5q0 16 -11.5 24.5t-27.5 8.5q-13 0 -24 -8q-10 -6 -17.5 -25t-13 -44.5t-9 -55t-5.5 -57t-3 -50t-1 -34.5 q0 -50 10.5 -97t34.5 -83t63 -58t96 -22q41 0 77 13.5t66.5 36.5t57 52.5t47.5 60.5q9 13 24 38t29.5 52.5t24.5 53.5t10 41zM464 921v-8q0 -4 -2 -9q-4 -9 -24 -26.5t-49 -38t-63 -41.5l-64 -39q-30 -17 -53.5 -28t-31.5 -11q-14 0 -27.5 12.5t-13.5 26.5q0 9 16.5 31 t41.5 49.5t56 57t59.5 54t52 40.5t34.5 16t23 -10t22 -23.5t16.5 -28t6.5 -24.5z" />
<glyph unicode="&#xee;" horiz-adv-x="442" d="M606 328q0 12 -10 22t-23 10q-9 0 -23.5 -18.5t-33 -46.5t-42 -60.5t-51 -60.5t-59 -46.5t-67.5 -18.5q-44 0 -69 26t-37.5 64t-15.5 80t-3 73q0 32 3 64.5t3 64.5q0 16 -11.5 24.5t-27.5 8.5q-13 0 -24 -8q-10 -6 -17.5 -25t-13 -44.5t-9 -55t-5.5 -57t-3 -50t-1 -34.5 q0 -50 10.5 -97t34.5 -83t63 -58t96 -22q41 0 77 13.5t66.5 36.5t57 52.5t47.5 60.5q9 13 24 38t29.5 52.5t24.5 53.5t10 41zM422 736q0 2 -4 11l-9 20l-10 19q-5 9 -7 12q-15 29 -34.5 63.5t-45 65t-56 51t-67.5 20.5q-15 0 -36.5 -16.5t-46 -42t-48.5 -56t-43 -58 t-31 -49.5t-12 -29q0 -17 14 -33.5t33 -16.5q12 0 25.5 16t28 39.5t29.5 50.5l29 52q13 23 25.5 39t22.5 16q4 0 14 -13t23.5 -33l28.5 -44l28 -46l24 -39q10 -17 15 -23q15 -19 39 -19q8 0 20.5 3.5t23.5 9t19 13.5t8 17z" />
<glyph unicode="&#xef;" horiz-adv-x="442" d="M606 328q0 12 -10 22t-23 10q-9 0 -23.5 -18.5t-33 -46.5t-42 -60.5t-51 -60.5t-59 -46.5t-67.5 -18.5q-44 0 -69 26t-37.5 64t-15.5 80t-3 73q0 32 3 64.5t3 64.5q0 16 -11.5 24.5t-27.5 8.5q-13 0 -24 -8q-10 -6 -17.5 -25t-13 -44.5t-9 -55t-5.5 -57t-3 -50t-1 -34.5 q0 -50 10.5 -97t34.5 -83t63 -58t96 -22q41 0 77 13.5t66.5 36.5t57 52.5t47.5 60.5q9 13 24 38t29.5 52.5t24.5 53.5t10 41zM441 836q0 15 -5.5 32.5t-17.5 32.5t-31 25t-46 10q-41 0 -67.5 -12.5t-42 -31.5t-21.5 -40t-6 -38q0 -15 8 -35.5t22.5 -39t35 -31.5t46.5 -13 q27 0 50 15.5t39.5 37.5t26 46t9.5 42zM155 836q0 15 -5.5 32.5t-18 32.5t-31.5 25t-46 10q-40 0 -66.5 -12.5t-42.5 -31.5t-22 -40t-6 -38q0 -15 8 -35.5t22.5 -39t35.5 -31.5t47 -13q27 0 49.5 15.5t39.5 37.5t26.5 46t9.5 42z" />
<glyph unicode="&#xf0;" horiz-adv-x="946" d="M1098 1010q0 14 -17 30q-18 18 -42.5 33.5t-49.5 26t-39 10.5q-31 0 -73 -6q-1 45 -5 96t-13.5 101.5t-25 97t-40 82t-58.5 57t-80 21.5q-44 0 -76 -28t-54.5 -74t-37 -104t-22.5 -117.5t-11.5 -115t-4.5 -96.5q-25 -5 -44.5 -7.5t-31.5 -2.5q-22 0 -43.5 6t-42.5 8h-2 q-6 0 -14 -6.5t-15 -16.5t-11.5 -21t-4.5 -19q-1 -20 10 -39t28 -33.5t38 -23.5t40 -9q23 0 47.5 1.5t47.5 6.5q8 -158 37 -320t81 -304q-20 -31 -45 -61t-55.5 -52.5t-66 -36.5t-76.5 -14q-37 0 -67.5 13t-52.5 35.5t-34 53t-12 66.5q0 56 15.5 95t44 66t69 44t90.5 28 q5 1 14 2.5t19 4.5t17 8t7 12q0 14 -7 22.5t-17 13t-22 6t-23 1.5q-68 0 -129 -21.5t-107 -61.5t-73 -97.5t-27 -128.5q0 -63 22 -113t61 -85.5t91.5 -54t113.5 -18.5q45 0 87 14t80.5 37.5t71.5 54t60 64.5q17 -31 38.5 -61.5t49.5 -54.5t61.5 -39t72.5 -15q42 0 81.5 20.5 t70 53t49 73.5t18.5 83q0 5 -2 14t-5.5 17t-9 14t-12.5 6q-10 0 -15.5 -13.5t-8.5 -21.5q-13 -33 -28 -58t-35 -42.5t-47 -26t-65 -8.5q-29 0 -52 16t-41 40t-30.5 51.5t-21.5 50.5q48 68 82 152t57 175.5t35.5 186t16.5 182.5q55 5 95 9t58 9q31 10 48 21q20 12 20 35z M752 1083l-87 -17q-43 -8 -83 -17q1 39 3 86t6 94.5t10 92t15 79t21.5 55.5t28.5 21q14 0 25 -20.5t20 -54t16 -76t12 -86t8 -85t5 -72.5zM750 922q-5 -140 -29.5 -275.5t-77.5 -263.5q-31 125 -45.5 253.5t-17.5 258.5l64 12q33 6 71 11z" />
<glyph unicode="&#xf1;" horiz-adv-x="717" d="M799 184q0 5 -3 12.5t-7 15t-9 12.5t-10 5t-14.5 -19t-22.5 -42.5t-29.5 -42.5t-35.5 -19q-32 0 -45.5 29.5t-18.5 73.5t-6.5 96t-10.5 96t-30 73.5t-65 29.5q-37 0 -69.5 -27t-61.5 -67.5t-54 -87.5l-47 -88q-22 -41 -41.5 -68t-36.5 -27q-11 0 -17.5 6t-9.5 15t-4 19.5 t-1 19.5q0 55 9 111.5t9 113.5q0 16 -1 33.5t-7 32.5t-18 24.5t-33 9.5q-22 0 -35.5 -16.5t-21 -39t-9.5 -46.5t-2 -39q0 -19 1 -57t5 -83.5t11.5 -93t20.5 -87t32.5 -64.5t46.5 -25q28 0 55 29.5t52.5 73.5t48.5 96l46 96q21 44 40.5 73.5t35.5 29.5q12 0 18 -13t9 -29.5 t4 -33t2 -23.5q4 -43 8 -92t19.5 -89.5t48 -67.5t92.5 -27q29 0 57.5 19.5t52 48.5t38 61.5t14.5 58.5zM625 771q0 6 -3.5 14.5t-9.5 17t-13 14.5t-13 6q-7 0 -16.5 -9t-20 -20t-22.5 -20t-25 -9q-21 0 -43.5 13t-45.5 28t-46.5 28t-48.5 13q-8 0 -12 -2q-16 -3 -38 -18 t-41.5 -34.5t-33.5 -40t-14 -34.5q0 -5 4.5 -13.5t11 -17t14 -14.5t13.5 -6q8 0 16 9l18 20q10 10 21 19t23 9q18 0 38 -13l42 -28q23 -15 48.5 -28t53.5 -13q5 0 8 0.5t8 2.5q16 2 38 17t41.5 34.5t33.5 40.5t14 34z" />
<glyph unicode="&#xf2;" horiz-adv-x="651" d="M723 451q0 8 -3.5 19t-12.5 11q-4 0 -17 -13l-31 -30q-18 -17 -37.5 -33.5t-37.5 -23.5q-19 40 -49 70t-72 47q-9 12 -26 19.5t-36.5 12t-38.5 6t-34 1.5q-66 0 -122.5 -23t-97.5 -63.5t-64.5 -97t-23.5 -122.5q0 -57 22 -103.5t59 -78.5t86 -49.5t104 -17.5 q62 0 118.5 21.5t99.5 60t69 91.5t26 117v25q15 8 35.5 26.5t39 41t31.5 45.5t13 41zM510 283q0 -45 -16.5 -79t-44.5 -57t-65 -35t-79 -12q-32 0 -63.5 10t-56.5 29.5t-40.5 47.5t-15.5 63q0 38 15 73.5t40.5 62.5t59.5 43.5t73 16.5q26 0 53 -5t50 -17q-6 -8 -8 -18 t-2 -21q0 -43 30 -69.5t70 -32.5zM505 677q0 -14 -13.5 -26.5t-27.5 -12.5q-8 0 -31.5 11t-53.5 28l-64 39q-34 21 -63 41.5t-49 38t-24 26.5q-2 5 -2 9v8q0 10 6.5 24.5t16.5 28t22 23.5t23 10t34.5 -16t52 -40.5t59.5 -54t56 -57t41.5 -49.5t16.5 -31z" />
<glyph unicode="&#xf3;" horiz-adv-x="651" d="M723 451q0 8 -3.5 19t-12.5 11q-4 0 -17 -13l-31 -30q-18 -17 -37.5 -33.5t-37.5 -23.5q-19 40 -49 70t-72 47q-9 12 -26 19.5t-36.5 12t-38.5 6t-34 1.5q-66 0 -122.5 -23t-97.5 -63.5t-64.5 -97t-23.5 -122.5q0 -57 22 -103.5t59 -78.5t86 -49.5t104 -17.5 q62 0 118.5 21.5t99.5 60t69 91.5t26 117v25q15 8 35.5 26.5t39 41t31.5 45.5t13 41zM510 283q0 -45 -16.5 -79t-44.5 -57t-65 -35t-79 -12q-32 0 -63.5 10t-56.5 29.5t-40.5 47.5t-15.5 63q0 38 15 73.5t40.5 62.5t59.5 43.5t73 16.5q26 0 53 -5t50 -17q-6 -8 -8 -18 t-2 -21q0 -43 30 -69.5t70 -32.5zM607 880v-8q0 -4 -2 -9q-4 -9 -24 -26.5t-49 -38t-63 -41.5l-64 -39q-30 -17 -53.5 -28t-31.5 -11q-14 0 -27.5 12.5t-13.5 26.5q0 9 16.5 31t41.5 49.5t56 57t59.5 54t52 40.5t34.5 16t23 -10t22 -23.5t16.5 -28t6.5 -24.5z" />
<glyph unicode="&#xf4;" horiz-adv-x="651" d="M723 451q0 8 -3.5 19t-12.5 11q-4 0 -17 -13l-31 -30q-18 -17 -37.5 -33.5t-37.5 -23.5q-19 40 -49 70t-72 47q-9 12 -26 19.5t-36.5 12t-38.5 6t-34 1.5q-66 0 -122.5 -23t-97.5 -63.5t-64.5 -97t-23.5 -122.5q0 -57 22 -103.5t59 -78.5t86 -49.5t104 -17.5 q62 0 118.5 21.5t99.5 60t69 91.5t26 117v25q15 8 35.5 26.5t39 41t31.5 45.5t13 41zM510 283q0 -45 -16.5 -79t-44.5 -57t-65 -35t-79 -12q-32 0 -63.5 10t-56.5 29.5t-40.5 47.5t-15.5 63q0 38 15 73.5t40.5 62.5t59.5 43.5t73 16.5q26 0 53 -5t50 -17q-6 -8 -8 -18 t-2 -21q0 -43 30 -69.5t70 -32.5zM545 736q0 2 -4 11l-9 20l-10 19q-5 9 -7 12q-15 29 -34.5 63.5t-45 65t-56 51t-67.5 20.5q-15 0 -36.5 -16.5t-46 -42t-48.5 -56t-43 -58t-31 -49.5t-12 -29q0 -17 14 -33.5t33 -16.5q12 0 25.5 16t28 39.5t29.5 50.5l29 52q13 23 25.5 39 t22.5 16q4 0 14 -13t23.5 -33l28.5 -44l28 -46l24 -39q10 -17 15 -23q15 -19 39 -19q8 0 20.5 3.5t23.5 9t19 13.5t8 17z" />
<glyph unicode="&#xf5;" horiz-adv-x="651" d="M723 451q0 8 -3.5 19t-12.5 11q-4 0 -17 -13l-31 -30q-18 -17 -37.5 -33.5t-37.5 -23.5q-19 40 -49 70t-72 47q-9 12 -26 19.5t-36.5 12t-38.5 6t-34 1.5q-66 0 -122.5 -23t-97.5 -63.5t-64.5 -97t-23.5 -122.5q0 -57 22 -103.5t59 -78.5t86 -49.5t104 -17.5 q62 0 118.5 21.5t99.5 60t69 91.5t26 117v25q15 8 35.5 26.5t39 41t31.5 45.5t13 41zM510 283q0 -45 -16.5 -79t-44.5 -57t-65 -35t-79 -12q-32 0 -63.5 10t-56.5 29.5t-40.5 47.5t-15.5 63q0 38 15 73.5t40.5 62.5t59.5 43.5t73 16.5q26 0 53 -5t50 -17q-6 -8 -8 -18 t-2 -21q0 -43 30 -69.5t70 -32.5zM584 791q0 6 -3.5 14.5t-9.5 17t-13 14.5t-13 6q-7 0 -16.5 -9t-20 -20t-22.5 -20t-25 -9q-21 0 -43.5 13t-45.5 28t-46.5 28t-48.5 13q-8 0 -12 -2q-16 -3 -38 -18t-41.5 -34.5t-33.5 -40t-14 -34.5q0 -5 4.5 -13.5t11 -17t14 -14.5 t13.5 -6q8 0 16 9l18 20q10 10 21 19t23 9q18 0 38 -13l42 -28q23 -15 48.5 -28t53.5 -13q5 0 8 0.5t8 2.5q16 2 38 17t41.5 34.5t33.5 40.5t14 34z" />
<glyph unicode="&#xf6;" horiz-adv-x="651" d="M723 451q0 8 -3.5 19t-12.5 11q-4 0 -17 -13l-31 -30q-18 -17 -37.5 -33.5t-37.5 -23.5q-19 40 -49 70t-72 47q-9 12 -26 19.5t-36.5 12t-38.5 6t-34 1.5q-66 0 -122.5 -23t-97.5 -63.5t-64.5 -97t-23.5 -122.5q0 -57 22 -103.5t59 -78.5t86 -49.5t104 -17.5 q62 0 118.5 21.5t99.5 60t69 91.5t26 117v25q15 8 35.5 26.5t39 41t31.5 45.5t13 41zM510 283q0 -45 -16.5 -79t-44.5 -57t-65 -35t-79 -12q-32 0 -63.5 10t-56.5 29.5t-40.5 47.5t-15.5 63q0 38 15 73.5t40.5 62.5t59.5 43.5t73 16.5q26 0 53 -5t50 -17q-6 -8 -8 -18 t-2 -21q0 -43 30 -69.5t70 -32.5zM582 816q0 15 -5.5 32.5t-17.5 32.5t-31 25t-46 10q-41 0 -67.5 -12.5t-42 -31.5t-21.5 -40t-6 -38q0 -15 8 -35.5t22.5 -39t35 -31.5t46.5 -13q27 0 50 15.5t39.5 37.5t26 46t9.5 42zM296 816q0 15 -5.5 32.5t-18 32.5t-31.5 25t-46 10 q-40 0 -66.5 -12.5t-42.5 -31.5t-22 -40t-6 -38q0 -15 8 -35.5t22.5 -39t35.5 -31.5t47 -13q27 0 49.5 15.5t39.5 37.5t26.5 46t9.5 42z" />
<glyph unicode="&#xf7;" horiz-adv-x="981" d="M616 1042q0 23 -8.5 43t-23.5 34.5t-35 23t-43 8.5q-31 0 -59 -8.5t-49 -26t-33.5 -42.5t-12.5 -58q0 -24 11 -47t29 -41.5t40.5 -29.5t46.5 -11q27 0 52 15t43.5 37.5t30 50t11.5 52.5zM920 721q0 15 -18 32.5t-42 32.5t-49 25t-39 10q-51 0 -104.5 -7t-108 -18 t-107.5 -23l-104 -23q-38 -7 -75.5 -15t-75.5 -8q-23 0 -45 6t-43 6q-8 0 -16.5 -7.5t-15.5 -17t-11.5 -20t-4.5 -16.5q0 -21 11 -40t28 -34t37.5 -24t40.5 -9q45 0 90 7.5t90 17.5l90 19q44 10 89 16q39 5 79 6.5t80 4.5t79.5 8.5t76.5 17.5q10 2 22 6t22 10t17 15t7 22z M641 397q0 47 -32 78t-79 31q-30 0 -58 -8.5t-49 -25t-33.5 -41.5t-12.5 -58q0 -24 10.5 -48t28 -42.5t40 -30.5t46.5 -12q27 0 52 15.5t44.5 38.5t31 51t11.5 52z" />
<glyph unicode="&#xf8;" horiz-adv-x="651" d="M723 451q0 8 -3.5 19t-12.5 11q-4 0 -17 -13l-31 -30q-18 -17 -37.5 -33.5t-37.5 -23.5q-13 26 -30 48.5t-40 39.5l17 29q6 11 8 14q4 6 1 18t-9.5 25.5t-17 26.5t-21.5 20q-6 3 -13 3q-6 0 -11 -1q-14 -5 -22 -16v-2h-2q-8 -16 -16 -30l-18 -30q-22 7 -43.5 9t-38.5 2 q-66 0 -122.5 -23t-97.5 -63.5t-64.5 -97t-23.5 -122.5q0 -69 31 -121t80 -83q-3 -7 -4.5 -11.5t-3.5 -7.5q-8 -16 -8.5 -27.5t2.5 -19.5t8 -13t8 -7q10 -7 21 -7l11 2q16 6 32 23q2 3 7 11.5t13 19.5q19 -5 37 -6.5t37 -1.5q62 0 118.5 21.5t99.5 60t69 91.5t26 117v25 q15 8 35.5 26.5t39 41t31.5 45.5t13 41zM510 283q0 -45 -16.5 -79t-44.5 -57t-65 -35t-79 -12h-16l69 112l70 116q14 -19 35.5 -30.5t46.5 -14.5zM360 444l-96 -166l-76 -141q-26 20 -42.5 48t-16.5 65q0 38 15 73.5t40.5 62.5t59.5 43.5t73 16.5h21q11 0 22 -2z" />
<glyph unicode="&#xf9;" horiz-adv-x="731" d="M844 250q0 6 -4 18.5t-10 25t-13 22t-14 8.5q-5 -5 -9 -23.5t-10 -42.5t-14.5 -51t-21.5 -49.5t-31.5 -37t-44.5 -14.5q-22 0 -37.5 17t-25.5 43.5t-15.5 59t-9 64t-6 58t-5.5 41.5q-3 14 -6.5 28.5t-10.5 26.5t-17.5 19.5t-28.5 7.5q-28 0 -47 -27t-33 -67t-26.5 -87 t-28.5 -87t-37.5 -67t-54.5 -27q-31 0 -52.5 14.5t-35.5 38.5t-22.5 54t-12.5 61t-5 60.5t-1 51.5q0 21 -1.5 40t-9 34t-21.5 24t-40 9q-21 0 -33.5 -11.5t-19 -28t-8 -35.5t-1.5 -34q0 -32 4 -75.5t14 -89.5t26 -90.5t40 -80t57 -57t75 -21.5t75 17.5t58.5 45.5t43.5 63 t31 69q3 7 8.5 26.5t12.5 40.5t15 37.5t14 16.5q5 0 8 -13.5t5.5 -31t4 -34t2.5 -22.5q4 -31 12 -66t24 -65t41.5 -49.5t63.5 -19.5q48 0 84 25.5t59 64.5t34.5 85t11.5 87zM361 677q0 -14 -13.5 -26.5t-27.5 -12.5q-8 0 -31.5 11t-53.5 28l-64 39q-34 21 -63 41.5t-49 38 t-24 26.5q-2 5 -2 9v8q0 10 6.5 24.5t16.5 28t22 23.5t23 10t34.5 -16t52 -40.5t59.5 -54t56 -57t41.5 -49.5t16.5 -31z" />
<glyph unicode="&#xfa;" horiz-adv-x="731" d="M844 250q0 6 -4 18.5t-10 25t-13 22t-14 8.5q-5 -5 -9 -23.5t-10 -42.5t-14.5 -51t-21.5 -49.5t-31.5 -37t-44.5 -14.5q-22 0 -37.5 17t-25.5 43.5t-15.5 59t-9 64t-6 58t-5.5 41.5q-3 14 -6.5 28.5t-10.5 26.5t-17.5 19.5t-28.5 7.5q-28 0 -47 -27t-33 -67t-26.5 -87 t-28.5 -87t-37.5 -67t-54.5 -27q-31 0 -52.5 14.5t-35.5 38.5t-22.5 54t-12.5 61t-5 60.5t-1 51.5q0 21 -1.5 40t-9 34t-21.5 24t-40 9q-21 0 -33.5 -11.5t-19 -28t-8 -35.5t-1.5 -34q0 -32 4 -75.5t14 -89.5t26 -90.5t40 -80t57 -57t75 -21.5t75 17.5t58.5 45.5t43.5 63 t31 69q3 7 8.5 26.5t12.5 40.5t15 37.5t14 16.5q5 0 8 -13.5t5.5 -31t4 -34t2.5 -22.5q4 -31 12 -66t24 -65t41.5 -49.5t63.5 -19.5q48 0 84 25.5t59 64.5t34.5 85t11.5 87zM587 839v-8q0 -4 -2 -9q-4 -9 -24 -26.5t-49 -38t-63 -41.5l-64 -39q-30 -17 -53.5 -28t-31.5 -11 q-14 0 -27.5 12.5t-13.5 26.5q0 9 16.5 31t41.5 49.5t56 57t59.5 54t52 40.5t34.5 16t23 -10t22 -23.5t16.5 -28t6.5 -24.5z" />
<glyph unicode="&#xfb;" horiz-adv-x="731" d="M844 250q0 6 -4 18.5t-10 25t-13 22t-14 8.5q-5 -5 -9 -23.5t-10 -42.5t-14.5 -51t-21.5 -49.5t-31.5 -37t-44.5 -14.5q-22 0 -37.5 17t-25.5 43.5t-15.5 59t-9 64t-6 58t-5.5 41.5q-3 14 -6.5 28.5t-10.5 26.5t-17.5 19.5t-28.5 7.5q-28 0 -47 -27t-33 -67t-26.5 -87 t-28.5 -87t-37.5 -67t-54.5 -27q-31 0 -52.5 14.5t-35.5 38.5t-22.5 54t-12.5 61t-5 60.5t-1 51.5q0 21 -1.5 40t-9 34t-21.5 24t-40 9q-21 0 -33.5 -11.5t-19 -28t-8 -35.5t-1.5 -34q0 -32 4 -75.5t14 -89.5t26 -90.5t40 -80t57 -57t75 -21.5t75 17.5t58.5 45.5t43.5 63 t31 69q3 7 8.5 26.5t12.5 40.5t15 37.5t14 16.5q5 0 8 -13.5t5.5 -31t4 -34t2.5 -22.5q4 -31 12 -66t24 -65t41.5 -49.5t63.5 -19.5q48 0 84 25.5t59 64.5t34.5 85t11.5 87zM545 695q0 2 -4 11l-9 20l-10 19q-5 9 -7 12q-15 29 -34.5 63.5t-45 65t-56 51t-67.5 20.5 q-15 0 -36.5 -16.5t-46 -42t-48.5 -56t-43 -58t-31 -49.5t-12 -29q0 -17 14 -33.5t33 -16.5q12 0 25.5 16t28 39.5t29.5 50.5l29 52q13 23 25.5 39t22.5 16q4 0 14 -13t23.5 -33l28.5 -44l28 -46l24 -39q10 -17 15 -23q15 -19 39 -19q8 0 20.5 3.5t23.5 9t19 13.5t8 17z" />
<glyph unicode="&#xfc;" horiz-adv-x="731" d="M844 250q0 6 -4 18.5t-10 25t-13 22t-14 8.5q-5 -5 -9 -23.5t-10 -42.5t-14.5 -51t-21.5 -49.5t-31.5 -37t-44.5 -14.5q-22 0 -37.5 17t-25.5 43.5t-15.5 59t-9 64t-6 58t-5.5 41.5q-3 14 -6.5 28.5t-10.5 26.5t-17.5 19.5t-28.5 7.5q-28 0 -47 -27t-33 -67t-26.5 -87 t-28.5 -87t-37.5 -67t-54.5 -27q-31 0 -52.5 14.5t-35.5 38.5t-22.5 54t-12.5 61t-5 60.5t-1 51.5q0 21 -1.5 40t-9 34t-21.5 24t-40 9q-21 0 -33.5 -11.5t-19 -28t-8 -35.5t-1.5 -34q0 -32 4 -75.5t14 -89.5t26 -90.5t40 -80t57 -57t75 -21.5t75 17.5t58.5 45.5t43.5 63 t31 69q3 7 8.5 26.5t12.5 40.5t15 37.5t14 16.5q5 0 8 -13.5t5.5 -31t4 -34t2.5 -22.5q4 -31 12 -66t24 -65t41.5 -49.5t63.5 -19.5q48 0 84 25.5t59 64.5t34.5 85t11.5 87zM582 816q0 15 -5.5 32.5t-17.5 32.5t-31 25t-46 10q-41 0 -67.5 -12.5t-42 -31.5t-21.5 -40t-6 -38 q0 -15 8 -35.5t22.5 -39t35 -31.5t46.5 -13q27 0 50 15.5t39.5 37.5t26 46t9.5 42zM296 816q0 15 -5.5 32.5t-18 32.5t-31.5 25t-46 10q-40 0 -66.5 -12.5t-42.5 -31.5t-22 -40t-6 -38q0 -15 8 -35.5t22.5 -39t35.5 -31.5t47 -13q27 0 49.5 15.5t39.5 37.5t26.5 46t9.5 42z " />
<glyph unicode="&#xfd;" horiz-adv-x="618" d="M608 -604q0 184 -10 363l-18 362l-2 55q-2 34 -6 74t-11.5 80.5t-20.5 73.5t-33.5 54t-49.5 21t-56 -27t-51.5 -67t-46.5 -87l-41 -87q-20 -40 -37 -67t-32 -27q-11 0 -22.5 22.5t-22 57t-20.5 76.5l-18 81l-16 69q-7 31 -12 44q-5 11 -10.5 16.5t-18.5 5.5 q-9 0 -21.5 -5.5t-24 -14t-19.5 -19t-8 -20.5q0 -22 7.5 -52.5t12.5 -53.5q4 -20 9.5 -53t14 -71t21 -77t29 -70t38 -51t48.5 -20q28 0 54.5 24t51.5 60t48.5 78.5t45.5 78.5t42 60t38 24q14 0 21.5 -10.5t11 -25.5t4 -30.5t0.5 -25.5q0 -117 -6 -234.5t-13.5 -234.5 t-13.5 -233.5t-6 -233.5q0 -21 0.5 -57.5t2 -75t5 -73t9.5 -52.5q6 -20 21 -37.5t38 -17.5q10 0 19.5 6.5t18 15.5t14.5 19t9 18q12 25 18.5 74.5t9.5 105.5t4 108.5t1 82.5zM546 859v-8q0 -4 -2 -9q-4 -9 -24 -26.5t-49 -38t-63 -41.5l-64 -39q-30 -17 -53.5 -28t-31.5 -11 q-14 0 -27.5 12.5t-13.5 26.5q0 9 16.5 31t41.5 49.5t56 57t59.5 54t52 40.5t34.5 16t23 -10t22 -23.5t16.5 -28t6.5 -24.5z" />
<glyph unicode="&#xfe;" horiz-adv-x="702" d="M682 293q0 48 -18.5 86.5t-50 64.5t-73 40t-87.5 14q-54 0 -100.5 -21t-85.5 -55t-69 -77.5t-51 -88.5q8 289 13.5 575.5t5.5 575.5q0 6 -6.5 19.5t-14.5 13.5h-2q-5 0 -8 -2.5t-6 -5.5q-13 -18 -23.5 -71.5t-19 -133t-15.5 -180t-12.5 -213.5t-10 -233t-7.5 -238.5 t-5 -231t-3 -209t-1.5 -172.5t-0.5 -123q0 -96 1 -178.5t2.5 -146.5t4 -106.5t6.5 -57.5q5 -28 22.5 -45t28.5 -19q6 0 15 3.5t17 11t14.5 18t9.5 25.5q9 55 11.5 125t2.5 151q0 143 -5 283.5t-11 283.5q4 36 12.5 82t24 94.5t37.5 95.5t51.5 83.5t67.5 59t85 22.5 q27 0 50 -9t40.5 -25.5t27 -39t9.5 -49.5q0 -51 -27.5 -83.5t-67 -53t-83.5 -31.5t-78 -17q-29 -6 -41 -10t-12 -10q0 -9 4.5 -22t12 -26t17 -22.5t19.5 -11.5q8 -2 18.5 -3t22.5 -1q68 0 129.5 18.5t109 55t75.5 92t28 129.5z" />
<glyph unicode="&#xff;" horiz-adv-x="618" d="M608 -604q0 184 -10 363l-18 362l-2 55q-2 34 -6 74t-11.5 80.5t-20.5 73.5t-33.5 54t-49.5 21t-56 -27t-51.5 -67t-46.5 -87l-41 -87q-20 -40 -37 -67t-32 -27q-11 0 -22.5 22.5t-22 57t-20.5 76.5l-18 81l-16 69q-7 31 -12 44q-5 11 -10.5 16.5t-18.5 5.5 q-9 0 -21.5 -5.5t-24 -14t-19.5 -19t-8 -20.5q0 -22 7.5 -52.5t12.5 -53.5q4 -20 9.5 -53t14 -71t21 -77t29 -70t38 -51t48.5 -20q28 0 54.5 24t51.5 60t48.5 78.5t45.5 78.5t42 60t38 24q14 0 21.5 -10.5t11 -25.5t4 -30.5t0.5 -25.5q0 -117 -6 -234.5t-13.5 -234.5 t-13.5 -233.5t-6 -233.5q0 -21 0.5 -57.5t2 -75t5 -73t9.5 -52.5q6 -20 21 -37.5t38 -17.5q10 0 19.5 6.5t18 15.5t14.5 19t9 18q12 25 18.5 74.5t9.5 105.5t4 108.5t1 82.5zM562 775q0 15 -5.5 32.5t-17.5 32.5t-31 25t-46 10q-41 0 -67.5 -12.5t-42 -31.5t-21.5 -40 t-6 -38q0 -15 8 -35.5t22.5 -39t35 -31.5t46.5 -13q27 0 50 15.5t39.5 37.5t26 46t9.5 42zM276 775q0 15 -5.5 32.5t-18 32.5t-31.5 25t-46 10q-40 0 -66.5 -12.5t-42.5 -31.5t-22 -40t-6 -38q0 -15 8 -35.5t22.5 -39t35.5 -31.5t47 -13q27 0 49.5 15.5t39.5 37.5t26.5 46 t9.5 42z" />
<glyph unicode="&#x131;" horiz-adv-x="442" d="M606 328q0 12 -10 22t-23 10q-9 0 -23.5 -18.5t-33 -46.5t-42 -60.5t-51 -60.5t-59 -46.5t-67.5 -18.5q-44 0 -69 26t-37.5 64t-15.5 80t-3 73q0 32 3 64.5t3 64.5q0 16 -11.5 24.5t-27.5 8.5q-13 0 -24 -8q-10 -6 -17.5 -25t-13 -44.5t-9 -55t-5.5 -57t-3 -50t-1 -34.5 q0 -50 10.5 -97t34.5 -83t63 -58t96 -22q41 0 77 13.5t66.5 36.5t57 52.5t47.5 60.5q9 13 24 38t29.5 52.5t24.5 53.5t10 41z" />
<glyph unicode="&#x152;" horiz-adv-x="2548" d="M2578 1155q0 62 -36.5 108t-95 79t-131.5 54.5t-146.5 34.5t-140 18t-111.5 5q-56 0 -123 -9.5t-137 -28t-139 -46t-128.5 -64.5t-106 -83.5t-71.5 -102.5q-12 17 -32 33t-43 16q-7 0 -11 -2t-4 -10q0 -5 1 -8t1 -8q22 -55 41.5 -111.5t34 -114t23 -116t8.5 -119.5 q0 -118 -38 -223t-108 -183.5t-169.5 -124t-221.5 -45.5q-115 0 -212.5 35.5t-168 102t-110 161t-39.5 211.5q0 78 19 160t55 159t87.5 145.5t115.5 119.5t140.5 81t161.5 30q26 0 57.5 -6t58.5 -20t45 -36.5t18 -54.5q0 -24 -8.5 -41t-19 -35t-19.5 -39.5t-9 -54.5 q0 -9 0.5 -22.5t4.5 -26t11.5 -21t22.5 -8.5q37 0 68.5 32.5t54 78t35 93t12.5 77.5q0 57 -25.5 95.5t-66 61t-89.5 32t-97 9.5q-103 0 -200 -34.5t-182.5 -94t-156 -140t-121 -173t-78.5 -192.5t-28 -199q0 -135 49.5 -249.5t136 -197.5t202.5 -129.5t249 -46.5 q96 0 183.5 24.5t163 69t137 107.5t105 139.5t67.5 164.5t24 183q0 16 -1 31.5t-1 32.5q65 -50 136.5 -83.5t149.5 -53.5q-51 -23 -106 -56t-100 -75.5t-74 -95t-29 -115.5q0 -61 25 -108t66.5 -81t95 -56.5t111 -36t114.5 -19t104 -5.5q84 0 170.5 13.5t169 42.5t157 74 t132.5 108q5 5 14 16l19 24q10 12 17 24.5t7 19.5q0 8 -4.5 16.5t-13.5 8.5q-7 0 -16 -4t-18.5 -9.5t-17.5 -11.5t-14 -10q-75 -50 -148.5 -86t-150 -59.5t-158 -34.5t-172.5 -11q-31 0 -67.5 2t-73.5 8.5t-71 18.5t-60.5 32.5t-42.5 51t-16 72.5q0 61 20.5 105.5t52 77 t67.5 55.5l67 44q32 19 52.5 35.5t20.5 36.5q0 18 -30 33t-75.5 34t-98 46t-98 68t-75.5 100t-30 143q0 58 25.5 107t68 88.5t97.5 69t114 49.5t117 30t106 10q33 0 83.5 -2.5t107 -10t112.5 -21.5t101.5 -37t73.5 -57t28 -81q0 -40 -13.5 -68.5t-36 -49t-51.5 -36 t-61 -30.5q-13 -6 -33 -21t-38.5 -34t-32 -39t-13.5 -35q0 -9 8 -15.5t18.5 -10.5t21 -5.5t16.5 -1.5q38 0 82.5 13.5t89.5 37.5t87 56.5t74.5 70t52 78.5t19.5 82z" />
<glyph unicode="&#x153;" horiz-adv-x="1243" d="M1325 172q0 11 -7 23t-20 12q-5 0 -20 -11l-38 -28l-52 -37q-29 -20 -64 -36.5t-74 -28t-81 -11.5q-15 0 -34 2.5t-36 9.5t-29 19t-12 31q0 20 12 35t30 28.5t39 26.5t39 28t30 34t12 44q0 23 -14.5 36t-37 21.5t-48 13.5t-48 11t-37 14.5t-14.5 24.5q0 18 25.5 39 t59.5 39t68 29.5t50 11.5q6 0 14 -0.5t15.5 -3t12.5 -7.5t5 -14q0 -12 -7 -23t-7 -24q0 -20 18 -33.5t37 -13.5q37 0 63.5 26.5t26.5 63.5q0 31 -11.5 52t-31 34t-44.5 19t-52 6q-54 0 -106 -13t-100.5 -35.5t-92.5 -53.5t-82 -68l-46 -45q-24 -22 -52 -39q-17 40 -49 70 t-72 47q-10 12 -26.5 19.5t-35 12t-37.5 6t-34 1.5q-66 0 -122.5 -22.5t-98.5 -63t-65.5 -97t-23.5 -123.5q0 -56 22 -102t59.5 -78.5t86.5 -50.5t103 -18q62 0 118.5 21.5t99.5 60t69 91.5t26 117v25q26 14 45.5 37.5t36.5 46.5q16 -17 48 -27t64.5 -18.5t56.5 -17 t24 -21.5q0 -12 -12.5 -23t-31.5 -24l-41 -26q-22 -14 -41 -31.5t-31.5 -40t-12.5 -50.5q0 -43 21.5 -71.5t54.5 -44.5t72 -22.5t73 -6.5q77 0 151 26t136 74q8 6 25 21l36 34q19 18 33 35t14 25zM510 283q0 -44 -16 -78t-44 -57.5t-64.5 -35.5t-78.5 -12q-32 0 -64 10.5 t-57.5 30t-41 47.5t-15.5 62q0 39 14.5 74.5t40 62.5t59.5 43t74 16q26 0 53 -5t52 -17q-8 -8 -10 -18t-2 -21q0 -43 30 -69.5t70 -32.5z" />
<glyph unicode="&#x178;" horiz-adv-x="1247" d="M1227 1190q0 29 -1.5 66.5t-12 71t-33 56.5t-64.5 23q-37 0 -67.5 -19.5t-49.5 -50.5q-22 -36 -38 -94t-29 -131.5t-24 -157.5l-23 -174q-12 -89 -25.5 -178t-32 -170.5t-43 -152t-57 -122.5t-75 -82t-97.5 -30q-83 0 -140.5 43.5t-94.5 114t-57 159t-29.5 178t-11 171.5 t-1.5 139q0 99 3 197t3 198q0 80 -37.5 125t-121.5 45q-25 0 -49.5 -4t-47.5 -12q-10 -3 -32 -12.5t-45 -22t-40.5 -25.5t-17.5 -24q0 -8 5.5 -13t13.5 -8t16.5 -4.5t13.5 -1.5q25 0 48.5 5.5t47 12t46.5 12t47 5.5q9 0 20 -2.5t20.5 -8t16 -13.5t6.5 -19q0 -24 -4 -50 t-9 -52l-12 -52q-6 -26 -10 -49q-20 -106 -33.5 -213.5t-13.5 -216.5q0 -74 7 -154.5t24.5 -158t49 -148t81 -123.5t118.5 -84.5t163 -31.5t164.5 38.5t122.5 105t87 154.5t59 186.5t39 202.5t26 202l19 184q9 86 21 149q3 14 8.5 36t14.5 43t22 36.5t31 15.5q5 0 7 -5.5 t3.5 -12.5t1.5 -14v-11q0 -106 -19 -212l-38 -209q-18 -111 -38 -222t-36 -223t-26.5 -224.5t-10.5 -225.5q0 -21 2 -58t6 -82t11.5 -92.5t19 -88.5t27 -70t35.5 -37h18q11 0 28 2t32.5 7t27 14t11.5 24q0 46 -6 91t-9 91q-6 74 -8 149t-2 150q0 144 12 287.5t27 287t27 287 t12 287.5zM883 1649q0 15 -5.5 32.5t-17.5 32.5t-31 25t-46 10q-41 0 -67.5 -12.5t-42 -31.5t-21.5 -40t-6 -38q0 -15 8 -35.5t22.5 -39t35 -31.5t46.5 -13q27 0 50 15.5t39.5 37.5t26 46t9.5 42zM597 1649q0 15 -5.5 32.5t-18 32.5t-31.5 25t-46 10q-40 0 -66.5 -12.5 t-42.5 -31.5t-22 -40t-6 -38q0 -15 8 -35.5t22.5 -39t35.5 -31.5t47 -13q27 0 49.5 15.5t39.5 37.5t26.5 46t9.5 42z" />
<glyph unicode="&#x2c6;" horiz-adv-x="1376" d="M913 1165q0 2 -4 11l-9 20l-10 19q-5 9 -7 12q-15 29 -34.5 63.5t-45 65t-56 51t-67.5 20.5q-15 0 -36.5 -16.5t-46 -42t-48.5 -56t-43 -58t-31 -49.5t-12 -29q0 -17 14 -33.5t33 -16.5q12 0 25.5 16t28 39.5t29.5 50.5l29 52q13 23 25.5 39t22.5 16q4 0 14 -13t23.5 -33 l28.5 -44l28 -46l24 -39q10 -17 15 -23q15 -19 39 -19q8 0 20.5 3.5t23.5 9t19 13.5t8 17z" />
<glyph unicode="&#x2da;" horiz-adv-x="1376" d="M887 1260q0 40 -15 73.5t-41 57.5t-60 37.5t-73 13.5q-44 0 -82.5 -15.5t-66.5 -43t-44 -65.5t-16 -83q0 -39 15 -71t40.5 -54.5t59.5 -34.5t72 -12q41 0 79 15t67 41t47 62.5t18 78.5zM799 1262q0 -23 -10 -41t-26.5 -30t-37 -18t-41.5 -6q-17 0 -34 5.5t-31 15.5 t-22.5 25t-8.5 34q0 22 8 41.5t22 34.5t33 24t41 9q45 0 76 -23t31 -71z" />
<glyph unicode="&#x2dc;" horiz-adv-x="1376" d="M911 1343q0 6 -3.5 14.5t-9.5 17t-13 14.5t-13 6q-7 0 -16.5 -9t-20 -20t-22.5 -20t-25 -9q-21 0 -43.5 13t-45.5 28t-46.5 28t-48.5 13q-8 0 -12 -2q-16 -3 -38 -18t-41.5 -34.5t-33.5 -40t-14 -34.5q0 -5 4.5 -13.5t11 -17t14 -14.5t13.5 -6q8 0 16 9l18 20 q10 10 21 19t23 9q18 0 38 -13l42 -28q23 -15 48.5 -28t53.5 -13q5 0 8 0.5t8 2.5q16 2 38 17t41.5 34.5t33.5 40.5t14 34z" />
<glyph unicode="&#x2000;" horiz-adv-x="928" />
<glyph unicode="&#x2001;" horiz-adv-x="1857" />
<glyph unicode="&#x2002;" horiz-adv-x="928" />
<glyph unicode="&#x2003;" horiz-adv-x="1857" />
<glyph unicode="&#x2004;" horiz-adv-x="619" />
<glyph unicode="&#x2005;" horiz-adv-x="464" />
<glyph unicode="&#x2006;" horiz-adv-x="309" />
<glyph unicode="&#x2007;" horiz-adv-x="309" />
<glyph unicode="&#x2008;" horiz-adv-x="232" />
<glyph unicode="&#x2009;" horiz-adv-x="371" />
<glyph unicode="&#x200a;" horiz-adv-x="103" />
<glyph unicode="&#x2010;" horiz-adv-x="981" d="M920 721q1 15 -17 32.5t-42.5 32.5t-49.5 25t-39 10q-32 0 -81 -7t-106 -18l-117 -22l-113 -22q-53 -11 -95 -18t-63 -7q-23 0 -44 6t-44 6h-3q-6 1 -14 -5.5t-14.5 -16.5t-11.5 -20.5t-5 -18.5q0 -20 11 -39t28.5 -34t38 -24.5t39.5 -9.5q41 0 81 6.5t83 16.5l90 20 q48 10 105 17q58 7 109 11.5t92 8.5t70 8t44 9q32 9 50 20t18 33z" />
<glyph unicode="&#x2011;" horiz-adv-x="981" d="M920 721q1 15 -17 32.5t-42.5 32.5t-49.5 25t-39 10q-32 0 -81 -7t-106 -18l-117 -22l-113 -22q-53 -11 -95 -18t-63 -7q-23 0 -44 6t-44 6h-3q-6 1 -14 -5.5t-14.5 -16.5t-11.5 -20.5t-5 -18.5q0 -20 11 -39t28.5 -34t38 -24.5t39.5 -9.5q41 0 81 6.5t83 16.5l90 20 q48 10 105 17q58 7 109 11.5t92 8.5t70 8t44 9q32 9 50 20t18 33z" />
<glyph unicode="&#x2013;" horiz-adv-x="1147" d="M1085 721q0 15 -18 32.5t-42 32.5t-48.5 25t-38.5 10q-69 0 -138 -7t-138 -18t-137 -23l-136 -23q-49 -7 -96.5 -15t-95.5 -8q-23 0 -45 6t-43 6q-8 0 -16.5 -7t-15.5 -16.5t-11.5 -20t-4.5 -17.5q0 -21 11 -40t28 -34t37.5 -24t40.5 -9q54 0 107 7t106 16.5t105.5 20 t105.5 16.5q47 5 101.5 6.5t110 4t108.5 8t96 18.5q9 2 20.5 6t22 10t17.5 15t7 22z" />
<glyph unicode="&#x2014;" horiz-adv-x="2169" d="M2107 721q0 15 -18 32.5t-42 32.5t-48.5 25t-38.5 10q-80 0 -160 -6q-200 -11 -400 -26l-402 -29q-200 -14 -400.5 -23.5t-400.5 -9.5q-23 0 -45 6t-43 6q-8 0 -16.5 -7t-15.5 -16.5t-11.5 -20t-4.5 -17.5q0 -21 11 -40t28 -34t37.5 -24t40.5 -9q246 0 487.5 17.5 t485.5 42.5q166 17 331.5 19t329.5 5q13 1 39.5 0.5t59 0t67.5 4t63.5 10.5t47 19.5t18.5 31.5z" />
<glyph unicode="&#x2018;" horiz-adv-x="588" d="M526 1098q0 13 -8 24t-21 24l-27 25l-29 25l-25 23l-102 92q-51 46 -105 90l-15 13q-9 7 -19.5 14t-21.5 11.5t-20 4.5q-11 0 -23.5 -5.5t-23.5 -14t-18 -19.5t-7 -23q0 -15 28 -46t71 -68t94 -76.5t98 -71.5t82.5 -52.5t46.5 -20.5q19 0 32 16t13 35z" />
<glyph unicode="&#x2019;" horiz-adv-x="545" d="M483 1391q0 -10 -5 -21.5t-12.5 -22t-16 -19.5t-15.5 -15l-113 -115l-116 -111q-16 -15 -33.5 -33.5t-36.5 -29.5q-9 -6 -22 -6q-9 0 -18 4t-16.5 10.5t-12.5 15t-5 17.5q0 12 5 22q5 12 28 43l57 70l73 82l75 82q36 37 65.5 64t43.5 32q5 2 8 3t8 1q12 0 22.5 -7.5 t18.5 -19t13 -24t5 -22.5z" />
<glyph unicode="&#x201a;" horiz-adv-x="395" d="M334 47q0 39 -11 69.5t-28.5 51.5t-40 32t-45.5 11q-63 0 -105.5 -35.5t-42.5 -101.5q0 -17 8.5 -39t25 -41.5t39.5 -33.5t52 -15q3 -13 5 -26.5t2 -27.5q0 -38 -11.5 -76t-25 -69t-25 -51t-12.5 -21v-4q2 0 3 -1l1 -1q2 0 2 2q1 0 10 6.5t24 19t33.5 31t38.5 42.5 q18 22 36.5 51t33 64.5t24 76.5t9.5 86z" />
<glyph unicode="&#x201c;" horiz-adv-x="727" d="M668 1098q0 8 -3 13t-8 11q-8 11 -21 24l-28 25l-28 25l-25 23l-101 92l-104 90q-7 5 -16.5 12.5t-20 14.5t-20.5 11.5t-19 4.5q-10 0 -23 -5.5t-24 -14t-18.5 -19.5t-7.5 -23q0 -15 28 -46t71 -68t94 -76.5t97.5 -71.5t82.5 -52.5t47 -20.5q18 0 32.5 16t14.5 35z M569 934q0 11 -3 18t-11 15q-9 8 -22 17l-27 18l-29 17q-14 8 -24 15l-123 78l-127 76q-14 9 -35.5 20t-38.5 11q-12 0 -24 -7t-21.5 -17.5t-16 -22.5t-6.5 -23q0 -6 3 -12t6 -13q10 -13 44 -35.5t80.5 -49.5t99.5 -55l100 -50q46 -22 81.5 -36.5t46.5 -14.5q22 0 34.5 15.5 t12.5 35.5z" />
<glyph unicode="&#x201d;" horiz-adv-x="727" d="M483 1391q0 -10 -5 -21.5t-12.5 -22t-16 -19.5t-15.5 -15l-113 -115l-116 -111q-16 -15 -33.5 -33.5t-36.5 -29.5q-9 -6 -22 -6q-9 0 -18 4t-16.5 10.5t-12.5 15t-5 17.5q0 12 5 22q5 12 28.5 42.5t57.5 70.5l72 82l76 82q36 37 65.5 64t42.5 32q5 2 8 3t8 1 q12 0 22.5 -7.5t18.5 -19t13 -24t5 -22.5zM666 1196q0 -6 -1 -11.5t-3 -10.5q-8 -14 -26 -30l-32 -26l-40 -28l-66 -47l-78 -54l-78 -51q-37 -24 -63.5 -39.5t-34.5 -15.5q-19 0 -35 16t-16 35q0 8 2.5 14t7.5 13q9 11 38.5 38.5t70.5 61.5l88 71q46 37 89 67.5t76.5 50.5 t48.5 20q12 0 22 -8t16.5 -19t10 -24t3.5 -23z" />
<glyph unicode="&#x201e;" horiz-adv-x="690" d="M629 47q0 39 -11 69.5t-28.5 51.5t-40 32t-45.5 11q-63 0 -105.5 -35.5t-42.5 -101.5q0 -17 8.5 -39t24.5 -41.5t39.5 -33.5t52.5 -15q6 -26 6 -54q0 -38 -11 -76t-24.5 -69t-25 -51t-12.5 -21v-4q2 0 3 -1l1 -1q2 0 2 2q1 0 10 6.5t24 19t33.5 31t38.5 42.5q18 22 36 51 t33 64.5t24.5 76.5t9.5 86zM334 47q0 39 -11 69.5t-28.5 51.5t-40 32t-45.5 11q-63 0 -105.5 -35.5t-42.5 -101.5q0 -17 8.5 -39t25 -41.5t39.5 -33.5t52 -15q3 -13 5 -26.5t2 -27.5q0 -38 -11.5 -76t-25 -69t-25 -51t-12.5 -21v-4q2 0 3 -1l1 -1q2 0 2 2q1 0 10 6.5t24 19 t33.5 31t38.5 42.5q18 22 36.5 51t33 64.5t24 76.5t9.5 86z" />
<glyph unicode="&#x2022;" horiz-adv-x="459" d="M397 655q0 30 -11 55.5t-29.5 44.5t-44.5 29.5t-56 10.5q-39 0 -74.5 -11.5t-62 -33.5t-42.5 -54.5t-16 -74.5q0 -30 14 -59.5t37 -53.5t52 -38.5t59 -14.5q34 0 65.5 19.5t55.5 49.5t38.5 65t14.5 66z" />
<glyph unicode="&#x2026;" horiz-adv-x="1206" d="M1145 100q0 16 -6 35.5t-19.5 36t-34.5 28t-51 11.5q-45 0 -75 -14t-47 -35t-24 -45t-7 -43q0 -17 8.5 -39.5t24.5 -43t39.5 -34.5t52.5 -14q30 0 55.5 17t44 41.5t29 51.5t10.5 47zM735 100q0 16 -6 35.5t-19 36t-34 28t-51 11.5q-45 0 -75 -14t-47.5 -35t-24.5 -45 t-7 -43q0 -17 8.5 -39.5t24.5 -43t39.5 -34.5t52.5 -14q31 0 56.5 17t44 41.5t28.5 51.5t10 47zM326 100q0 16 -6 35.5t-19.5 36t-34.5 28t-51 11.5q-45 0 -75 -14t-47.5 -35t-24.5 -45t-7 -43q0 -17 8.5 -39.5t25 -43t39.5 -34.5t52 -14q31 0 56.5 17t44 41.5t29 51.5 t10.5 47z" />
<glyph unicode="&#x202f;" horiz-adv-x="371" />
<glyph unicode="&#x2039;" horiz-adv-x="461" d="M399 840q0 9 -3 24t-9 30t-15.5 25.5t-21.5 10.5q-2 0 -11 -6l-20 -12q-11 -7 -20.5 -14t-13.5 -9l-73 -47q-40 -25 -73.5 -57.5t-55.5 -71t-22 -84.5q0 -17 13 -39.5t33.5 -46.5t46.5 -49l51 -46q25 -22 47.5 -39.5t36.5 -27.5q2 -1 9 -7l16 -11q8 -6 15.5 -10.5 t10.5 -4.5q10 0 19.5 5.5t17 13.5t12 18.5t4.5 20.5q0 15 -17.5 32.5t-43.5 36t-56.5 38t-56.5 38t-43.5 35t-17.5 30.5q0 8 14 22t36 31t48 35l52 35l44 31q20 13 29 21q11 11 14.5 23t3.5 26z" />
<glyph unicode="&#x203a;" horiz-adv-x="461" d="M399 629q0 46 -22 84.5t-55 71t-72 57.5l-74 47q-4 2 -13.5 9t-20.5 14l-20 12q-9 6 -11 6q-12 0 -21 -10.5t-15.5 -25.5t-10 -30t-3.5 -24q0 -28 21 -49q8 -8 28 -21l44 -31l51 -35q26 -18 48 -35t36 -31t14 -22q0 -14 -17.5 -30.5t-43.5 -35t-56.5 -38t-56.5 -38 t-43.5 -36t-17.5 -32.5q0 -10 5 -20.5t12.5 -18.5t17 -13.5t18.5 -5.5q3 0 10.5 4.5t16 10.5t15.5 11.5t9 6.5l36 27l48 40l50.5 46.5t46 48.5t33.5 46.5t13 39.5z" />
<glyph unicode="&#x205f;" horiz-adv-x="464" />
<glyph unicode="&#x20ac;" horiz-adv-x="1198" d="M1137 582q0 -9 -4.5 -23.5t-11.5 -30.5l-13 -30q-7 -15 -12 -23q-31 -52 -74.5 -90.5t-94.5 -64t-108.5 -38t-118.5 -12.5q-70 0 -135 15.5t-119.5 47.5t-96.5 82.5t-66 119.5q-35 -7 -71 -13t-71 -6q-11 0 -25 5.5t-26 14.5t-20.5 20.5t-8.5 23.5q0 5 4 11t9 11.5 t11.5 9.5t10.5 4q17 0 33 -4t33 -4q25 0 50 4l48 9q-2 15 -3 30.5t-1 30.5q0 17 0.5 33t3.5 33q-26 -4 -53 -7.5t-53 -3.5q-12 0 -28 5t-30.5 14t-24.5 21t-10 26q0 5 4 11t10 11t13 9t12 4q17 0 34 -4.5t36 -4.5q28 0 57 5t58 8q26 76 77.5 143.5t119 118.5t146.5 80.5 t160 29.5q36 0 79 -5.5t79.5 -21.5t61 -45t24.5 -75q0 -51 -22.5 -95.5t-57.5 -78.5q-17 -16 -34.5 -26.5t-40.5 -10.5t-32 14t-9 35q0 30 8.5 49t17.5 34l18 28q9 14 9 33q0 24 -10 39.5t-26 24.5t-36 12t-41 3q-57 0 -114 -23t-107 -60.5t-90.5 -85.5t-63.5 -99l110 16 q56 9 110 9q9 0 28 -6t38 -15t33.5 -20t14.5 -21q0 -7 -6 -12.5t-14.5 -8.5t-17.5 -5t-15 -4q-23 -5 -48.5 -6t-49.5 -3q-53 -5 -105 -9t-106 -9q-6 -37 -6 -78q0 -12 1 -24.5t1 -24.5q48 8 97 17.5t97 9.5q9 0 26.5 -6t34.5 -15.5t29.5 -20.5t12.5 -20q0 -7 -5 -13 t-12.5 -9.5t-16 -6t-14.5 -4.5q-18 -4 -46.5 -7t-59.5 -5t-61 -3t-50 -3q44 -90 122 -133t175 -43q75 0 130.5 17.5t95.5 43.5t67.5 56.5t47 56.5t34.5 43.5t29 17.5q12 0 23.5 -8t11.5 -22z" />
<glyph unicode="&#x2122;" horiz-adv-x="1405" d="M1343 834q0 15 -10 21.5t-24 6.5q-16 0 -30.5 -4t-31.5 -4q14 53 22.5 106t8.5 107q0 18 -1.5 43.5t-6 53.5t-12.5 56t-20.5 50t-31 35.5t-43.5 13.5q-38 0 -66 -24.5t-48.5 -59.5t-33.5 -73.5t-22 -67.5q0 3 -1 7t-1 7q-4 26 -8.5 62t-16 70t-32 57.5t-55.5 23.5 q-37 0 -65 -22t-48.5 -57t-35 -79t-24 -87.5t-16.5 -83.5l-10 -66q-6 45 -14 87.5t-19 86.5q-4 12 -12.5 34t-20 43.5t-26 37.5t-29.5 16t-33 -11t-18 -28q36 -82 63 -168q14 -42 21.5 -84.5t21.5 -85.5q2 -6 7 -15.5t12 -19t15 -16t16 -6.5q14 0 28 6.5t25 15.5 q7 7 15.5 41.5l19.5 82.5l22 102q11 54 24.5 100t28.5 76t31 30q11 0 19 -18t13.5 -45.5t9 -61t5.5 -64t3 -55t1 -34.5q0 -20 -1 -40t-1 -40q0 -12 0.5 -28t4.5 -30.5t13 -25t25 -10.5q17 0 28 12.5t19 26.5q6 15 15 52l20 82l24 96q12 49 26 89.5t29.5 67t31.5 26.5 q8 0 15 -14.5t12 -37t9 -49.5t6.5 -52.5t3.5 -45.5t1 -28q0 -46 -3 -91t-3 -91q0 -12 6.5 -23t16.5 -18.5t22.5 -12t23.5 -4.5q9 0 24 3.5t29.5 10.5t25.5 16t11 20zM483 1264q0 11 -6.5 21t-16.5 17.5t-21.5 12t-22.5 4.5q-36 0 -72 -4t-72 -8.5t-71.5 -8.5t-71.5 -4 q-9 0 -17.5 2t-17.5 2q-12 0 -22.5 -11.5t-10.5 -22.5q0 -9 6 -17.5t15 -16t19 -12t18 -4.5q66 0 131.5 10.5t132.5 10.5h14q-24 -97 -34.5 -202t-10.5 -208q0 -17 6.5 -29t26.5 -12q11 0 17.5 7.5t11.5 15.5q2 4 3 16t2.5 26.5t2.5 27.5t2 18q8 74 19 147.5t26 145.5 q5 18 9.5 37t4.5 39z" />
</font>
</defs>
</svg>
